<svg xmlns="http://www.w3.org/2000/svg" width="375" viewBox="0 0 375 375" height="375" version="1.0"><defs><clipPath id="a"><path d="M 55 57.304688 L 224 57.304688 L 224 291 L 55 291 Z M 55 57.304688"/></clipPath><clipPath id="b"><path d="M 119 66 L 320 66 L 320 317.554688 L 119 317.554688 Z M 119 66"/></clipPath></defs><path fill="#FFF" d="M 213.523438 273.863281 C 214.464844 272.839844 214.949219 271.503906 214.886719 270.105469 L 205.800781 71.007812 C 205.675781 68.4375 203.75 66.359375 201.207031 66.058594 C 200.921875 66.027344 200.632812 66.015625 200.339844 66.027344 L 68.910156 72.011719 C 66.03125 72.140625 63.796875 74.585938 63.925781 77.464844 L 73.015625 276.566406 C 73.132812 279.132812 75.058594 281.21875 77.609375 281.515625 C 77.890625 281.550781 78.183594 281.558594 78.46875 281.539062 L 209.902344 275.5625 C 211.292969 275.503906 212.585938 274.890625 213.523438 273.863281 Z M 70.1875 92.761719 L 70.152344 92.121094 C 70.144531 91.910156 70.261719 91.796875 70.484375 91.789062 C 71.492188 91.734375 71.707031 90.808594 72.09375 89.671875 L 76.472656 76.992188 C 76.53125 76.816406 76.648438 76.726562 76.84375 76.71875 L 79.609375 76.589844 C 79.804688 76.582031 79.933594 76.660156 80.011719 76.832031 L 85.75 89.050781 C 86.257812 90.121094 86.570312 91.050781 87.53125 91.011719 C 87.753906 90.996094 87.871094 91.109375 87.882812 91.3125 L 87.910156 91.953125 C 87.925781 92.164062 87.808594 92.28125 87.585938 92.292969 L 80.558594 92.609375 C 80.332031 92.617188 80.210938 92.515625 80.203125 92.308594 L 80.175781 91.664062 C 80.160156 91.453125 80.28125 91.335938 80.496094 91.328125 C 81.433594 91.28125 82.246094 90.628906 82.207031 89.765625 C 82.199219 89.589844 82.15625 89.410156 82.070312 89.21875 L 81.273438 87.445312 L 75 87.730469 L 74.40625 89.566406 C 74.339844 89.753906 74.316406 89.9375 74.324219 90.105469 C 74.363281 90.976562 75.242188 91.570312 76.179688 91.527344 C 76.410156 91.519531 76.53125 91.621094 76.539062 91.828125 L 76.566406 92.46875 C 76.578125 92.679688 76.460938 92.796875 76.242188 92.804688 L 70.546875 93.066406 C 70.324219 93.074219 70.191406 92.96875 70.1875 92.761719 Z M 84.648438 110.367188 C 83.570312 110.417969 82.570312 110.054688 81.792969 109.417969 C 82.222656 110.777344 82.828125 112 83.695312 112.792969 L 79.984375 112.960938 L 76.285156 113.128906 C 77.074219 112.261719 77.574219 110.992188 77.867188 109.597656 C 77.152344 110.296875 76.183594 110.753906 75.109375 110.804688 C 72.78125 110.910156 70.808594 109.113281 70.703125 106.785156 C 70.597656 104.460938 72.394531 102.492188 74.726562 102.382812 C 75.21875 102.363281 75.695312 102.429688 76.144531 102.570312 C 75.582031 101.882812 75.222656 101.023438 75.175781 100.074219 C 75.070312 97.746094 76.871094 95.777344 79.195312 95.671875 C 81.527344 95.566406 83.5 97.367188 83.605469 99.691406 C 83.648438 100.644531 83.363281 101.53125 82.871094 102.261719 C 83.300781 102.082031 83.777344 101.972656 84.273438 101.945312 C 86.597656 101.84375 88.566406 103.640625 88.675781 105.964844 C 88.785156 108.292969 86.984375 110.261719 84.648438 110.367188 Z M 152.832031 189.847656 C 149.960938 189.976562 147.304688 189.003906 145.242188 187.320312 C 146.367188 190.929688 147.984375 194.171875 150.285156 196.269531 L 140.453125 196.714844 L 130.621094 197.164062 C 132.726562 194.867188 134.035156 191.492188 134.824219 187.789062 C 132.929688 189.660156 130.371094 190.863281 127.5 190.992188 C 121.328125 191.273438 116.085938 186.503906 115.8125 180.335938 C 115.535156 174.164062 120.304688 168.9375 126.480469 168.65625 C 127.800781 168.597656 129.070312 168.78125 130.257812 169.144531 C 128.757812 167.339844 127.804688 165.050781 127.691406 162.53125 C 127.40625 156.363281 132.1875 151.132812 138.359375 150.851562 C 144.535156 150.570312 149.769531 155.34375 150.050781 161.515625 C 150.167969 164.039062 149.417969 166.398438 148.09375 168.332031 C 149.25 167.863281 150.496094 167.5625 151.816406 167.503906 C 157.992188 167.222656 163.21875 172 163.5 178.164062 C 163.785156 184.335938 159.003906 189.558594 152.832031 189.847656 Z M 190.136719 241.609375 C 190.023438 239.277344 191.828125 237.316406 194.15625 237.207031 C 195.242188 237.15625 196.246094 237.523438 197.023438 238.15625 C 196.601562 236.800781 195.984375 235.570312 195.121094 234.78125 L 198.824219 234.609375 L 202.53125 234.445312 C 201.738281 235.3125 201.242188 236.582031 200.945312 237.980469 C 201.660156 237.273438 202.625 236.820312 203.710938 236.769531 C 206.035156 236.664062 208.011719 238.460938 208.109375 240.789062 C 208.21875 243.113281 206.421875 245.085938 204.09375 245.1875 C 203.589844 245.214844 203.117188 245.144531 202.667969 245.003906 C 203.226562 245.6875 203.585938 246.546875 203.632812 247.496094 C 203.746094 249.824219 201.949219 251.796875 199.613281 251.894531 C 197.285156 252.007812 195.316406 250.210938 195.210938 247.882812 C 195.167969 246.933594 195.445312 246.042969 195.945312 245.3125 C 195.507812 245.492188 195.039062 245.601562 194.542969 245.625 C 192.21875 245.726562 190.242188 243.925781 190.136719 241.609375 Z M 208.332031 255.789062 C 207.324219 255.832031 207.105469 256.765625 206.714844 257.898438 L 202.34375 270.578125 C 202.285156 270.761719 202.164062 270.847656 201.96875 270.855469 L 199.203125 270.984375 C 199.007812 270.988281 198.882812 270.914062 198.804688 270.742188 L 193.0625 258.519531 C 192.5625 257.453125 192.246094 256.519531 191.285156 256.566406 C 191.0625 256.578125 190.941406 256.472656 190.933594 256.261719 L 190.902344 255.617188 C 190.890625 255.40625 191.003906 255.289062 191.226562 255.277344 L 198.253906 254.964844 C 198.476562 254.949219 198.601562 255.054688 198.613281 255.265625 L 198.640625 255.910156 C 198.652344 256.121094 198.535156 256.238281 198.3125 256.246094 C 197.386719 256.292969 196.5625 256.941406 196.605469 257.804688 C 196.617188 257.980469 196.65625 258.167969 196.738281 258.355469 L 197.542969 260.128906 L 203.808594 259.84375 L 204.414062 258.003906 C 204.46875 257.816406 204.496094 257.636719 204.488281 257.464844 C 204.445312 256.601562 203.574219 256.003906 202.636719 256.050781 C 202.410156 256.058594 202.28125 255.953125 202.273438 255.746094 L 202.246094 255.101562 C 202.234375 254.890625 202.347656 254.773438 202.574219 254.761719 L 208.273438 254.503906 C 208.496094 254.492188 208.625 254.601562 208.628906 254.8125 L 208.664062 255.453125 C 208.671875 255.664062 208.554688 255.78125 208.332031 255.789062"/><path fill="#FFF" d="M 77.703125 79.464844 L 75.625 85.839844 L 80.460938 85.613281 Z M 77.703125 79.464844"/><path fill="#FFF" d="M 201.113281 268.105469 L 203.191406 261.738281 L 198.355469 261.953125 Z M 201.113281 268.105469"/><g clip-path="url(#a)"><path fill="#8F54A0" d="M 223.585938 269.714844 L 214.5 70.609375 C 214.195312 63.765625 209.023438 58.214844 202.222656 57.417969 C 201.46875 57.328125 200.707031 57.300781 199.945312 57.335938 L 68.515625 63.320312 C 60.84375 63.667969 54.886719 70.195312 55.230469 77.859375 L 64.316406 276.964844 C 64.628906 283.804688 69.789062 289.359375 76.597656 290.160156 C 77.347656 290.246094 78.105469 290.269531 78.867188 290.234375 L 210.296875 284.253906 C 214.011719 284.085938 217.449219 282.476562 219.953125 279.730469 C 222.464844 276.988281 223.753906 273.429688 223.585938 269.714844 Z M 72.582031 285.378906 C 71.539062 284.722656 70.621094 283.890625 69.851562 282.925781 C 69.464844 282.441406 69.128906 281.925781 68.839844 281.382812 C 68.539062 280.835938 68.292969 280.265625 68.097656 279.660156 C 67.996094 279.363281 67.90625 279.058594 67.835938 278.742188 C 67.699219 278.121094 67.605469 277.480469 67.574219 276.8125 L 58.496094 77.710938 C 58.226562 71.832031 62.785156 66.847656 68.664062 66.578125 L 200.089844 60.597656 C 200.386719 60.582031 200.683594 60.578125 200.972656 60.589844 C 201.265625 60.601562 201.546875 60.625 201.839844 60.660156 C 203.75 60.878906 205.515625 61.613281 206.992188 62.722656 C 207.476562 63.089844 207.933594 63.503906 208.359375 63.945312 C 210.042969 65.738281 211.121094 68.113281 211.234375 70.753906 L 220.324219 269.859375 C 220.589844 275.742188 216.035156 280.726562 210.144531 280.996094 L 78.722656 286.980469 C 78.136719 287.003906 77.542969 286.980469 76.976562 286.910156 C 75.382812 286.722656 73.886719 286.1875 72.582031 285.378906"/></g><path fill="#8F54A0" d="M 151.816406 167.503906 C 150.496094 167.5625 149.25 167.863281 148.09375 168.332031 C 149.417969 166.398438 150.167969 164.039062 150.050781 161.515625 C 149.769531 155.34375 144.535156 150.570312 138.359375 150.851562 C 132.1875 151.132812 127.40625 156.363281 127.691406 162.53125 C 127.804688 165.050781 128.757812 167.339844 130.257812 169.144531 C 129.070312 168.78125 127.800781 168.597656 126.480469 168.65625 C 120.304688 168.9375 115.535156 174.164062 115.8125 180.335938 C 116.085938 186.503906 121.328125 191.273438 127.5 190.992188 C 130.371094 190.863281 132.929688 189.660156 134.824219 187.789062 C 134.035156 191.492188 132.726562 194.867188 130.621094 197.164062 L 140.453125 196.714844 L 150.285156 196.269531 C 147.984375 194.171875 146.367188 190.929688 145.242188 187.320312 C 147.304688 189.003906 149.960938 189.976562 152.832031 189.847656 C 159.003906 189.558594 163.785156 184.335938 163.5 178.164062 C 163.21875 172 157.992188 167.222656 151.816406 167.503906"/><path fill="#8F54A0" d="M 215.128906 275.335938 C 216.460938 273.875 217.148438 271.980469 217.058594 270.011719 L 207.972656 70.910156 C 207.8125 67.269531 205.070312 64.320312 201.460938 63.898438 C 201.054688 63.851562 200.648438 63.839844 200.246094 63.855469 L 68.8125 69.839844 C 64.738281 70.027344 61.570312 73.492188 61.757812 77.5625 L 70.839844 276.667969 C 71.007812 280.304688 73.75 283.246094 77.355469 283.667969 C 77.761719 283.714844 78.164062 283.726562 78.566406 283.722656 L 210.003906 277.738281 C 211.976562 277.644531 213.796875 276.789062 215.128906 275.335938 Z M 78.46875 281.539062 C 78.183594 281.558594 77.890625 281.550781 77.609375 281.515625 C 75.058594 281.21875 73.132812 279.132812 73.015625 276.566406 L 63.925781 77.464844 C 63.796875 74.585938 66.03125 72.140625 68.910156 72.011719 L 200.339844 66.027344 C 200.632812 66.015625 200.921875 66.027344 201.207031 66.058594 C 203.75 66.359375 205.675781 68.4375 205.800781 71.007812 L 214.886719 270.105469 C 214.949219 271.503906 214.464844 272.839844 213.523438 273.863281 C 212.585938 274.890625 211.292969 275.503906 209.902344 275.5625 L 78.46875 281.539062"/><path fill="#FFF" d="M 210.144531 280.996094 C 216.035156 280.726562 220.589844 275.742188 220.324219 269.859375 L 211.234375 70.753906 C 211.121094 68.113281 210.042969 65.738281 208.359375 63.945312 C 207.933594 63.503906 207.476562 63.089844 206.992188 62.722656 C 205.515625 61.613281 203.75 60.878906 201.839844 60.660156 C 201.546875 60.625 201.265625 60.601562 200.972656 60.589844 C 200.683594 60.578125 200.386719 60.582031 200.089844 60.597656 L 68.664062 66.578125 C 62.785156 66.847656 58.226562 71.832031 58.496094 77.710938 L 67.574219 276.8125 C 67.605469 277.480469 67.699219 278.121094 67.835938 278.742188 C 67.90625 279.058594 67.996094 279.363281 68.097656 279.660156 C 68.292969 280.265625 68.539062 280.835938 68.839844 281.382812 C 69.128906 281.925781 69.464844 282.441406 69.851562 282.925781 C 70.621094 283.890625 71.539062 284.722656 72.582031 285.378906 C 73.886719 286.1875 75.382812 286.722656 76.976562 286.910156 C 77.542969 286.980469 78.136719 287.003906 78.722656 286.980469 Z M 77.355469 283.667969 C 73.75 283.246094 71.007812 280.304688 70.839844 276.667969 L 61.757812 77.5625 C 61.570312 73.492188 64.738281 70.027344 68.8125 69.839844 L 200.246094 63.855469 C 200.648438 63.839844 201.054688 63.851562 201.460938 63.898438 C 205.070312 64.320312 207.8125 67.269531 207.972656 70.910156 L 217.058594 270.011719 C 217.148438 271.980469 216.460938 273.875 215.128906 275.335938 C 213.796875 276.789062 211.976562 277.644531 210.003906 277.738281 L 78.566406 283.722656 C 78.164062 283.726562 77.761719 283.714844 77.355469 283.667969"/><path fill="#8F54A0" d="M 84.273438 101.945312 C 83.777344 101.972656 83.300781 102.082031 82.871094 102.261719 C 83.363281 101.53125 83.648438 100.644531 83.605469 99.691406 C 83.5 97.367188 81.527344 95.566406 79.195312 95.671875 C 76.871094 95.777344 75.070312 97.746094 75.175781 100.074219 C 75.222656 101.023438 75.582031 101.882812 76.144531 102.570312 C 75.695312 102.429688 75.21875 102.363281 74.726562 102.382812 C 72.394531 102.492188 70.597656 104.460938 70.703125 106.785156 C 70.808594 109.113281 72.78125 110.910156 75.109375 110.804688 C 76.183594 110.753906 77.152344 110.296875 77.867188 109.597656 C 77.574219 110.992188 77.074219 112.261719 76.285156 113.128906 L 79.984375 112.960938 L 83.695312 112.792969 C 82.828125 112 82.222656 110.777344 81.792969 109.417969 C 82.570312 110.054688 83.570312 110.417969 84.648438 110.367188 C 86.984375 110.261719 88.785156 108.292969 88.675781 105.964844 C 88.566406 103.640625 86.597656 101.84375 84.273438 101.945312"/><path fill="#8F54A0" d="M 76.566406 92.46875 L 76.539062 91.828125 C 76.53125 91.621094 76.410156 91.519531 76.179688 91.527344 C 75.242188 91.570312 74.363281 90.976562 74.324219 90.105469 C 74.316406 89.9375 74.339844 89.753906 74.40625 89.566406 L 75 87.730469 L 81.273438 87.445312 L 82.070312 89.21875 C 82.15625 89.410156 82.199219 89.589844 82.207031 89.765625 C 82.246094 90.628906 81.433594 91.28125 80.496094 91.328125 C 80.28125 91.335938 80.160156 91.453125 80.175781 91.664062 L 80.203125 92.308594 C 80.210938 92.515625 80.332031 92.617188 80.558594 92.609375 L 87.585938 92.292969 C 87.808594 92.28125 87.925781 92.164062 87.910156 91.953125 L 87.882812 91.3125 C 87.871094 91.109375 87.753906 90.996094 87.53125 91.011719 C 86.570312 91.050781 86.257812 90.121094 85.75 89.050781 L 80.011719 76.832031 C 79.933594 76.660156 79.804688 76.582031 79.609375 76.589844 L 76.84375 76.71875 C 76.648438 76.726562 76.53125 76.816406 76.472656 76.992188 L 72.09375 89.671875 C 71.707031 90.808594 71.492188 91.734375 70.484375 91.789062 C 70.261719 91.796875 70.144531 91.910156 70.152344 92.121094 L 70.1875 92.761719 C 70.191406 92.96875 70.324219 93.074219 70.546875 93.066406 L 76.242188 92.804688 C 76.460938 92.796875 76.578125 92.679688 76.566406 92.46875 Z M 77.703125 79.464844 L 80.460938 85.613281 L 75.625 85.839844 Z M 77.703125 79.464844"/><path fill="#8F54A0" d="M 194.542969 245.625 C 195.039062 245.601562 195.507812 245.492188 195.945312 245.3125 C 195.445312 246.042969 195.167969 246.933594 195.210938 247.882812 C 195.316406 250.210938 197.285156 252.007812 199.613281 251.894531 C 201.949219 251.796875 203.746094 249.824219 203.632812 247.496094 C 203.585938 246.546875 203.226562 245.6875 202.667969 245.003906 C 203.117188 245.144531 203.589844 245.214844 204.09375 245.1875 C 206.421875 245.085938 208.21875 243.113281 208.109375 240.789062 C 208.011719 238.460938 206.035156 236.664062 203.710938 236.769531 C 202.625 236.820312 201.660156 237.273438 200.945312 237.980469 C 201.242188 236.582031 201.738281 235.3125 202.53125 234.445312 L 198.824219 234.609375 L 195.121094 234.78125 C 195.984375 235.570312 196.601562 236.800781 197.023438 238.15625 C 196.246094 237.523438 195.242188 237.15625 194.15625 237.207031 C 191.828125 237.316406 190.023438 239.277344 190.136719 241.609375 C 190.242188 243.925781 192.21875 245.726562 194.542969 245.625"/><path fill="#8F54A0" d="M 208.273438 254.503906 L 202.574219 254.761719 C 202.347656 254.773438 202.234375 254.890625 202.246094 255.101562 L 202.273438 255.746094 C 202.28125 255.953125 202.410156 256.058594 202.636719 256.050781 C 203.574219 256.003906 204.445312 256.601562 204.488281 257.464844 C 204.496094 257.636719 204.46875 257.816406 204.414062 258.003906 L 203.808594 259.84375 L 197.542969 260.128906 L 196.738281 258.355469 C 196.65625 258.167969 196.617188 257.980469 196.605469 257.804688 C 196.5625 256.941406 197.386719 256.292969 198.3125 256.246094 C 198.535156 256.238281 198.652344 256.121094 198.640625 255.910156 L 198.613281 255.265625 C 198.601562 255.054688 198.476562 254.949219 198.253906 254.964844 L 191.226562 255.277344 C 191.003906 255.289062 190.890625 255.40625 190.902344 255.617188 L 190.933594 256.261719 C 190.941406 256.472656 191.0625 256.578125 191.285156 256.566406 C 192.246094 256.519531 192.5625 257.453125 193.0625 258.519531 L 198.804688 270.742188 C 198.882812 270.914062 199.007812 270.988281 199.203125 270.984375 L 201.96875 270.855469 C 202.164062 270.847656 202.285156 270.761719 202.34375 270.578125 L 206.714844 257.898438 C 207.105469 256.765625 207.324219 255.832031 208.332031 255.789062 C 208.554688 255.78125 208.671875 255.664062 208.664062 255.453125 L 208.628906 254.8125 C 208.625 254.601562 208.496094 254.492188 208.273438 254.503906 Z M 201.113281 268.105469 L 198.355469 261.953125 L 203.191406 261.738281 Z M 201.113281 268.105469"/><path fill="#FFF" d="M 234.910156 72.277344 L 103.394531 68.589844 L 103.242188 68.585938 C 100.398438 68.589844 98.101562 70.816406 98.023438 73.664062 L 92.429688 272.890625 C 92.394531 274.289062 92.898438 275.617188 93.859375 276.628906 C 94.816406 277.644531 96.109375 278.222656 97.507812 278.261719 L 229.023438 281.949219 L 229.171875 281.949219 C 232.019531 281.949219 234.316406 279.714844 234.394531 276.871094 L 239.988281 77.640625 C 240.027344 76.246094 239.515625 74.921875 238.558594 73.90625 C 237.601562 72.894531 236.304688 72.3125 234.910156 72.277344 Z M 220.984375 240.292969 L 226.503906 249.105469 L 220.503906 257.59375 L 214.992188 248.785156 Z M 111.425781 110.242188 L 105.914062 101.429688 L 111.914062 92.945312 L 117.421875 101.753906 Z M 120.875 89.875 C 120.875 90.085938 120.746094 90.195312 120.523438 90.1875 L 113.492188 89.992188 C 113.273438 89.984375 113.15625 89.871094 113.160156 89.660156 L 113.179688 89.015625 C 113.183594 88.8125 113.304688 88.699219 113.527344 88.707031 C 114.464844 88.734375 115.324219 88.140625 115.34375 87.277344 C 115.359375 87.101562 115.324219 86.914062 115.25 86.71875 L 114.589844 84.890625 L 108.308594 84.714844 L 107.578125 86.503906 C 107.503906 86.6875 107.46875 86.863281 107.460938 87.035156 C 107.4375 87.902344 108.265625 88.558594 109.203125 88.585938 C 109.429688 88.589844 109.546875 88.707031 109.539062 88.917969 L 109.523438 89.558594 C 109.515625 89.765625 109.394531 89.875 109.167969 89.871094 L 103.46875 89.707031 C 103.242188 89.703125 103.128906 89.589844 103.136719 89.378906 L 103.152344 88.738281 C 103.160156 88.53125 103.277344 88.417969 103.507812 88.425781 C 104.511719 88.453125 104.800781 87.539062 105.269531 86.4375 L 110.5625 74.113281 C 110.632812 73.941406 110.765625 73.863281 110.960938 73.867188 L 113.722656 73.945312 C 113.929688 73.949219 114.042969 74.035156 114.109375 74.210938 L 118.929688 86.820312 C 119.347656 87.925781 119.597656 88.875 120.558594 88.90625 C 120.78125 88.910156 120.898438 89.027344 120.898438 89.234375 Z M 165.5625 198.214844 L 150.945312 174.84375 L 166.851562 152.320312 L 181.472656 175.695312 Z M 229.261719 261.796875 C 229.253906 262.007812 229.140625 262.113281 228.910156 262.113281 C 227.902344 262.085938 227.613281 262.992188 227.148438 264.101562 L 221.851562 276.425781 C 221.78125 276.59375 221.652344 276.671875 221.453125 276.671875 L 218.695312 276.589844 C 218.488281 276.589844 218.371094 276.496094 218.304688 276.324219 L 213.488281 263.71875 C 213.066406 262.609375 212.816406 261.65625 211.859375 261.632812 C 211.628906 261.628906 211.519531 261.511719 211.519531 261.304688 L 211.542969 260.660156 C 211.542969 260.453125 211.671875 260.34375 211.894531 260.34375 L 218.921875 260.546875 C 219.144531 260.558594 219.261719 260.667969 219.257812 260.871094 L 219.238281 261.515625 C 219.234375 261.726562 219.109375 261.832031 218.886719 261.832031 C 217.953125 261.804688 217.09375 262.390625 217.074219 263.257812 C 217.058594 263.433594 217.09375 263.621094 217.164062 263.820312 L 217.828125 265.648438 L 224.105469 265.820312 L 224.839844 264.03125 C 224.910156 263.851562 224.949219 263.667969 224.957031 263.503906 C 224.980469 262.632812 224.148438 261.980469 223.210938 261.949219 C 222.984375 261.949219 222.871094 261.832031 222.871094 261.621094 L 222.894531 260.976562 C 222.894531 260.765625 223.019531 260.660156 223.246094 260.667969 L 228.945312 260.828125 C 229.171875 260.835938 229.285156 260.949219 229.277344 261.152344 L 229.261719 261.796875"/><path fill="#FFF" d="M 109.066406 82.875 L 113.90625 83.007812 L 111.609375 76.671875 Z M 109.066406 82.875"/><path fill="#FFF" d="M 220.808594 273.863281 L 223.351562 267.660156 L 218.511719 267.53125 Z M 220.808594 273.863281"/><path fill="#8F54A0" d="M 244.890625 67.933594 C 242.332031 65.230469 238.875 63.683594 235.148438 63.578125 L 103.640625 59.894531 C 103.507812 59.890625 103.371094 59.886719 103.242188 59.886719 C 95.652344 59.886719 89.527344 65.832031 89.316406 73.421875 L 83.722656 272.652344 C 83.621094 276.367188 84.96875 279.902344 87.53125 282.605469 C 90.085938 285.308594 93.542969 286.851562 97.265625 286.957031 L 228.777344 290.644531 C 228.910156 290.644531 229.042969 290.644531 229.171875 290.644531 C 236.765625 290.644531 242.886719 284.707031 243.097656 277.117188 L 248.691406 77.886719 C 248.796875 74.167969 247.441406 70.632812 244.890625 67.933594 Z M 229.171875 287.386719 C 229.066406 287.386719 228.972656 287.378906 228.871094 287.378906 L 97.355469 283.691406 C 96.246094 283.664062 95.1875 283.472656 94.199219 283.132812 C 90.554688 281.886719 87.816406 278.730469 87.144531 274.890625 C 87.023438 274.203125 86.96875 273.476562 86.988281 272.738281 L 92.582031 73.511719 C 92.625 72.066406 92.949219 70.695312 93.507812 69.453125 C 94.0625 68.210938 94.851562 67.09375 95.8125 66.160156 C 96.054688 65.929688 96.308594 65.707031 96.570312 65.5 C 98.40625 64.027344 100.722656 63.152344 103.242188 63.152344 C 103.339844 63.152344 103.441406 63.152344 103.546875 63.160156 L 235.0625 66.839844 C 236.167969 66.871094 237.21875 67.066406 238.214844 67.410156 C 241.863281 68.652344 244.597656 71.804688 245.269531 75.636719 C 245.394531 76.335938 245.445312 77.058594 245.429688 77.792969 L 239.835938 277.023438 C 239.667969 282.804688 234.921875 287.386719 229.171875 287.386719"/><path fill="#8F54A0" d="M 150.945312 174.84375 L 165.5625 198.214844 L 181.472656 175.695312 L 166.851562 152.320312 L 150.945312 174.84375"/><path fill="#8F54A0" d="M 240.140625 72.414062 C 238.785156 70.976562 236.945312 70.15625 234.972656 70.105469 L 103.453125 66.417969 C 103.382812 66.414062 103.3125 66.414062 103.242188 66.414062 C 99.210938 66.414062 95.960938 69.574219 95.851562 73.601562 L 90.25 272.832031 C 90.195312 274.808594 90.917969 276.683594 92.277344 278.121094 C 93.636719 279.5625 95.472656 280.378906 97.445312 280.433594 L 228.960938 284.121094 C 229.03125 284.121094 229.101562 284.128906 229.171875 284.128906 C 233.203125 284.128906 236.453125 280.96875 236.566406 276.9375 L 242.160156 77.699219 C 242.21875 75.726562 241.5 73.847656 240.140625 72.414062 Z M 234.394531 276.871094 C 234.316406 279.714844 232.019531 281.949219 229.171875 281.949219 L 229.023438 281.949219 L 97.507812 278.261719 C 96.109375 278.222656 94.816406 277.644531 93.859375 276.628906 C 92.898438 275.617188 92.394531 274.289062 92.429688 272.890625 L 98.023438 73.664062 C 98.101562 70.816406 100.398438 68.589844 103.242188 68.585938 L 103.394531 68.589844 L 234.910156 72.277344 C 236.304688 72.3125 237.601562 72.894531 238.558594 73.90625 C 239.515625 74.921875 240.027344 76.246094 239.988281 77.640625 L 234.394531 276.871094"/><path fill="#FFF" d="M 245.429688 77.792969 C 245.445312 77.058594 245.394531 76.335938 245.269531 75.636719 C 244.597656 71.804688 241.863281 68.652344 238.214844 67.410156 C 237.21875 67.066406 236.167969 66.871094 235.0625 66.839844 L 103.546875 63.160156 C 103.441406 63.152344 103.339844 63.152344 103.242188 63.152344 C 100.722656 63.152344 98.40625 64.027344 96.570312 65.5 C 96.308594 65.707031 96.054688 65.929688 95.8125 66.160156 C 94.851562 67.09375 94.0625 68.210938 93.507812 69.453125 C 92.949219 70.695312 92.625 72.066406 92.582031 73.511719 L 86.988281 272.738281 C 86.96875 273.476562 87.023438 274.203125 87.144531 274.890625 C 87.816406 278.730469 90.554688 281.886719 94.199219 283.132812 C 95.1875 283.472656 96.246094 283.664062 97.355469 283.691406 L 228.871094 287.378906 C 228.972656 287.378906 229.066406 287.386719 229.171875 287.386719 C 234.921875 287.386719 239.667969 282.804688 239.835938 277.023438 Z M 236.566406 276.9375 C 236.453125 280.96875 233.203125 284.128906 229.171875 284.128906 C 229.101562 284.128906 229.03125 284.121094 228.960938 284.121094 L 97.445312 280.433594 C 95.472656 280.378906 93.636719 279.5625 92.277344 278.121094 C 90.917969 276.683594 90.195312 274.808594 90.25 272.832031 L 95.851562 73.601562 C 95.960938 69.574219 99.210938 66.414062 103.242188 66.414062 C 103.3125 66.414062 103.382812 66.414062 103.453125 66.417969 L 234.972656 70.105469 C 236.945312 70.15625 238.785156 70.976562 240.140625 72.414062 C 241.5 73.847656 242.21875 75.726562 242.160156 77.699219 L 236.566406 276.9375"/><path fill="#8F54A0" d="M 120.558594 88.90625 C 119.597656 88.875 119.347656 87.925781 118.929688 86.820312 L 114.109375 74.210938 C 114.042969 74.035156 113.929688 73.949219 113.722656 73.945312 L 110.960938 73.867188 C 110.765625 73.863281 110.632812 73.941406 110.5625 74.113281 L 105.269531 86.4375 C 104.800781 87.539062 104.511719 88.453125 103.507812 88.425781 C 103.277344 88.417969 103.160156 88.53125 103.152344 88.738281 L 103.136719 89.378906 C 103.128906 89.589844 103.242188 89.703125 103.46875 89.707031 L 109.167969 89.871094 C 109.394531 89.875 109.515625 89.765625 109.523438 89.558594 L 109.539062 88.917969 C 109.546875 88.707031 109.429688 88.589844 109.203125 88.585938 C 108.265625 88.558594 107.4375 87.902344 107.460938 87.035156 C 107.46875 86.863281 107.503906 86.6875 107.578125 86.503906 L 108.308594 84.714844 L 114.589844 84.890625 L 115.25 86.71875 C 115.324219 86.914062 115.359375 87.101562 115.34375 87.277344 C 115.324219 88.140625 114.464844 88.734375 113.527344 88.707031 C 113.304688 88.699219 113.183594 88.8125 113.179688 89.015625 L 113.160156 89.660156 C 113.15625 89.871094 113.273438 89.984375 113.492188 89.992188 L 120.523438 90.1875 C 120.746094 90.195312 120.875 90.085938 120.875 89.875 L 120.898438 89.234375 C 120.898438 89.027344 120.78125 88.910156 120.558594 88.90625 Z M 109.066406 82.875 L 111.609375 76.671875 L 113.90625 83.007812 Z M 109.066406 82.875"/><path fill="#8F54A0" d="M 105.914062 101.429688 L 111.425781 110.242188 L 117.421875 101.753906 L 111.914062 92.945312 L 105.914062 101.429688"/><path fill="#8F54A0" d="M 228.945312 260.828125 L 223.246094 260.667969 C 223.019531 260.660156 222.894531 260.765625 222.894531 260.976562 L 222.871094 261.621094 C 222.871094 261.832031 222.984375 261.949219 223.210938 261.949219 C 224.148438 261.980469 224.980469 262.632812 224.957031 263.503906 C 224.949219 263.667969 224.910156 263.851562 224.839844 264.03125 L 224.105469 265.820312 L 217.828125 265.648438 L 217.164062 263.820312 C 217.09375 263.621094 217.058594 263.433594 217.074219 263.257812 C 217.09375 262.390625 217.953125 261.804688 218.886719 261.832031 C 219.109375 261.832031 219.234375 261.726562 219.238281 261.515625 L 219.257812 260.871094 C 219.261719 260.667969 219.144531 260.558594 218.921875 260.546875 L 211.894531 260.34375 C 211.671875 260.34375 211.542969 260.453125 211.542969 260.660156 L 211.519531 261.304688 C 211.519531 261.511719 211.628906 261.628906 211.859375 261.632812 C 212.816406 261.65625 213.066406 262.609375 213.488281 263.71875 L 218.304688 276.324219 C 218.371094 276.496094 218.488281 276.589844 218.695312 276.589844 L 221.453125 276.671875 C 221.652344 276.671875 221.78125 276.59375 221.851562 276.425781 L 227.148438 264.101562 C 227.613281 262.992188 227.902344 262.085938 228.910156 262.113281 C 229.140625 262.113281 229.253906 262.007812 229.261719 261.796875 L 229.277344 261.152344 C 229.285156 260.949219 229.171875 260.835938 228.945312 260.828125 Z M 220.808594 273.863281 L 218.511719 267.53125 L 223.351562 267.660156 Z M 220.808594 273.863281"/><path fill="#8F54A0" d="M 226.503906 249.105469 L 220.984375 240.292969 L 214.992188 248.785156 L 220.503906 257.59375 L 226.503906 249.105469"/><path fill="#FFF" d="M 271.140625 84.519531 L 140.472656 69.1875 C 140.269531 69.160156 140.066406 69.148438 139.855469 69.148438 C 137.210938 69.148438 134.984375 71.132812 134.675781 73.761719 L 111.394531 271.710938 C 111.054688 274.570312 113.121094 277.175781 115.976562 277.5 L 246.640625 292.84375 C 246.851562 292.867188 247.0625 292.878906 247.269531 292.878906 C 249.910156 292.878906 252.136719 290.890625 252.445312 288.269531 L 275.722656 90.316406 C 275.886719 88.929688 275.5 87.566406 274.632812 86.46875 C 273.765625 85.375 272.535156 84.6875 271.140625 84.519531 Z M 153.949219 100.792969 C 153.210938 107.15625 144.785156 111.269531 144.785156 111.269531 C 144.785156 111.269531 137.558594 105.316406 138.308594 98.953125 C 139.054688 92.59375 143.929688 92.78125 146.574219 96.117188 C 149.917969 93.484375 154.703125 94.429688 153.949219 100.792969 Z M 156 91.9375 C 155.972656 92.148438 155.84375 92.246094 155.621094 92.214844 L 148.632812 91.398438 C 148.417969 91.375 148.308594 91.246094 148.332031 91.039062 L 148.410156 90.402344 C 148.429688 90.195312 148.5625 90.097656 148.78125 90.121094 C 149.710938 90.234375 150.617188 89.71875 150.726562 88.855469 C 150.742188 88.683594 150.726562 88.496094 150.679688 88.292969 L 150.171875 86.414062 L 143.941406 85.683594 L 143.050781 87.398438 C 142.957031 87.574219 142.914062 87.75 142.886719 87.914062 C 142.78125 88.78125 143.554688 89.507812 144.492188 89.617188 C 144.710938 89.644531 144.820312 89.769531 144.792969 89.976562 L 144.714844 90.617188 C 144.695312 90.824219 144.5625 90.917969 144.339844 90.894531 L 138.675781 90.230469 C 138.449219 90.203125 138.347656 90.078125 138.371094 89.871094 L 138.449219 89.230469 C 138.472656 89.023438 138.597656 88.925781 138.824219 88.953125 C 139.824219 89.070312 140.191406 88.1875 140.761719 87.128906 L 147.128906 75.324219 C 147.214844 75.15625 147.351562 75.089844 147.542969 75.113281 L 150.292969 75.433594 C 150.492188 75.457031 150.597656 75.554688 150.648438 75.734375 L 154.335938 88.722656 C 154.65625 89.859375 154.816406 90.828125 155.769531 90.941406 C 155.992188 90.972656 156.097656 91.09375 156.074219 91.300781 Z M 215.230469 175.703125 C 213.246094 192.585938 190.917969 203.507812 190.917969 203.507812 C 190.917969 203.507812 171.726562 187.710938 173.710938 170.828125 C 175.699219 153.953125 188.636719 154.445312 195.644531 163.3125 C 204.511719 156.308594 217.214844 158.820312 215.230469 175.703125 Z M 248.671875 272.796875 C 248.652344 273 248.519531 273.101562 248.292969 273.078125 C 247.300781 272.960938 246.929688 273.839844 246.363281 274.898438 L 239.992188 286.699219 C 239.902344 286.871094 239.769531 286.933594 239.574219 286.910156 L 236.835938 286.59375 C 236.636719 286.570312 236.519531 286.472656 236.472656 286.292969 L 232.789062 273.300781 C 232.464844 272.167969 232.300781 271.195312 231.351562 271.089844 C 231.128906 271.058594 231.023438 270.9375 231.046875 270.726562 L 231.117188 270.089844 C 231.144531 269.882812 231.277344 269.785156 231.503906 269.8125 L 238.488281 270.632812 C 238.707031 270.65625 238.816406 270.785156 238.792969 270.988281 L 238.71875 271.628906 C 238.695312 271.835938 238.558594 271.929688 238.332031 271.90625 C 237.410156 271.796875 236.496094 272.3125 236.402344 273.171875 C 236.378906 273.347656 236.390625 273.535156 236.449219 273.734375 L 236.941406 275.609375 L 243.179688 276.34375 L 244.070312 274.628906 C 244.160156 274.453125 244.21875 274.277344 244.234375 274.109375 C 244.335938 273.242188 243.5625 272.515625 242.628906 272.410156 C 242.410156 272.386719 242.304688 272.261719 242.332031 272.046875 L 242.402344 271.414062 C 242.429688 271.203125 242.558594 271.113281 242.78125 271.136719 L 248.449219 271.804688 C 248.667969 271.824219 248.773438 271.957031 248.75 272.15625 Z M 248.816406 263.070312 C 248.066406 269.4375 243.191406 269.253906 240.550781 265.902344 C 237.210938 268.550781 232.417969 267.601562 233.167969 261.234375 C 233.917969 254.875 242.332031 250.753906 242.332031 250.753906 C 242.332031 250.753906 249.566406 256.710938 248.816406 263.070312"/><path fill="#FFF" d="M 144.855469 83.914062 L 149.664062 84.480469 L 147.9375 77.964844 Z M 144.855469 83.914062"/><path fill="#FFF" d="M 239.179688 284.0625 L 242.257812 278.113281 L 237.457031 277.550781 Z M 239.179688 284.0625"/><path fill="#8F54A0" d="M 272.160156 75.878906 L 141.496094 60.546875 C 140.949219 60.484375 140.398438 60.449219 139.855469 60.449219 C 132.796875 60.449219 126.847656 65.738281 126.027344 72.746094 L 102.753906 270.695312 C 101.847656 278.320312 107.328125 285.25 114.960938 286.144531 L 245.628906 301.484375 C 246.171875 301.546875 246.726562 301.574219 247.269531 301.574219 C 254.328125 301.574219 260.265625 296.289062 261.09375 289.28125 L 284.378906 91.332031 C 285.269531 83.707031 279.789062 76.777344 272.160156 75.878906 Z M 281.136719 90.949219 L 257.847656 288.902344 C 257.769531 289.582031 257.632812 290.234375 257.429688 290.863281 C 257.230469 291.488281 256.980469 292.089844 256.675781 292.660156 C 256.527344 292.941406 256.367188 293.222656 256.1875 293.488281 C 254.261719 296.425781 250.933594 298.316406 247.269531 298.316406 C 246.851562 298.316406 246.429688 298.285156 246.007812 298.242188 L 115.34375 282.910156 C 114.976562 282.863281 114.617188 282.804688 114.265625 282.71875 C 113.566406 282.570312 112.882812 282.347656 112.246094 282.0625 C 111.921875 281.914062 111.617188 281.761719 111.3125 281.585938 C 110.710938 281.246094 110.148438 280.847656 109.625 280.40625 C 108.855469 279.730469 108.171875 278.953125 107.617188 278.101562 C 107.246094 277.527344 106.933594 276.910156 106.675781 276.273438 C 106.289062 275.316406 106.042969 274.296875 105.957031 273.238281 C 105.890625 272.53125 105.902344 271.808594 105.988281 271.078125 L 129.273438 73.128906 C 129.308594 72.789062 129.367188 72.453125 129.4375 72.128906 C 129.71875 70.820312 130.234375 69.613281 130.933594 68.539062 C 131.460938 67.738281 132.085938 67.015625 132.796875 66.386719 C 133.273438 65.96875 133.785156 65.589844 134.328125 65.257812 C 134.597656 65.097656 134.875 64.945312 135.164062 64.804688 C 136.589844 64.101562 138.191406 63.714844 139.855469 63.714844 C 140.269531 63.714844 140.683594 63.734375 141.113281 63.785156 L 271.773438 79.121094 C 277.632812 79.808594 281.8125 85.101562 281.136719 90.949219"/><path fill="#8F54A0" d="M 271.398438 82.363281 L 140.734375 67.027344 C 140.4375 66.992188 140.148438 66.976562 139.855469 66.976562 C 136.105469 66.976562 132.953125 69.785156 132.515625 73.511719 L 109.234375 271.457031 C 108.757812 275.503906 111.667969 279.1875 115.71875 279.667969 L 246.390625 295 C 246.683594 295.03125 246.972656 295.058594 247.269531 295.058594 C 251.015625 295.058594 254.167969 292.242188 254.609375 288.515625 L 277.890625 90.566406 C 278.359375 86.519531 275.453125 82.835938 271.398438 82.363281 Z M 275.722656 90.316406 L 252.445312 288.269531 C 252.136719 290.890625 249.910156 292.878906 247.269531 292.878906 C 247.0625 292.878906 246.851562 292.867188 246.640625 292.84375 L 115.976562 277.5 C 113.121094 277.175781 111.054688 274.570312 111.394531 271.710938 L 134.675781 73.761719 C 134.984375 71.132812 137.210938 69.148438 139.855469 69.148438 C 140.066406 69.148438 140.269531 69.160156 140.472656 69.1875 L 271.140625 84.519531 C 272.535156 84.6875 273.765625 85.375 274.632812 86.46875 C 275.5 87.566406 275.886719 88.929688 275.722656 90.316406"/><path fill="#FFF" d="M 271.773438 79.121094 L 141.113281 63.785156 C 140.683594 63.734375 140.269531 63.714844 139.855469 63.714844 C 138.191406 63.714844 136.589844 64.101562 135.164062 64.804688 C 134.875 64.945312 134.597656 65.097656 134.328125 65.257812 C 133.785156 65.589844 133.273438 65.96875 132.796875 66.386719 C 132.085938 67.015625 131.460938 67.738281 130.933594 68.539062 C 130.234375 69.613281 129.71875 70.820312 129.4375 72.128906 C 129.367188 72.453125 129.308594 72.789062 129.273438 73.128906 L 105.988281 271.078125 C 105.902344 271.808594 105.890625 272.53125 105.957031 273.238281 C 106.042969 274.296875 106.289062 275.316406 106.675781 276.273438 C 106.933594 276.910156 107.246094 277.527344 107.617188 278.101562 C 108.171875 278.953125 108.855469 279.730469 109.625 280.40625 C 110.148438 280.847656 110.710938 281.246094 111.3125 281.585938 C 111.617188 281.761719 111.921875 281.914062 112.246094 282.0625 C 112.882812 282.347656 113.566406 282.570312 114.265625 282.71875 C 114.617188 282.804688 114.976562 282.863281 115.34375 282.910156 L 246.007812 298.242188 C 246.429688 298.285156 246.851562 298.316406 247.269531 298.316406 C 250.933594 298.316406 254.261719 296.425781 256.1875 293.488281 C 256.367188 293.222656 256.527344 292.941406 256.675781 292.660156 C 256.980469 292.089844 257.230469 291.488281 257.429688 290.863281 C 257.632812 290.234375 257.769531 289.582031 257.847656 288.902344 L 281.136719 90.949219 C 281.8125 85.101562 277.632812 79.808594 271.773438 79.121094 Z M 277.890625 90.566406 L 254.609375 288.515625 C 254.167969 292.242188 251.015625 295.058594 247.269531 295.058594 C 246.972656 295.058594 246.683594 295.03125 246.390625 295 L 115.71875 279.667969 C 111.667969 279.1875 108.757812 275.503906 109.234375 271.457031 L 132.515625 73.511719 C 132.953125 69.785156 136.105469 66.976562 139.855469 66.976562 C 140.148438 66.976562 140.4375 66.992188 140.734375 67.027344 L 271.398438 82.363281 C 275.453125 82.835938 278.359375 86.519531 277.890625 90.566406"/><path fill="#8F54A0" d="M 155.769531 90.941406 C 154.816406 90.828125 154.65625 89.859375 154.335938 88.722656 L 150.648438 75.734375 C 150.597656 75.554688 150.492188 75.457031 150.292969 75.433594 L 147.542969 75.113281 C 147.351562 75.089844 147.214844 75.15625 147.128906 75.324219 L 140.761719 87.128906 C 140.191406 88.1875 139.824219 89.070312 138.824219 88.953125 C 138.597656 88.925781 138.472656 89.023438 138.449219 89.230469 L 138.371094 89.871094 C 138.347656 90.078125 138.449219 90.203125 138.675781 90.230469 L 144.339844 90.894531 C 144.5625 90.917969 144.695312 90.824219 144.714844 90.617188 L 144.792969 89.976562 C 144.820312 89.769531 144.710938 89.644531 144.492188 89.617188 C 143.554688 89.507812 142.78125 88.78125 142.886719 87.914062 C 142.914062 87.75 142.957031 87.574219 143.050781 87.398438 L 143.941406 85.683594 L 150.171875 86.414062 L 150.679688 88.292969 C 150.726562 88.496094 150.742188 88.683594 150.726562 88.855469 C 150.617188 89.71875 149.710938 90.234375 148.78125 90.121094 C 148.5625 90.097656 148.429688 90.195312 148.410156 90.402344 L 148.332031 91.039062 C 148.308594 91.246094 148.417969 91.375 148.632812 91.398438 L 155.621094 92.214844 C 155.84375 92.246094 155.972656 92.148438 156 91.9375 L 156.074219 91.300781 C 156.097656 91.09375 155.992188 90.972656 155.769531 90.941406 Z M 144.855469 83.914062 L 147.9375 77.964844 L 149.664062 84.480469 Z M 144.855469 83.914062"/><path fill="#8F54A0" d="M 146.574219 96.117188 C 143.929688 92.78125 139.054688 92.59375 138.308594 98.953125 C 137.558594 105.316406 144.785156 111.269531 144.785156 111.269531 C 144.785156 111.269531 153.210938 107.15625 153.949219 100.792969 C 154.703125 94.429688 149.917969 93.484375 146.574219 96.117188"/><path fill="#8F54A0" d="M 248.449219 271.804688 L 242.78125 271.136719 C 242.558594 271.113281 242.429688 271.203125 242.402344 271.414062 L 242.332031 272.046875 C 242.304688 272.261719 242.410156 272.386719 242.628906 272.410156 C 243.5625 272.515625 244.335938 273.242188 244.234375 274.109375 C 244.21875 274.277344 244.160156 274.453125 244.070312 274.628906 L 243.179688 276.34375 L 236.941406 275.609375 L 236.449219 273.734375 C 236.390625 273.535156 236.378906 273.347656 236.402344 273.171875 C 236.496094 272.3125 237.410156 271.796875 238.332031 271.90625 C 238.558594 271.929688 238.695312 271.835938 238.71875 271.628906 L 238.792969 270.988281 C 238.816406 270.785156 238.707031 270.65625 238.488281 270.632812 L 231.503906 269.8125 C 231.277344 269.785156 231.144531 269.882812 231.117188 270.089844 L 231.046875 270.726562 C 231.023438 270.9375 231.128906 271.058594 231.351562 271.089844 C 232.300781 271.195312 232.464844 272.167969 232.789062 273.300781 L 236.472656 286.292969 C 236.519531 286.472656 236.636719 286.570312 236.835938 286.59375 L 239.574219 286.910156 C 239.769531 286.933594 239.902344 286.871094 239.992188 286.699219 L 246.363281 274.898438 C 246.929688 273.839844 247.300781 272.960938 248.292969 273.078125 C 248.519531 273.101562 248.652344 273 248.671875 272.796875 L 248.75 272.15625 C 248.773438 271.957031 248.667969 271.824219 248.449219 271.804688 Z M 239.179688 284.0625 L 237.457031 277.550781 L 242.257812 278.113281 Z M 239.179688 284.0625"/><path fill="#8F54A0" d="M 242.332031 250.753906 C 242.332031 250.753906 233.917969 254.875 233.167969 261.234375 C 232.417969 267.601562 237.210938 268.550781 240.550781 265.902344 C 243.191406 269.253906 248.066406 269.4375 248.816406 263.070312 C 249.566406 256.710938 242.332031 250.753906 242.332031 250.753906"/><path fill="#8F54A0" d="M 195.644531 163.3125 C 188.636719 154.445312 175.699219 153.953125 173.710938 170.828125 C 171.726562 187.710938 190.917969 203.507812 190.917969 203.507812 C 190.917969 203.507812 213.246094 192.585938 215.230469 175.703125 C 217.214844 158.820312 204.511719 156.308594 195.644531 163.3125"/><path fill="#FFF" d="M 257.722656 293.59375 L 253 292.527344 L 254.019531 299.1875 Z M 257.722656 293.59375"/><path fill="#FFF" d="M 181.480469 90.179688 L 186.195312 91.25 L 185.171875 84.589844 Z M 181.480469 90.179688"/><g clip-path="url(#b)"><path fill="#8F54A0" d="M 317.617188 101.824219 C 315.636719 98.683594 312.546875 96.496094 308.910156 95.671875 L 180.613281 66.585938 C 179.59375 66.355469 178.550781 66.238281 177.515625 66.238281 C 170.972656 66.238281 165.382812 70.699219 163.9375 77.082031 L 119.777344 271.453125 C 118.953125 275.074219 119.597656 278.800781 121.578125 281.949219 C 123.5625 285.097656 126.652344 287.289062 130.28125 288.105469 L 258.585938 317.1875 C 259.605469 317.421875 260.648438 317.539062 261.679688 317.539062 C 268.226562 317.539062 273.8125 313.078125 275.265625 306.695312 L 319.421875 112.328125 C 320.242188 108.703125 319.597656 104.972656 317.617188 101.824219 Z M 316.234375 111.605469 L 272.078125 305.976562 C 271.65625 307.824219 270.777344 309.464844 269.585938 310.773438 C 267.589844 312.960938 264.722656 314.273438 261.679688 314.273438 C 260.898438 314.273438 260.101562 314.191406 259.3125 314.007812 L 131.007812 284.921875 C 130.289062 284.757812 129.601562 284.527344 128.957031 284.238281 C 127.339844 283.503906 125.96875 282.398438 124.929688 281.050781 C 124.71875 280.777344 124.519531 280.5 124.34375 280.210938 C 123.792969 279.34375 123.367188 278.402344 123.089844 277.40625 C 122.625 275.757812 122.554688 273.96875 122.957031 272.171875 L 167.117188 77.804688 C 167.328125 76.875 167.65625 76.003906 168.078125 75.199219 C 169.207031 73.054688 171.015625 71.394531 173.171875 70.433594 C 174.519531 69.828125 175.996094 69.5 177.511719 69.5 C 178.296875 69.5 179.089844 69.585938 179.882812 69.765625 L 308.1875 98.855469 C 313.9375 100.15625 317.535156 105.863281 316.234375 111.605469"/></g><path fill="#8F54A0" d="M 312.085938 105.304688 C 311.035156 103.636719 309.394531 102.472656 307.472656 102.035156 L 179.160156 72.949219 C 178.621094 72.824219 178.0625 72.761719 177.515625 72.761719 L 177.515625 74.941406 C 177.90625 74.941406 178.292969 74.984375 178.679688 75.070312 L 306.980469 104.15625 C 308.351562 104.464844 309.511719 105.285156 310.25 106.464844 C 310.996094 107.644531 311.234375 109.046875 310.925781 110.402344 L 266.765625 304.769531 C 266.230469 307.128906 264.09375 308.84375 261.679688 308.84375 C 261.292969 308.84375 260.898438 308.796875 260.511719 308.703125 L 132.214844 279.621094 C 129.402344 278.984375 127.632812 276.179688 128.265625 273.371094 L 172.429688 79.007812 C 172.960938 76.648438 175.105469 74.941406 177.515625 74.941406 L 177.515625 72.761719 C 174.097656 72.761719 171.066406 75.1875 170.304688 78.523438 L 126.148438 272.890625 C 125.714844 274.820312 126.054688 276.800781 127.109375 278.472656 C 128.164062 280.148438 129.800781 281.304688 131.730469 281.738281 L 260.03125 310.832031 C 260.578125 310.949219 261.136719 311.015625 261.679688 311.015625 C 265.097656 311.015625 268.132812 308.59375 268.890625 305.25 L 313.046875 110.882812 C 313.484375 108.957031 313.144531 106.976562 312.085938 105.304688"/><path fill="#FFF" d="M 308.1875 98.855469 L 179.882812 69.765625 C 179.089844 69.585938 178.296875 69.5 177.511719 69.5 C 175.996094 69.5 174.519531 69.828125 173.171875 70.433594 C 171.015625 71.394531 169.207031 73.054688 168.078125 75.199219 C 167.65625 76.003906 167.328125 76.875 167.117188 77.804688 L 122.957031 272.171875 C 122.554688 273.96875 122.625 275.757812 123.089844 277.40625 C 123.367188 278.402344 123.792969 279.34375 124.34375 280.210938 C 124.519531 280.5 124.71875 280.777344 124.929688 281.050781 C 125.96875 282.398438 127.339844 283.503906 128.957031 284.238281 C 129.601562 284.527344 130.289062 284.757812 131.007812 284.921875 L 259.3125 314.007812 C 260.101562 314.191406 260.898438 314.273438 261.679688 314.273438 C 264.722656 314.273438 267.589844 312.960938 269.585938 310.773438 C 270.777344 309.464844 271.65625 307.824219 272.078125 305.976562 L 316.234375 111.605469 C 317.535156 105.863281 313.9375 100.15625 308.1875 98.855469 Z M 268.890625 305.25 C 268.132812 308.59375 265.097656 311.015625 261.679688 311.015625 C 261.136719 311.015625 260.578125 310.949219 260.03125 310.832031 L 131.730469 281.738281 C 129.800781 281.304688 128.164062 280.148438 127.109375 278.472656 C 126.054688 276.800781 125.714844 274.820312 126.148438 272.890625 L 170.304688 78.523438 C 171.066406 75.1875 174.097656 72.761719 177.515625 72.761719 L 177.515625 74.941406 C 175.105469 74.941406 172.960938 76.648438 172.429688 79.007812 L 128.265625 273.371094 C 127.632812 276.179688 129.402344 278.984375 132.214844 279.621094 L 260.511719 308.703125 C 260.898438 308.796875 261.292969 308.84375 261.679688 308.84375 C 264.09375 308.84375 266.230469 307.128906 266.765625 304.769531 L 310.925781 110.402344 C 311.234375 109.046875 310.996094 107.644531 310.25 106.464844 C 309.511719 105.285156 308.351562 104.464844 306.980469 104.15625 L 178.679688 75.070312 C 178.292969 74.984375 177.90625 74.941406 177.515625 74.941406 L 177.515625 72.761719 C 178.0625 72.761719 178.621094 72.824219 179.160156 72.949219 L 307.472656 102.035156 C 309.394531 102.472656 311.035156 103.636719 312.085938 105.304688 C 313.144531 106.976562 313.484375 108.957031 313.046875 110.882812 Z M 180.765625 118.007812 L 178.480469 117.488281 L 176.195312 116.972656 C 177.152344 115.773438 177.871094 114.96875 178.34375 113.5625 C 175.378906 114.480469 172.011719 112.378906 172.84375 108.730469 C 173.289062 106.773438 175.886719 105.566406 177.765625 104.402344 C 179.851562 103.117188 182.3125 100.609375 182.3125 100.609375 C 182.3125 100.609375 183.355469 103.859375 184.648438 105.828125 C 185.890625 107.707031 187.808594 110 187.347656 112.023438 C 186.515625 115.664062 182.570312 116.109375 180.292969 114 C 180.113281 115.476562 180.414062 116.507812 180.765625 118.007812 Z M 184.4375 98.019531 C 184.21875 97.972656 184.128906 97.832031 184.171875 97.632812 L 184.3125 97.007812 C 184.363281 96.800781 184.503906 96.71875 184.726562 96.765625 C 185.625 96.972656 186.585938 96.558594 186.78125 95.714844 C 186.820312 95.546875 186.828125 95.355469 186.796875 95.152344 L 186.5 93.230469 L 180.378906 91.839844 L 179.308594 93.453125 C 179.203125 93.617188 179.125 93.785156 179.089844 93.953125 C 178.902344 94.800781 179.589844 95.605469 180.503906 95.8125 C 180.71875 95.859375 180.808594 95.996094 180.765625 96.203125 L 180.625 96.828125 C 180.578125 97.027344 180.4375 97.113281 180.222656 97.0625 L 174.664062 95.804688 C 174.4375 95.753906 174.34375 95.617188 174.390625 95.414062 L 174.53125 94.789062 C 174.578125 94.582031 174.71875 94.5 174.941406 94.550781 C 175.925781 94.773438 176.382812 93.933594 177.058594 92.941406 L 184.640625 81.875 C 184.746094 81.722656 184.886719 81.667969 185.082031 81.714844 L 187.769531 82.324219 C 187.96875 82.367188 188.078125 82.472656 188.097656 82.660156 L 190.382812 95.964844 C 190.582031 97.128906 190.640625 98.109375 191.578125 98.320312 C 191.800781 98.371094 191.890625 98.503906 191.839844 98.710938 L 191.703125 99.335938 C 191.652344 99.542969 191.515625 99.625 191.296875 99.574219 Z M 220.574219 215.652344 L 214.511719 214.277344 L 208.449219 212.898438 C 211.003906 209.71875 212.90625 207.585938 214.15625 203.855469 C 206.292969 206.296875 197.363281 200.71875 199.5625 191.046875 C 200.738281 185.84375 207.632812 182.65625 212.625 179.570312 C 218.148438 176.152344 224.6875 169.5 224.6875 169.5 C 224.6875 169.5 227.4375 178.121094 230.882812 183.339844 C 234.175781 188.324219 239.25 194.417969 238.035156 199.769531 C 235.839844 209.4375 225.375 210.621094 219.332031 205.027344 C 218.851562 208.9375 219.652344 211.679688 220.574219 215.652344 Z M 258.429688 265.769531 L 260.71875 266.289062 L 263 266.804688 C 262.042969 268.011719 261.328125 268.804688 260.851562 270.214844 C 263.816406 269.296875 267.179688 271.398438 266.355469 275.046875 C 265.90625 277.003906 263.3125 278.203125 261.429688 279.375 C 259.347656 280.664062 256.886719 283.167969 256.886719 283.167969 C 256.886719 283.167969 255.84375 279.917969 254.550781 277.945312 C 253.308594 276.074219 251.390625 273.773438 251.851562 271.753906 C 252.679688 268.117188 256.621094 267.664062 258.902344 269.777344 C 259.082031 268.304688 258.785156 267.265625 258.429688 265.769531 Z M 254.761719 285.761719 C 254.976562 285.8125 255.070312 285.941406 255.023438 286.152344 L 254.886719 286.769531 C 254.835938 286.976562 254.691406 287.0625 254.472656 287.011719 C 253.566406 286.804688 252.605469 287.214844 252.410156 288.058594 C 252.375 288.234375 252.371094 288.421875 252.398438 288.625 L 252.699219 290.550781 L 258.820312 291.9375 L 259.890625 290.328125 C 259.996094 290.160156 260.066406 289.988281 260.101562 289.824219 C 260.296875 288.976562 259.609375 288.175781 258.691406 287.964844 C 258.476562 287.917969 258.378906 287.777344 258.425781 287.578125 L 258.574219 286.945312 C 258.613281 286.746094 258.761719 286.664062 258.980469 286.714844 L 264.539062 287.976562 C 264.761719 288.023438 264.847656 288.164062 264.800781 288.363281 L 264.660156 288.988281 C 264.613281 289.191406 264.472656 289.273438 264.253906 289.230469 C 263.273438 289.007812 262.816406 289.84375 262.136719 290.832031 L 254.554688 301.902344 C 254.449219 302.054688 254.308594 302.109375 254.117188 302.066406 L 251.417969 301.457031 C 251.222656 301.414062 251.121094 301.308594 251.09375 301.121094 L 248.808594 287.8125 C 248.609375 286.648438 248.550781 285.671875 247.621094 285.457031 C 247.398438 285.402344 247.308594 285.273438 247.347656 285.0625 L 247.496094 284.441406 C 247.542969 284.238281 247.683594 284.148438 247.902344 284.203125 L 254.761719 285.761719"/><path fill="#8F54A0" d="M 191.703125 99.335938 L 191.839844 98.710938 C 191.890625 98.503906 191.800781 98.371094 191.578125 98.320312 C 190.640625 98.109375 190.582031 97.128906 190.382812 95.964844 L 188.097656 82.660156 C 188.078125 82.472656 187.96875 82.367188 187.769531 82.324219 L 185.082031 81.714844 C 184.886719 81.667969 184.746094 81.722656 184.640625 81.875 L 177.058594 92.941406 C 176.382812 93.933594 175.925781 94.773438 174.941406 94.550781 C 174.71875 94.5 174.578125 94.582031 174.53125 94.789062 L 174.390625 95.414062 C 174.34375 95.617188 174.4375 95.753906 174.664062 95.804688 L 180.222656 97.0625 C 180.4375 97.113281 180.578125 97.027344 180.625 96.828125 L 180.765625 96.203125 C 180.808594 95.996094 180.71875 95.859375 180.503906 95.8125 C 179.589844 95.605469 178.902344 94.800781 179.089844 93.953125 C 179.125 93.785156 179.203125 93.617188 179.308594 93.453125 L 180.378906 91.839844 L 186.5 93.230469 L 186.796875 95.152344 C 186.828125 95.355469 186.820312 95.546875 186.78125 95.714844 C 186.585938 96.558594 185.625 96.972656 184.726562 96.765625 C 184.503906 96.71875 184.363281 96.800781 184.3125 97.007812 L 184.171875 97.632812 C 184.128906 97.832031 184.21875 97.972656 184.4375 98.019531 L 191.296875 99.574219 C 191.515625 99.625 191.652344 99.542969 191.703125 99.335938 Z M 181.480469 90.179688 L 185.171875 84.589844 L 186.195312 91.25 Z M 181.480469 90.179688"/><path fill="#8F54A0" d="M 187.347656 112.023438 C 187.808594 110 185.890625 107.707031 184.648438 105.828125 C 183.355469 103.859375 182.3125 100.609375 182.3125 100.609375 C 182.3125 100.609375 179.851562 103.117188 177.765625 104.402344 C 175.886719 105.566406 173.289062 106.773438 172.84375 108.730469 C 172.011719 112.378906 175.378906 114.480469 178.34375 113.5625 C 177.871094 114.96875 177.152344 115.773438 176.195312 116.972656 L 178.480469 117.488281 L 180.765625 118.007812 C 180.414062 116.507812 180.113281 115.476562 180.292969 114 C 182.570312 116.109375 186.515625 115.664062 187.347656 112.023438"/><path fill="#8F54A0" d="M 247.496094 284.441406 L 247.347656 285.0625 C 247.308594 285.273438 247.398438 285.402344 247.621094 285.457031 C 248.550781 285.671875 248.609375 286.648438 248.808594 287.8125 L 251.09375 301.121094 C 251.121094 301.308594 251.222656 301.414062 251.417969 301.457031 L 254.117188 302.066406 C 254.308594 302.109375 254.449219 302.054688 254.554688 301.902344 L 262.136719 290.832031 C 262.816406 289.84375 263.273438 289.007812 264.253906 289.230469 C 264.472656 289.273438 264.613281 289.191406 264.660156 288.988281 L 264.800781 288.363281 C 264.847656 288.164062 264.761719 288.023438 264.539062 287.976562 L 258.980469 286.714844 C 258.761719 286.664062 258.613281 286.746094 258.574219 286.945312 L 258.425781 287.578125 C 258.378906 287.777344 258.476562 287.917969 258.691406 287.964844 C 259.609375 288.175781 260.296875 288.976562 260.101562 289.824219 C 260.066406 289.988281 259.996094 290.160156 259.890625 290.328125 L 258.820312 291.9375 L 252.699219 290.550781 L 252.398438 288.625 C 252.371094 288.421875 252.375 288.234375 252.410156 288.058594 C 252.605469 287.214844 253.566406 286.804688 254.472656 287.011719 C 254.691406 287.0625 254.835938 286.976562 254.886719 286.769531 L 255.023438 286.152344 C 255.070312 285.941406 254.976562 285.8125 254.761719 285.761719 L 247.902344 284.203125 C 247.683594 284.148438 247.542969 284.238281 247.496094 284.441406 Z M 257.722656 293.59375 L 254.019531 299.1875 L 253 292.527344 Z M 257.722656 293.59375"/><path fill="#8F54A0" d="M 251.851562 271.753906 C 251.390625 273.773438 253.308594 276.074219 254.550781 277.945312 C 255.84375 279.917969 256.886719 283.167969 256.886719 283.167969 C 256.886719 283.167969 259.347656 280.664062 261.429688 279.375 C 263.3125 278.203125 265.90625 277.003906 266.355469 275.046875 C 267.179688 271.398438 263.816406 269.296875 260.851562 270.214844 C 261.328125 268.804688 262.042969 268.011719 263 266.804688 L 260.71875 266.289062 L 258.429688 265.769531 C 258.785156 267.265625 259.082031 268.304688 258.902344 269.777344 C 256.621094 267.664062 252.679688 268.117188 251.851562 271.753906"/><path fill="#8F54A0" d="M 238.035156 199.769531 C 239.25 194.417969 234.175781 188.324219 230.882812 183.339844 C 227.4375 178.121094 224.6875 169.5 224.6875 169.5 C 224.6875 169.5 218.148438 176.152344 212.625 179.570312 C 207.632812 182.65625 200.738281 185.84375 199.5625 191.046875 C 197.363281 200.71875 206.292969 206.296875 214.15625 203.855469 C 212.90625 207.585938 211.003906 209.71875 208.449219 212.898438 L 214.511719 214.277344 L 220.574219 215.652344 C 219.652344 211.679688 218.851562 208.9375 219.332031 205.027344 C 225.375 210.621094 235.839844 209.4375 238.035156 199.769531"/></svg>