<svg xmlns="http://www.w3.org/2000/svg" xmlns:xlink="http://www.w3.org/1999/xlink" width="375" viewBox="0 0 375 375" height="375" version="1.0"><defs><clipPath id="a"><path d="M 226.417969 112.5 L 233.703125 112.5 L 233.703125 112.515625 L 226.417969 112.515625 Z M 219.628906 112.515625 L 233.898438 112.515625 L 233.898438 112.53125 L 219.628906 112.53125 Z M 212.855469 112.53125 L 234.078125 112.53125 L 234.078125 112.546875 L 212.855469 112.546875 Z M 206.066406 112.546875 L 234.199219 112.546875 L 234.199219 112.558594 L 206.066406 112.558594 Z M 199.292969 112.558594 L 234.320312 112.558594 L 234.320312 112.574219 L 199.292969 112.574219 Z M 192.519531 112.574219 L 234.441406 112.574219 L 234.441406 112.589844 L 192.519531 112.589844 Z M 185.730469 112.589844 L 234.53125 112.589844 L 234.53125 112.605469 L 185.730469 112.605469 Z M 178.957031 112.605469 L 234.605469 112.605469 L 234.605469 112.621094 L 178.957031 112.621094 Z M 172.167969 112.621094 L 234.695312 112.621094 L 234.695312 112.632812 L 172.167969 112.632812 Z M 165.394531 112.632812 L 234.785156 112.632812 L 234.785156 112.648438 L 165.394531 112.648438 Z M 158.605469 112.648438 L 234.859375 112.648438 L 234.859375 112.664062 L 158.605469 112.664062 Z M 151.832031 112.664062 L 234.921875 112.664062 L 234.921875 112.679688 L 151.832031 112.679688 Z M 145.042969 112.679688 L 234.996094 112.679688 L 234.996094 112.695312 L 145.042969 112.695312 Z M 141.523438 112.695312 L 235.058594 112.695312 L 235.058594 112.710938 L 141.523438 112.710938 Z M 141.28125 112.710938 L 235.117188 112.710938 L 235.117188 112.726562 L 141.28125 112.726562 Z M 141.085938 112.726562 L 235.191406 112.726562 L 235.191406 112.738281 L 141.085938 112.738281 Z M 140.933594 112.738281 L 235.253906 112.738281 L 235.253906 112.753906 L 140.933594 112.753906 Z M 140.828125 112.753906 L 235.3125 112.753906 L 235.3125 112.769531 L 140.828125 112.769531 Z M 140.710938 112.769531 L 235.359375 112.769531 L 235.359375 112.785156 L 140.710938 112.785156 Z M 140.605469 112.785156 L 235.417969 112.785156 L 235.417969 112.800781 L 140.605469 112.800781 Z M 140.511719 112.800781 L 235.464844 112.800781 L 235.464844 112.816406 L 140.511719 112.816406 Z M 140.4375 112.816406 L 235.523438 112.816406 L 235.523438 112.828125 L 140.4375 112.828125 Z M 140.347656 112.828125 L 235.570312 112.828125 L 235.570312 112.84375 L 140.347656 112.84375 Z M 140.273438 112.84375 L 235.628906 112.84375 L 235.628906 112.859375 L 140.273438 112.859375 Z M 140.183594 112.859375 L 235.675781 112.859375 L 235.675781 112.875 L 140.183594 112.875 Z M 140.121094 112.875 L 235.71875 112.875 L 235.71875 112.890625 L 140.121094 112.890625 Z M 140.0625 112.890625 L 235.765625 112.890625 L 235.765625 112.90625 L 140.0625 112.90625 Z M 140.003906 112.90625 L 235.808594 112.90625 L 235.808594 112.921875 L 140.003906 112.921875 Z M 139.925781 112.921875 L 235.855469 112.921875 L 235.855469 112.933594 L 139.925781 112.933594 Z M 139.867188 112.933594 L 235.898438 112.933594 L 235.898438 112.949219 L 139.867188 112.949219 Z M 139.804688 112.949219 L 235.929688 112.949219 L 235.929688 112.964844 L 139.804688 112.964844 Z M 139.746094 112.964844 L 235.976562 112.964844 L 235.976562 112.980469 L 139.746094 112.980469 Z M 139.699219 112.980469 L 236.019531 112.980469 L 236.019531 112.996094 L 139.699219 112.996094 Z M 139.640625 112.996094 L 236.066406 112.996094 L 236.066406 113.007812 L 139.640625 113.007812 Z M 139.597656 113.007812 L 236.09375 113.007812 L 236.09375 113.023438 L 139.597656 113.023438 Z M 139.550781 113.023438 L 236.140625 113.023438 L 236.140625 113.039062 L 139.550781 113.039062 Z M 139.488281 113.039062 L 236.171875 113.039062 L 236.171875 113.054688 L 139.488281 113.054688 Z M 139.445312 113.054688 L 236.214844 113.054688 L 236.214844 113.070312 L 139.445312 113.070312 Z M 139.398438 113.070312 L 236.261719 113.070312 L 236.261719 113.085938 L 139.398438 113.085938 Z M 139.355469 113.085938 L 236.292969 113.085938 L 236.292969 113.101562 L 139.355469 113.101562 Z M 139.308594 113.101562 L 236.335938 113.101562 L 236.335938 113.113281 L 139.308594 113.113281 Z M 139.265625 113.113281 L 236.367188 113.113281 L 236.367188 113.128906 L 139.265625 113.128906 Z M 139.21875 113.128906 L 236.398438 113.128906 L 236.398438 113.144531 L 139.21875 113.144531 Z M 139.175781 113.144531 L 236.441406 113.144531 L 236.441406 113.160156 L 139.175781 113.160156 Z M 139.128906 113.160156 L 236.472656 113.160156 L 236.472656 113.175781 L 139.128906 113.175781 Z M 139.082031 113.175781 L 236.5 113.175781 L 236.5 113.191406 L 139.082031 113.191406 Z M 139.039062 113.191406 L 236.53125 113.191406 L 236.53125 113.203125 L 139.039062 113.203125 Z M 139.007812 113.203125 L 236.578125 113.203125 L 236.578125 113.21875 L 139.007812 113.21875 Z M 138.964844 113.21875 L 236.609375 113.21875 L 236.609375 113.234375 L 138.964844 113.234375 Z M 138.933594 113.234375 L 236.636719 113.234375 L 236.636719 113.25 L 138.933594 113.25 Z M 138.886719 113.25 L 236.667969 113.25 L 236.667969 113.265625 L 138.886719 113.265625 Z M 138.859375 113.265625 L 236.699219 113.265625 L 236.699219 113.28125 L 138.859375 113.28125 Z M 138.8125 113.28125 L 236.742188 113.28125 L 236.742188 113.296875 L 138.8125 113.296875 Z M 138.78125 113.296875 L 236.773438 113.296875 L 236.773438 113.308594 L 138.78125 113.308594 Z M 138.738281 113.308594 L 236.804688 113.308594 L 236.804688 113.324219 L 138.738281 113.324219 Z M 138.707031 113.324219 L 236.832031 113.324219 L 236.832031 113.339844 L 138.707031 113.339844 Z M 138.660156 113.339844 L 236.847656 113.339844 L 236.847656 113.355469 L 138.660156 113.355469 Z M 138.632812 113.355469 L 236.878906 113.355469 L 236.878906 113.371094 L 138.632812 113.371094 Z M 138.601562 113.371094 L 236.910156 113.371094 L 236.910156 113.382812 L 138.601562 113.382812 Z M 138.570312 113.382812 L 236.9375 113.382812 L 236.9375 113.398438 L 138.570312 113.398438 Z M 138.527344 113.398438 L 236.96875 113.398438 L 236.96875 113.414062 L 138.527344 113.414062 Z M 138.496094 113.414062 L 237 113.414062 L 237 113.429688 L 138.496094 113.429688 Z M 138.46875 113.429688 L 237.027344 113.429688 L 237.027344 113.445312 L 138.46875 113.445312 Z M 138.4375 113.445312 L 237.058594 113.445312 L 237.058594 113.460938 L 138.4375 113.460938 Z M 138.40625 113.460938 L 237.089844 113.460938 L 237.089844 113.476562 L 138.40625 113.476562 Z M 138.359375 113.476562 L 237.117188 113.476562 L 237.117188 113.488281 L 138.359375 113.488281 Z M 138.332031 113.488281 L 237.148438 113.488281 L 237.148438 113.503906 L 138.332031 113.503906 Z M 138.300781 113.503906 L 237.164062 113.503906 L 237.164062 113.519531 L 138.300781 113.519531 Z M 138.269531 113.519531 L 237.195312 113.519531 L 237.195312 113.535156 L 138.269531 113.535156 Z M 138.242188 113.535156 L 237.222656 113.535156 L 237.222656 113.550781 L 138.242188 113.550781 Z M 138.210938 113.550781 L 237.253906 113.550781 L 237.253906 113.566406 L 138.210938 113.566406 Z M 138.179688 113.566406 L 237.269531 113.566406 L 237.269531 113.578125 L 138.179688 113.578125 Z M 138.164062 113.578125 L 237.300781 113.578125 L 237.300781 113.59375 L 138.164062 113.59375 Z M 138.136719 113.59375 L 237.328125 113.59375 L 237.328125 113.609375 L 138.136719 113.609375 Z M 138.105469 113.609375 L 237.359375 113.609375 L 237.359375 113.625 L 138.105469 113.625 Z M 138.074219 113.625 L 237.375 113.625 L 237.375 113.640625 L 138.074219 113.640625 Z M 138.046875 113.640625 L 237.40625 113.640625 L 237.40625 113.65625 L 138.046875 113.65625 Z M 138.015625 113.65625 L 237.433594 113.65625 L 237.433594 113.671875 L 138.015625 113.671875 Z M 137.984375 113.671875 L 237.449219 113.671875 L 237.449219 113.683594 L 137.984375 113.683594 Z M 137.953125 113.683594 L 237.480469 113.683594 L 237.480469 113.699219 L 137.953125 113.699219 Z M 137.925781 113.699219 L 237.511719 113.699219 L 237.511719 113.714844 L 137.925781 113.714844 Z M 137.910156 113.714844 L 237.527344 113.714844 L 237.527344 113.730469 L 137.910156 113.730469 Z M 137.878906 113.730469 L 237.554688 113.730469 L 237.554688 113.746094 L 137.878906 113.746094 Z M 137.847656 113.746094 L 237.570312 113.746094 L 237.570312 113.757812 L 137.847656 113.757812 Z M 137.820312 113.757812 L 237.601562 113.757812 L 237.601562 113.773438 L 137.820312 113.773438 Z M 137.804688 113.773438 L 237.617188 113.773438 L 237.617188 113.789062 L 137.804688 113.789062 Z M 137.773438 113.789062 L 237.644531 113.789062 L 237.644531 113.804688 L 137.773438 113.804688 Z M 137.746094 113.804688 L 237.660156 113.804688 L 237.660156 113.820312 L 137.746094 113.820312 Z M 137.714844 113.820312 L 237.691406 113.820312 L 237.691406 113.835938 L 137.714844 113.835938 Z M 137.699219 113.835938 L 237.722656 113.835938 L 237.722656 113.851562 L 137.699219 113.851562 Z M 137.667969 113.851562 L 237.738281 113.851562 L 237.738281 113.863281 L 137.667969 113.863281 Z M 137.640625 113.863281 L 237.765625 113.863281 L 237.765625 113.878906 L 137.640625 113.878906 Z M 137.625 113.878906 L 237.78125 113.878906 L 237.78125 113.894531 L 137.625 113.894531 Z M 137.59375 113.894531 L 237.8125 113.894531 L 237.8125 113.910156 L 137.59375 113.910156 Z M 137.578125 113.910156 L 237.828125 113.910156 L 237.828125 113.925781 L 137.578125 113.925781 Z M 137.546875 113.925781 L 237.839844 113.925781 L 237.839844 113.941406 L 137.546875 113.941406 Z M 137.519531 113.941406 L 237.871094 113.941406 L 237.871094 113.953125 L 137.519531 113.953125 Z M 137.503906 113.953125 L 237.886719 113.953125 L 237.886719 113.96875 L 137.503906 113.96875 Z M 137.472656 113.96875 L 237.917969 113.96875 L 237.917969 113.984375 L 137.472656 113.984375 Z M 137.457031 113.984375 L 237.933594 113.984375 L 237.933594 114 L 137.457031 114 Z M 137.429688 114 L 237.945312 114 L 237.945312 114.015625 L 137.429688 114.015625 Z M 137.414062 114.015625 L 237.976562 114.015625 L 237.976562 114.03125 L 137.414062 114.03125 Z M 137.382812 114.03125 L 237.992188 114.03125 L 237.992188 114.046875 L 137.382812 114.046875 Z M 137.367188 114.046875 L 238.023438 114.046875 L 238.023438 114.058594 L 137.367188 114.058594 Z M 137.339844 114.058594 L 238.039062 114.058594 L 238.039062 114.074219 L 137.339844 114.074219 Z M 137.308594 114.074219 L 238.066406 114.074219 L 238.066406 114.089844 L 137.308594 114.089844 Z M 137.292969 114.089844 L 238.082031 114.089844 L 238.082031 114.105469 L 137.292969 114.105469 Z M 137.277344 114.105469 L 238.097656 114.105469 L 238.097656 114.121094 L 137.277344 114.121094 Z M 137.246094 114.121094 L 238.128906 114.121094 L 238.128906 114.132812 L 137.246094 114.132812 Z M 137.230469 114.132812 L 238.144531 114.132812 L 238.144531 114.148438 L 137.230469 114.148438 Z M 137.203125 114.148438 L 238.15625 114.148438 L 238.15625 114.164062 L 137.203125 114.164062 Z M 137.1875 114.164062 L 238.171875 114.164062 L 238.171875 114.179688 L 137.1875 114.179688 Z M 137.171875 114.179688 L 238.203125 114.179688 L 238.203125 114.195312 L 137.171875 114.195312 Z M 137.140625 114.195312 L 238.21875 114.195312 L 238.21875 114.210938 L 137.140625 114.210938 Z M 137.125 114.210938 L 238.234375 114.210938 L 238.234375 114.226562 L 137.125 114.226562 Z M 137.097656 114.226562 L 238.246094 114.226562 L 238.246094 114.238281 L 137.097656 114.238281 Z M 137.082031 114.238281 L 238.277344 114.238281 L 238.277344 114.253906 L 137.082031 114.253906 Z M 137.066406 114.253906 L 238.292969 114.253906 L 238.292969 114.269531 L 137.066406 114.269531 Z M 137.035156 114.269531 L 238.308594 114.269531 L 238.308594 114.285156 L 137.035156 114.285156 Z M 137.023438 114.285156 L 238.339844 114.285156 L 238.339844 114.300781 L 137.023438 114.300781 Z M 136.992188 114.300781 L 238.351562 114.300781 L 238.351562 114.316406 L 136.992188 114.316406 Z M 136.976562 114.316406 L 238.367188 114.316406 L 238.367188 114.328125 L 136.976562 114.328125 Z M 136.960938 114.328125 L 238.382812 114.328125 L 238.382812 114.34375 L 136.960938 114.34375 Z M 136.929688 114.34375 L 238.414062 114.34375 L 238.414062 114.359375 L 136.929688 114.359375 Z M 136.917969 114.359375 L 238.429688 114.359375 L 238.429688 114.375 L 136.917969 114.375 Z M 136.902344 114.375 L 238.445312 114.375 L 238.445312 114.390625 L 136.902344 114.390625 Z M 136.886719 114.390625 L 238.457031 114.390625 L 238.457031 114.40625 L 136.886719 114.40625 Z M 136.855469 114.40625 L 238.472656 114.40625 L 238.472656 114.421875 L 136.855469 114.421875 Z M 136.839844 114.421875 L 238.488281 114.421875 L 238.488281 114.433594 L 136.839844 114.433594 Z M 136.824219 114.433594 L 238.519531 114.433594 L 238.519531 114.449219 L 136.824219 114.449219 Z M 136.8125 114.449219 L 238.535156 114.449219 L 238.535156 114.464844 L 136.8125 114.464844 Z M 136.78125 114.464844 L 238.550781 114.464844 L 238.550781 114.480469 L 136.78125 114.480469 Z M 136.765625 114.480469 L 238.5625 114.480469 L 238.5625 114.496094 L 136.765625 114.496094 Z M 136.75 114.496094 L 238.578125 114.496094 L 238.578125 114.507812 L 136.75 114.507812 Z M 136.734375 114.507812 L 238.59375 114.507812 L 238.59375 114.523438 L 136.734375 114.523438 Z M 136.707031 114.523438 L 238.625 114.523438 L 238.625 114.539062 L 136.707031 114.539062 Z M 136.691406 114.539062 L 238.640625 114.539062 L 238.640625 114.554688 L 136.691406 114.554688 Z M 136.675781 114.554688 L 238.65625 114.554688 L 238.65625 114.570312 L 136.675781 114.570312 Z M 136.660156 114.570312 L 238.667969 114.570312 L 238.667969 114.585938 L 136.660156 114.585938 Z M 136.628906 114.585938 L 238.683594 114.585938 L 238.683594 114.601562 L 136.628906 114.601562 Z M 136.617188 114.601562 L 238.699219 114.601562 L 238.699219 114.613281 L 136.617188 114.613281 Z M 136.601562 114.613281 L 238.714844 114.613281 L 238.714844 114.628906 L 136.601562 114.628906 Z M 136.585938 114.628906 L 238.730469 114.628906 L 238.730469 114.644531 L 136.585938 114.644531 Z M 136.570312 114.644531 L 238.746094 114.644531 L 238.746094 114.660156 L 136.570312 114.660156 Z M 136.554688 114.660156 L 238.757812 114.660156 L 238.757812 114.675781 L 136.554688 114.675781 Z M 136.523438 114.675781 L 238.789062 114.675781 L 238.789062 114.691406 L 136.523438 114.691406 Z M 136.511719 114.691406 L 238.804688 114.691406 L 238.804688 114.703125 L 136.511719 114.703125 Z M 136.496094 114.703125 L 238.820312 114.703125 L 238.820312 114.71875 L 136.496094 114.71875 Z M 136.480469 114.71875 L 238.835938 114.71875 L 238.835938 114.734375 L 136.480469 114.734375 Z M 136.464844 114.734375 L 238.851562 114.734375 L 238.851562 114.75 L 136.464844 114.75 Z M 136.449219 114.75 L 238.867188 114.75 L 238.867188 114.765625 L 136.449219 114.765625 Z M 136.433594 114.765625 L 238.878906 114.765625 L 238.878906 114.78125 L 136.433594 114.78125 Z M 136.402344 114.78125 L 238.894531 114.78125 L 238.894531 114.796875 L 136.402344 114.796875 Z M 136.390625 114.796875 L 238.910156 114.796875 L 238.910156 114.808594 L 136.390625 114.808594 Z M 136.375 114.808594 L 238.925781 114.808594 L 238.925781 114.824219 L 136.375 114.824219 Z M 136.359375 114.824219 L 238.941406 114.824219 L 238.941406 114.839844 L 136.359375 114.839844 Z M 136.34375 114.839844 L 238.957031 114.839844 L 238.957031 114.855469 L 136.34375 114.855469 Z M 136.328125 114.855469 L 238.96875 114.855469 L 238.96875 114.871094 L 136.328125 114.871094 Z M 136.3125 114.871094 L 238.984375 114.871094 L 238.984375 114.882812 L 136.3125 114.882812 Z M 136.300781 114.882812 L 239 114.882812 L 239 114.898438 L 136.300781 114.898438 Z M 136.285156 114.898438 L 239.015625 114.898438 L 239.015625 114.914062 L 136.285156 114.914062 Z M 136.269531 114.914062 L 239.03125 114.914062 L 239.03125 114.929688 L 136.269531 114.929688 Z M 136.253906 114.929688 L 239.046875 114.929688 L 239.046875 114.945312 L 136.253906 114.945312 Z M 136.238281 114.945312 L 239.0625 114.945312 L 239.0625 114.960938 L 136.238281 114.960938 Z M 136.222656 114.960938 L 239.074219 114.960938 L 239.074219 114.976562 L 136.222656 114.976562 Z M 136.207031 114.976562 L 239.089844 114.976562 L 239.089844 114.988281 L 136.207031 114.988281 Z M 136.195312 114.988281 L 239.105469 114.988281 L 239.105469 115.003906 L 136.195312 115.003906 Z M 136.179688 115.003906 L 239.121094 115.003906 L 239.121094 115.019531 L 136.179688 115.019531 Z M 136.148438 115.019531 L 239.136719 115.019531 L 239.136719 115.035156 L 136.148438 115.035156 Z M 136.132812 115.035156 L 239.152344 115.035156 L 239.152344 115.050781 L 136.132812 115.050781 Z M 136.117188 115.050781 L 239.167969 115.050781 L 239.167969 115.066406 L 136.117188 115.066406 Z M 136.101562 115.066406 L 239.179688 115.066406 L 239.179688 115.078125 L 136.101562 115.078125 Z M 136.089844 115.078125 L 239.195312 115.078125 L 239.195312 115.09375 L 136.089844 115.09375 Z M 136.074219 115.09375 L 239.210938 115.09375 L 239.210938 115.109375 L 136.074219 115.109375 Z M 136.058594 115.109375 L 239.226562 115.109375 L 239.226562 115.125 L 136.058594 115.125 Z M 136.042969 115.125 L 239.226562 115.125 L 239.226562 115.140625 L 136.042969 115.140625 Z M 136.027344 115.140625 L 239.242188 115.140625 L 239.242188 115.15625 L 136.027344 115.15625 Z M 136.027344 115.15625 L 239.257812 115.15625 L 239.257812 115.171875 L 136.027344 115.171875 Z M 136.011719 115.171875 L 239.273438 115.171875 L 239.273438 115.183594 L 136.011719 115.183594 Z M 135.996094 115.183594 L 239.285156 115.183594 L 239.285156 115.199219 L 135.996094 115.199219 Z M 135.984375 115.199219 L 239.300781 115.199219 L 239.300781 115.214844 L 135.984375 115.214844 Z M 135.96875 115.214844 L 239.316406 115.214844 L 239.316406 115.230469 L 135.96875 115.230469 Z M 135.953125 115.230469 L 239.332031 115.230469 L 239.332031 115.246094 L 135.953125 115.246094 Z M 135.9375 115.246094 L 239.347656 115.246094 L 239.347656 115.257812 L 135.9375 115.257812 Z M 135.921875 115.257812 L 239.347656 115.257812 L 239.347656 115.273438 L 135.921875 115.273438 Z M 135.90625 115.273438 L 239.363281 115.273438 L 239.363281 115.289062 L 135.90625 115.289062 Z M 135.894531 115.289062 L 239.378906 115.289062 L 239.378906 115.304688 L 135.894531 115.304688 Z M 135.878906 115.304688 L 239.390625 115.304688 L 239.390625 115.320312 L 135.878906 115.320312 Z M 135.863281 115.320312 L 239.40625 115.320312 L 239.40625 115.335938 L 135.863281 115.335938 Z M 135.847656 115.335938 L 239.421875 115.335938 L 239.421875 115.351562 L 135.847656 115.351562 Z M 135.832031 115.351562 L 239.4375 115.351562 L 239.4375 115.363281 L 135.832031 115.363281 Z M 135.816406 115.363281 L 239.453125 115.363281 L 239.453125 115.378906 L 135.816406 115.378906 Z M 135.800781 115.378906 L 239.453125 115.378906 L 239.453125 115.394531 L 135.800781 115.394531 Z M 135.789062 115.394531 L 239.46875 115.394531 L 239.46875 115.410156 L 135.789062 115.410156 Z M 135.789062 115.410156 L 239.480469 115.410156 L 239.480469 115.425781 L 135.789062 115.425781 Z M 135.773438 115.425781 L 239.496094 115.425781 L 239.496094 115.441406 L 135.773438 115.441406 Z M 135.757812 115.441406 L 239.511719 115.441406 L 239.511719 115.453125 L 135.757812 115.453125 Z M 135.742188 115.453125 L 239.527344 115.453125 L 239.527344 115.46875 L 135.742188 115.46875 Z M 135.726562 115.46875 L 239.527344 115.46875 L 239.527344 115.484375 L 135.726562 115.484375 Z M 135.710938 115.484375 L 239.542969 115.484375 L 239.542969 115.5 L 135.710938 115.5 Z M 135.695312 115.5 L 239.558594 115.5 L 239.558594 115.515625 L 135.695312 115.515625 Z M 135.695312 115.515625 L 239.574219 115.515625 L 239.574219 115.53125 L 135.695312 115.53125 Z M 135.683594 115.53125 L 239.585938 115.53125 L 239.585938 115.546875 L 135.683594 115.546875 Z M 135.667969 115.546875 L 239.585938 115.546875 L 239.585938 115.558594 L 135.667969 115.558594 Z M 135.652344 115.558594 L 239.601562 115.558594 L 239.601562 115.574219 L 135.652344 115.574219 Z M 135.636719 115.574219 L 239.617188 115.574219 L 239.617188 115.589844 L 135.636719 115.589844 Z M 135.621094 115.589844 L 239.632812 115.589844 L 239.632812 115.605469 L 135.621094 115.605469 Z M 135.605469 115.605469 L 239.648438 115.605469 L 239.648438 115.632812 L 135.605469 115.632812 Z M 135.589844 115.632812 L 239.664062 115.632812 L 239.664062 115.648438 L 135.589844 115.648438 Z M 135.578125 115.648438 L 239.679688 115.648438 L 239.679688 115.664062 L 135.578125 115.664062 Z M 135.5625 115.664062 L 239.691406 115.664062 L 239.691406 115.679688 L 135.5625 115.679688 Z M 135.546875 115.679688 L 239.707031 115.679688 L 239.707031 115.695312 L 135.546875 115.695312 Z M 135.53125 115.695312 L 239.707031 115.695312 L 239.707031 115.710938 L 135.53125 115.710938 Z M 135.53125 115.710938 L 239.722656 115.710938 L 239.722656 115.726562 L 135.53125 115.726562 Z M 135.515625 115.726562 L 239.738281 115.726562 L 239.738281 115.738281 L 135.515625 115.738281 Z M 135.5 115.738281 L 239.753906 115.738281 L 239.753906 115.753906 L 135.5 115.753906 Z M 135.488281 115.753906 L 239.753906 115.753906 L 239.753906 115.769531 L 135.488281 115.769531 Z M 135.472656 115.769531 L 239.769531 115.769531 L 239.769531 115.785156 L 135.472656 115.785156 Z M 135.472656 115.785156 L 239.785156 115.785156 L 239.785156 115.800781 L 135.472656 115.800781 Z M 135.457031 115.800781 L 239.796875 115.800781 L 239.796875 115.816406 L 135.457031 115.816406 Z M 135.441406 115.816406 L 239.796875 115.816406 L 239.796875 115.828125 L 135.441406 115.828125 Z M 135.425781 115.828125 L 239.8125 115.828125 L 239.8125 115.84375 L 135.425781 115.84375 Z M 135.425781 115.84375 L 239.828125 115.84375 L 239.828125 115.859375 L 135.425781 115.859375 Z M 135.410156 115.859375 L 239.828125 115.859375 L 239.828125 115.875 L 135.410156 115.875 Z M 135.394531 115.875 L 239.84375 115.875 L 239.84375 115.890625 L 135.394531 115.890625 Z M 135.382812 115.890625 L 239.859375 115.890625 L 239.859375 115.90625 L 135.382812 115.90625 Z M 135.367188 115.90625 L 239.875 115.90625 L 239.875 115.933594 L 135.367188 115.933594 Z M 135.351562 115.933594 L 239.886719 115.933594 L 239.886719 115.949219 L 135.351562 115.949219 Z M 135.335938 115.949219 L 239.902344 115.949219 L 239.902344 115.964844 L 135.335938 115.964844 Z M 135.320312 115.964844 L 239.902344 115.964844 L 239.902344 115.980469 L 135.320312 115.980469 Z M 135.304688 115.980469 L 239.917969 115.980469 L 239.917969 115.996094 L 135.304688 115.996094 Z M 135.304688 115.996094 L 239.933594 115.996094 L 239.933594 116.007812 L 135.304688 116.007812 Z M 135.289062 116.007812 L 239.949219 116.007812 L 239.949219 116.023438 L 135.289062 116.023438 Z M 135.273438 116.023438 L 239.949219 116.023438 L 239.949219 116.039062 L 135.273438 116.039062 Z M 135.273438 116.039062 L 239.964844 116.039062 L 239.964844 116.054688 L 135.273438 116.054688 Z M 135.261719 116.054688 L 239.980469 116.054688 L 239.980469 116.070312 L 135.261719 116.070312 Z M 135.246094 116.070312 L 239.980469 116.070312 L 239.980469 116.085938 L 135.246094 116.085938 Z M 135.246094 116.085938 L 239.996094 116.085938 L 239.996094 116.101562 L 135.246094 116.101562 Z M 135.230469 116.101562 L 240.007812 116.101562 L 240.007812 116.113281 L 135.230469 116.113281 Z M 135.214844 116.113281 L 240.007812 116.113281 L 240.007812 116.128906 L 135.214844 116.128906 Z M 135.199219 116.128906 L 240.023438 116.128906 L 240.023438 116.144531 L 135.199219 116.144531 Z M 135.199219 116.144531 L 240.039062 116.144531 L 240.039062 116.160156 L 135.199219 116.160156 Z M 135.183594 116.160156 L 240.039062 116.160156 L 240.039062 116.175781 L 135.183594 116.175781 Z M 135.171875 116.175781 L 240.054688 116.175781 L 240.054688 116.191406 L 135.171875 116.191406 Z M 135.171875 116.191406 L 240.070312 116.191406 L 240.070312 116.203125 L 135.171875 116.203125 Z M 135.15625 116.203125 L 240.070312 116.203125 L 240.070312 116.21875 L 135.15625 116.21875 Z M 135.140625 116.21875 L 240.085938 116.21875 L 240.085938 116.234375 L 135.140625 116.234375 Z M 135.125 116.234375 L 240.097656 116.234375 L 240.097656 116.265625 L 135.125 116.265625 Z M 135.109375 116.265625 L 240.113281 116.265625 L 240.113281 116.28125 L 135.109375 116.28125 Z M 135.09375 116.28125 L 240.113281 116.28125 L 240.113281 116.296875 L 135.09375 116.296875 Z M 135.09375 116.296875 L 240.128906 116.296875 L 240.128906 116.308594 L 135.09375 116.308594 Z M 135.078125 116.308594 L 240.144531 116.308594 L 240.144531 116.324219 L 135.078125 116.324219 Z M 135.066406 116.324219 L 240.144531 116.324219 L 240.144531 116.339844 L 135.066406 116.339844 Z M 135.066406 116.339844 L 240.160156 116.339844 L 240.160156 116.355469 L 135.066406 116.355469 Z M 135.050781 116.355469 L 240.175781 116.355469 L 240.175781 116.371094 L 135.050781 116.371094 Z M 135.035156 116.371094 L 240.175781 116.371094 L 240.175781 116.382812 L 135.035156 116.382812 Z M 135.035156 116.382812 L 240.191406 116.382812 L 240.191406 116.398438 L 135.035156 116.398438 Z M 135.019531 116.398438 L 240.203125 116.398438 L 240.203125 116.414062 L 135.019531 116.414062 Z M 135.003906 116.414062 L 240.203125 116.414062 L 240.203125 116.429688 L 135.003906 116.429688 Z M 135.003906 116.429688 L 240.21875 116.429688 L 240.21875 116.445312 L 135.003906 116.445312 Z M 134.988281 116.445312 L 240.21875 116.445312 L 240.21875 116.460938 L 134.988281 116.460938 Z M 134.988281 116.460938 L 240.234375 116.460938 L 240.234375 116.476562 L 134.988281 116.476562 Z M 134.972656 116.476562 L 240.25 116.476562 L 240.25 116.488281 L 134.972656 116.488281 Z M 134.960938 116.488281 L 240.25 116.488281 L 240.25 116.503906 L 134.960938 116.503906 Z M 134.960938 116.503906 L 240.265625 116.503906 L 240.265625 116.519531 L 134.960938 116.519531 Z M 134.945312 116.519531 L 240.265625 116.519531 L 240.265625 116.535156 L 134.945312 116.535156 Z M 134.929688 116.535156 L 240.28125 116.535156 L 240.28125 116.566406 L 134.929688 116.566406 Z M 134.914062 116.566406 L 240.296875 116.566406 L 240.296875 116.578125 L 134.914062 116.578125 Z M 134.898438 116.578125 L 240.308594 116.578125 L 240.308594 116.609375 L 134.898438 116.609375 Z M 134.882812 116.609375 L 240.324219 116.609375 L 240.324219 116.640625 L 134.882812 116.640625 Z M 134.867188 116.640625 L 240.339844 116.640625 L 240.339844 116.65625 L 134.867188 116.65625 Z M 134.855469 116.65625 L 240.339844 116.65625 L 240.339844 116.671875 L 134.855469 116.671875 Z M 134.855469 116.671875 L 240.355469 116.671875 L 240.355469 116.683594 L 134.855469 116.683594 Z M 134.839844 116.683594 L 240.371094 116.683594 L 240.371094 116.714844 L 134.839844 116.714844 Z M 134.824219 116.714844 L 240.386719 116.714844 L 240.386719 116.746094 L 134.824219 116.746094 Z M 134.808594 116.746094 L 240.402344 116.746094 L 240.402344 116.757812 L 134.808594 116.757812 Z M 134.792969 116.757812 L 240.402344 116.757812 L 240.402344 116.773438 L 134.792969 116.773438 Z M 134.792969 116.773438 L 240.414062 116.773438 L 240.414062 116.789062 L 134.792969 116.789062 Z M 134.777344 116.789062 L 240.414062 116.789062 L 240.414062 116.804688 L 134.777344 116.804688 Z M 134.777344 116.804688 L 240.429688 116.804688 L 240.429688 116.820312 L 134.777344 116.820312 Z M 134.765625 116.820312 L 240.445312 116.820312 L 240.445312 116.835938 L 134.765625 116.835938 Z M 134.75 116.835938 L 240.445312 116.835938 L 240.445312 116.851562 L 134.75 116.851562 Z M 134.75 116.851562 L 240.460938 116.851562 L 240.460938 116.863281 L 134.75 116.863281 Z M 134.734375 116.863281 L 240.460938 116.863281 L 240.460938 116.878906 L 134.734375 116.878906 Z M 134.734375 116.878906 L 240.476562 116.878906 L 240.476562 116.894531 L 134.734375 116.894531 Z M 134.71875 116.894531 L 240.476562 116.894531 L 240.476562 116.910156 L 134.71875 116.910156 Z M 134.71875 116.910156 L 240.492188 116.910156 L 240.492188 116.925781 L 134.71875 116.925781 Z M 134.703125 116.925781 L 240.492188 116.925781 L 240.492188 116.941406 L 134.703125 116.941406 Z M 134.6875 116.941406 L 240.507812 116.941406 L 240.507812 116.96875 L 134.6875 116.96875 Z M 134.671875 116.96875 L 240.519531 116.96875 L 240.519531 117 L 134.671875 117 Z M 134.660156 117 L 240.535156 117 L 240.535156 117.03125 L 134.660156 117.03125 Z M 134.644531 117.03125 L 240.550781 117.03125 L 240.550781 117.058594 L 134.644531 117.058594 Z M 134.628906 117.058594 L 240.566406 117.058594 L 240.566406 117.089844 L 134.628906 117.089844 Z M 134.613281 117.089844 L 240.582031 117.089844 L 240.582031 117.121094 L 134.613281 117.121094 Z M 134.597656 117.121094 L 240.597656 117.121094 L 240.597656 117.148438 L 134.597656 117.148438 Z M 134.582031 117.148438 L 240.609375 117.148438 L 240.609375 117.179688 L 134.582031 117.179688 Z M 134.566406 117.179688 L 240.625 117.179688 L 240.625 117.210938 L 134.566406 117.210938 Z M 134.554688 117.210938 L 240.625 117.210938 L 240.625 117.226562 L 134.554688 117.226562 Z M 134.554688 117.226562 L 240.640625 117.226562 L 240.640625 117.238281 L 134.554688 117.238281 Z M 134.539062 117.238281 L 240.640625 117.238281 L 240.640625 117.253906 L 134.539062 117.253906 Z M 134.539062 117.253906 L 240.65625 117.253906 L 240.65625 117.269531 L 134.539062 117.269531 Z M 134.523438 117.269531 L 240.65625 117.269531 L 240.65625 117.285156 L 134.523438 117.285156 Z M 134.523438 117.285156 L 240.671875 117.285156 L 240.671875 117.300781 L 134.523438 117.300781 Z M 134.507812 117.300781 L 240.671875 117.300781 L 240.671875 117.316406 L 134.507812 117.316406 Z M 134.507812 117.316406 L 240.6875 117.316406 L 240.6875 117.328125 L 134.507812 117.328125 Z M 134.492188 117.328125 L 240.6875 117.328125 L 240.6875 117.34375 L 134.492188 117.34375 Z M 134.492188 117.34375 L 240.703125 117.34375 L 240.703125 117.359375 L 134.492188 117.359375 Z M 134.476562 117.359375 L 240.703125 117.359375 L 240.703125 117.390625 L 134.476562 117.390625 Z M 134.460938 117.390625 L 240.714844 117.390625 L 240.714844 117.421875 L 134.460938 117.421875 Z M 134.449219 117.421875 L 240.730469 117.421875 L 240.730469 117.449219 L 134.449219 117.449219 Z M 134.449219 117.449219 L 240.746094 117.449219 L 240.746094 117.464844 L 134.449219 117.464844 Z M 134.433594 117.464844 L 240.746094 117.464844 L 240.746094 117.480469 L 134.433594 117.480469 Z M 134.433594 117.480469 L 240.761719 117.480469 L 240.761719 117.496094 L 134.433594 117.496094 Z M 134.417969 117.496094 L 240.761719 117.496094 L 240.761719 117.523438 L 134.417969 117.523438 Z M 134.402344 117.523438 L 240.777344 117.523438 L 240.777344 117.554688 L 134.402344 117.554688 Z M 134.386719 117.554688 L 240.792969 117.554688 L 240.792969 117.585938 L 134.386719 117.585938 Z M 134.371094 117.585938 L 240.792969 117.585938 L 240.792969 117.601562 L 134.371094 117.601562 Z M 134.371094 117.601562 L 240.808594 117.601562 L 240.808594 117.628906 L 134.371094 117.628906 Z M 134.359375 117.628906 L 240.808594 117.628906 L 240.808594 117.644531 L 134.359375 117.644531 Z M 134.359375 117.644531 L 240.820312 117.644531 L 240.820312 117.660156 L 134.359375 117.660156 Z M 134.34375 117.660156 L 240.820312 117.660156 L 240.820312 117.675781 L 134.34375 117.675781 Z M 134.34375 117.675781 L 240.835938 117.675781 L 240.835938 117.691406 L 134.34375 117.691406 Z M 134.328125 117.691406 L 240.835938 117.691406 L 240.835938 117.71875 L 134.328125 117.71875 Z M 134.328125 117.71875 L 240.851562 117.71875 L 240.851562 117.734375 L 134.328125 117.734375 Z M 134.3125 117.734375 L 240.851562 117.734375 L 240.851562 117.75 L 134.3125 117.75 Z M 134.3125 117.75 L 240.867188 117.75 L 240.867188 117.765625 L 134.3125 117.765625 Z M 134.296875 117.765625 L 240.867188 117.765625 L 240.867188 117.796875 L 134.296875 117.796875 Z M 134.296875 117.796875 L 240.882812 117.796875 L 240.882812 117.808594 L 134.296875 117.808594 Z M 134.28125 117.808594 L 240.882812 117.808594 L 240.882812 117.824219 L 134.28125 117.824219 Z M 134.28125 117.824219 L 240.898438 117.824219 L 240.898438 117.839844 L 134.28125 117.839844 Z M 134.265625 117.839844 L 240.898438 117.839844 L 240.898438 117.871094 L 134.265625 117.871094 Z M 134.265625 117.871094 L 240.914062 117.871094 L 240.914062 117.882812 L 134.265625 117.882812 Z M 134.253906 117.882812 L 240.914062 117.882812 L 240.914062 117.914062 L 134.253906 117.914062 Z M 134.238281 117.914062 L 240.925781 117.914062 L 240.925781 117.960938 L 134.238281 117.960938 Z M 134.222656 117.960938 L 240.941406 117.960938 L 240.941406 118.003906 L 134.222656 118.003906 Z M 134.207031 118.003906 L 240.957031 118.003906 L 240.957031 118.035156 L 134.207031 118.035156 Z M 134.191406 118.035156 L 240.957031 118.035156 L 240.957031 118.050781 L 134.191406 118.050781 Z M 134.191406 118.050781 L 240.972656 118.050781 L 240.972656 118.078125 L 134.191406 118.078125 Z M 134.175781 118.078125 L 240.972656 118.078125 L 240.972656 118.09375 L 134.175781 118.09375 Z M 134.175781 118.09375 L 240.988281 118.09375 L 240.988281 118.125 L 134.175781 118.125 Z M 134.160156 118.125 L 240.988281 118.125 L 240.988281 118.140625 L 134.160156 118.140625 Z M 134.160156 118.140625 L 241.003906 118.140625 L 241.003906 118.171875 L 134.160156 118.171875 Z M 134.144531 118.171875 L 241.015625 118.171875 L 241.015625 118.214844 L 134.144531 118.214844 Z M 134.132812 118.214844 L 241.015625 118.214844 L 241.015625 118.230469 L 134.132812 118.230469 Z M 134.132812 118.230469 L 241.03125 118.230469 L 241.03125 118.257812 L 134.132812 118.257812 Z M 134.117188 118.257812 L 241.03125 118.257812 L 241.03125 118.273438 L 134.117188 118.273438 Z M 134.117188 118.273438 L 241.046875 118.273438 L 241.046875 118.304688 L 134.117188 118.304688 Z M 134.101562 118.304688 L 241.046875 118.304688 L 241.046875 118.335938 L 134.101562 118.335938 Z M 134.101562 118.335938 L 241.0625 118.335938 L 241.0625 118.351562 L 134.101562 118.351562 Z M 134.085938 118.351562 L 241.0625 118.351562 L 241.0625 118.378906 L 134.085938 118.378906 Z M 134.085938 118.378906 L 241.078125 118.378906 L 241.078125 118.394531 L 134.085938 118.394531 Z M 134.070312 118.394531 L 241.078125 118.394531 L 241.078125 118.441406 L 134.070312 118.441406 Z M 134.054688 118.441406 L 241.09375 118.441406 L 241.09375 118.484375 L 134.054688 118.484375 Z M 134.042969 118.484375 L 241.109375 118.484375 L 241.109375 118.546875 L 134.042969 118.546875 Z M 134.027344 118.546875 L 241.125 118.546875 L 241.125 118.589844 L 134.027344 118.589844 Z M 134.011719 118.589844 L 241.136719 118.589844 L 241.136719 118.648438 L 134.011719 118.648438 Z M 133.996094 118.648438 L 241.136719 118.648438 L 241.136719 118.664062 L 133.996094 118.664062 Z M 133.996094 118.664062 L 241.152344 118.664062 L 241.152344 118.695312 L 133.996094 118.695312 Z M 133.980469 118.695312 L 241.152344 118.695312 L 241.152344 118.726562 L 133.980469 118.726562 Z M 133.980469 118.726562 L 241.167969 118.726562 L 241.167969 118.753906 L 133.980469 118.753906 Z M 133.964844 118.753906 L 241.167969 118.753906 L 241.167969 118.785156 L 133.964844 118.785156 Z M 133.964844 118.785156 L 241.183594 118.785156 L 241.183594 118.800781 L 133.964844 118.800781 Z M 133.949219 118.800781 L 241.183594 118.800781 L 241.183594 118.84375 L 133.949219 118.84375 Z M 133.949219 118.84375 L 241.199219 118.84375 L 241.199219 118.875 L 133.949219 118.875 Z M 133.9375 118.875 L 241.199219 118.875 L 241.199219 118.921875 L 133.9375 118.921875 Z M 133.9375 118.921875 L 241.214844 118.921875 L 241.214844 118.933594 L 133.9375 118.933594 Z M 133.921875 118.933594 L 241.214844 118.933594 L 241.214844 118.980469 L 133.921875 118.980469 Z M 133.921875 118.980469 L 241.226562 118.980469 L 241.226562 118.996094 L 133.921875 118.996094 Z M 133.90625 118.996094 L 241.226562 118.996094 L 241.226562 119.054688 L 133.90625 119.054688 Z M 133.90625 119.054688 L 241.242188 119.054688 L 241.242188 119.070312 L 133.90625 119.070312 Z M 133.890625 119.070312 L 241.242188 119.070312 L 241.242188 119.128906 L 133.890625 119.128906 Z M 133.875 119.128906 L 241.242188 119.128906 L 241.242188 119.144531 L 133.875 119.144531 Z M 133.875 119.144531 L 241.257812 119.144531 L 241.257812 119.191406 L 133.875 119.191406 Z M 133.859375 119.191406 L 241.257812 119.191406 L 241.257812 119.21875 L 133.859375 119.21875 Z M 133.859375 119.21875 L 241.273438 119.21875 L 241.273438 119.28125 L 133.859375 119.28125 Z M 133.84375 119.28125 L 241.273438 119.28125 L 241.273438 119.308594 L 133.84375 119.308594 Z M 133.84375 119.308594 L 241.289062 119.308594 L 241.289062 119.355469 L 133.84375 119.355469 Z M 133.832031 119.355469 L 241.289062 119.355469 L 241.289062 119.398438 L 133.832031 119.398438 Z M 133.832031 119.398438 L 241.304688 119.398438 L 241.304688 119.445312 L 133.832031 119.445312 Z M 133.816406 119.445312 L 241.304688 119.445312 L 241.304688 119.519531 L 133.816406 119.519531 Z M 133.816406 119.519531 L 241.320312 119.519531 L 241.320312 119.535156 L 133.816406 119.535156 Z M 133.800781 119.535156 L 241.320312 119.535156 L 241.320312 119.609375 L 133.800781 119.609375 Z M 133.785156 119.609375 L 241.320312 119.609375 L 241.320312 119.625 L 133.785156 119.625 Z M 133.785156 119.625 L 241.332031 119.625 L 241.332031 119.730469 L 133.785156 119.730469 Z M 133.769531 119.730469 L 241.332031 119.730469 L 241.332031 119.746094 L 133.769531 119.746094 Z M 133.769531 119.746094 L 241.347656 119.746094 L 241.347656 119.851562 L 133.769531 119.851562 Z M 133.753906 119.851562 L 241.347656 119.851562 L 241.347656 119.925781 L 133.753906 119.925781 Z M 133.753906 119.925781 L 241.363281 119.925781 L 241.363281 119.96875 L 133.753906 119.96875 Z M 133.738281 119.96875 L 241.363281 119.96875 L 241.363281 120.105469 L 133.738281 120.105469 Z M 133.738281 120.105469 L 241.378906 120.105469 L 241.378906 120.148438 L 133.738281 120.148438 Z M 133.726562 120.148438 L 241.378906 120.148438 L 241.378906 120.34375 L 133.726562 120.34375 Z M 133.710938 120.34375 L 241.378906 120.34375 L 241.378906 120.433594 L 133.710938 120.433594 Z M 133.710938 120.433594 L 241.394531 120.433594 L 241.394531 126.601562 L 133.710938 126.601562 Z M 133.710938 126.601562 L 241.410156 126.601562 L 241.410156 127.515625 L 133.710938 127.515625 Z M 133.726562 127.515625 L 241.410156 127.515625 L 241.410156 133.574219 L 133.726562 133.574219 Z M 133.726562 133.574219 L 241.425781 133.574219 L 241.425781 134.175781 L 133.726562 134.175781 Z M 133.738281 134.175781 L 241.425781 134.175781 L 241.425781 140.550781 L 133.738281 140.550781 Z M 133.738281 140.550781 L 241.4375 140.550781 L 241.4375 140.851562 L 133.738281 140.851562 Z M 133.753906 140.851562 L 241.4375 140.851562 L 241.4375 147.523438 L 133.753906 147.523438 Z M 133.769531 147.523438 L 241.453125 147.523438 L 241.453125 154.199219 L 133.769531 154.199219 Z M 133.785156 154.199219 L 241.453125 154.199219 L 241.453125 154.5 L 133.785156 154.5 Z M 133.785156 154.5 L 241.46875 154.5 L 241.46875 160.875 L 133.785156 160.875 Z M 133.800781 160.875 L 241.46875 160.875 L 241.46875 161.476562 L 133.800781 161.476562 Z M 133.800781 161.476562 L 241.484375 161.476562 L 241.484375 167.550781 L 133.800781 167.550781 Z M 133.816406 167.550781 L 241.484375 167.550781 L 241.484375 168.449219 L 133.816406 168.449219 Z M 133.816406 168.449219 L 241.5 168.449219 L 241.5 174.210938 L 133.816406 174.210938 Z M 133.832031 174.210938 L 241.5 174.210938 L 241.5 175.441406 L 133.832031 175.441406 Z M 133.832031 175.441406 L 241.515625 175.441406 L 241.515625 180.882812 L 133.832031 180.882812 Z M 133.84375 180.882812 L 241.515625 180.882812 L 241.515625 182.414062 L 133.84375 182.414062 Z M 133.84375 182.414062 L 241.53125 182.414062 L 241.53125 187.558594 L 133.84375 187.558594 Z M 133.859375 187.558594 L 241.53125 187.558594 L 241.53125 189.390625 L 133.859375 189.390625 Z M 133.859375 189.390625 L 241.542969 189.390625 L 241.542969 194.234375 L 133.859375 194.234375 Z M 133.875 194.234375 L 241.542969 194.234375 L 241.542969 196.363281 L 133.875 196.363281 Z M 133.875 196.363281 L 241.558594 196.363281 L 241.558594 200.910156 L 133.875 200.910156 Z M 133.890625 200.910156 L 241.558594 200.910156 L 241.558594 203.339844 L 133.890625 203.339844 Z M 133.890625 203.339844 L 241.574219 203.339844 L 241.574219 207.570312 L 133.890625 207.570312 Z M 133.90625 207.570312 L 241.574219 207.570312 L 241.574219 210.316406 L 133.90625 210.316406 Z M 133.90625 210.316406 L 241.589844 210.316406 L 241.589844 214.246094 L 133.90625 214.246094 Z M 133.921875 214.246094 L 241.589844 214.246094 L 241.589844 217.289062 L 133.921875 217.289062 Z M 133.921875 217.289062 L 241.605469 217.289062 L 241.605469 220.921875 L 133.921875 220.921875 Z M 133.9375 220.921875 L 241.605469 220.921875 L 241.605469 224.265625 L 133.9375 224.265625 Z M 133.9375 224.265625 L 241.621094 224.265625 L 241.621094 227.59375 L 133.9375 227.59375 Z M 133.949219 227.59375 L 241.621094 227.59375 L 241.621094 231.238281 L 133.949219 231.238281 Z M 133.949219 231.238281 L 241.636719 231.238281 L 241.636719 234.269531 L 133.949219 234.269531 Z M 133.964844 234.269531 L 241.636719 234.269531 L 241.636719 238.214844 L 133.964844 238.214844 Z M 133.964844 238.214844 L 241.648438 238.214844 L 241.648438 240.945312 L 133.964844 240.945312 Z M 133.980469 240.945312 L 241.648438 240.945312 L 241.648438 245.203125 L 133.980469 245.203125 Z M 133.980469 245.203125 L 241.664062 245.203125 L 241.664062 247.605469 L 133.980469 247.605469 Z M 133.996094 247.605469 L 241.664062 247.605469 L 241.664062 254.28125 L 133.996094 254.28125 Z M 134.011719 254.28125 L 241.664062 254.28125 L 241.664062 254.699219 L 134.011719 254.699219 Z M 134.011719 254.699219 L 241.648438 254.699219 L 241.648438 254.851562 L 134.011719 254.851562 Z M 134.027344 254.851562 L 241.648438 254.851562 L 241.648438 254.894531 L 134.027344 254.894531 Z M 134.027344 254.894531 L 241.636719 254.894531 L 241.636719 255.046875 L 134.027344 255.046875 Z M 134.042969 255.046875 L 241.636719 255.046875 L 241.636719 255.058594 L 134.042969 255.058594 Z M 134.042969 255.058594 L 241.621094 255.058594 L 241.621094 255.179688 L 134.042969 255.179688 Z M 134.042969 255.179688 L 241.605469 255.179688 L 241.605469 255.226562 L 134.042969 255.226562 Z M 134.054688 255.226562 L 241.605469 255.226562 L 241.605469 255.300781 L 134.054688 255.300781 Z M 134.054688 255.300781 L 241.589844 255.300781 L 241.589844 255.34375 L 134.054688 255.34375 Z M 134.070312 255.34375 L 241.589844 255.34375 L 241.589844 255.40625 L 134.070312 255.40625 Z M 134.070312 255.40625 L 241.574219 255.40625 L 241.574219 255.464844 L 134.070312 255.464844 Z M 134.085938 255.464844 L 241.574219 255.464844 L 241.574219 255.496094 L 134.085938 255.496094 Z M 134.085938 255.496094 L 241.558594 255.496094 L 241.558594 255.570312 L 134.085938 255.570312 Z M 134.101562 255.570312 L 241.542969 255.570312 L 241.542969 255.660156 L 134.101562 255.660156 Z M 134.101562 255.660156 L 241.53125 255.660156 L 241.53125 255.675781 L 134.101562 255.675781 Z M 134.117188 255.675781 L 241.53125 255.675781 L 241.53125 255.75 L 134.117188 255.75 Z M 134.132812 255.75 L 241.515625 255.75 L 241.515625 255.824219 L 134.132812 255.824219 Z M 134.132812 255.824219 L 241.5 255.824219 L 241.5 255.839844 L 134.132812 255.839844 Z M 134.144531 255.839844 L 241.5 255.839844 L 241.5 255.882812 L 134.144531 255.882812 Z M 134.144531 255.882812 L 241.484375 255.882812 L 241.484375 255.914062 L 134.144531 255.914062 Z M 134.160156 255.914062 L 241.484375 255.914062 L 241.484375 255.945312 L 134.160156 255.945312 Z M 134.160156 255.945312 L 241.46875 255.945312 L 241.46875 256.003906 L 134.160156 256.003906 Z M 134.175781 256.003906 L 241.46875 256.003906 L 241.46875 256.019531 L 134.175781 256.019531 Z M 134.175781 256.019531 L 241.453125 256.019531 L 241.453125 256.066406 L 134.175781 256.066406 Z M 134.191406 256.066406 L 241.453125 256.066406 L 241.453125 256.078125 L 134.191406 256.078125 Z M 134.191406 256.078125 L 241.4375 256.078125 L 241.4375 256.140625 L 134.191406 256.140625 Z M 134.207031 256.140625 L 241.425781 256.140625 L 241.425781 256.199219 L 134.207031 256.199219 Z M 134.222656 256.199219 L 241.410156 256.199219 L 241.410156 256.257812 L 134.222656 256.257812 Z M 134.238281 256.257812 L 241.394531 256.257812 L 241.394531 256.304688 L 134.238281 256.304688 Z M 134.238281 256.304688 L 241.378906 256.304688 L 241.378906 256.320312 L 134.238281 256.320312 Z M 134.253906 256.320312 L 241.378906 256.320312 L 241.378906 256.363281 L 134.253906 256.363281 Z M 134.253906 256.363281 L 241.363281 256.363281 L 241.363281 256.394531 L 134.253906 256.394531 Z M 134.265625 256.394531 L 241.363281 256.394531 L 241.363281 256.425781 L 134.265625 256.425781 Z M 134.265625 256.425781 L 241.347656 256.425781 L 241.347656 256.453125 L 134.265625 256.453125 Z M 134.28125 256.453125 L 241.347656 256.453125 L 241.347656 256.46875 L 134.28125 256.46875 Z M 134.28125 256.46875 L 241.332031 256.46875 L 241.332031 256.5 L 134.28125 256.5 Z M 134.296875 256.5 L 241.332031 256.5 L 241.332031 256.53125 L 134.296875 256.53125 Z M 134.296875 256.53125 L 241.320312 256.53125 L 241.320312 256.558594 L 134.296875 256.558594 Z M 134.3125 256.558594 L 241.320312 256.558594 L 241.320312 256.574219 L 134.3125 256.574219 Z M 134.3125 256.574219 L 241.304688 256.574219 L 241.304688 256.605469 L 134.3125 256.605469 Z M 134.328125 256.605469 L 241.304688 256.605469 L 241.304688 256.621094 L 134.328125 256.621094 Z M 134.328125 256.621094 L 241.289062 256.621094 L 241.289062 256.648438 L 134.328125 256.648438 Z M 134.34375 256.648438 L 241.289062 256.648438 L 241.289062 256.664062 L 134.34375 256.664062 Z M 134.34375 256.664062 L 241.273438 256.664062 L 241.273438 256.710938 L 134.34375 256.710938 Z M 134.359375 256.710938 L 241.257812 256.710938 L 241.257812 256.753906 L 134.359375 256.753906 Z M 134.371094 256.753906 L 241.242188 256.753906 L 241.242188 256.800781 L 134.371094 256.800781 Z M 134.371094 256.800781 L 241.226562 256.800781 L 241.226562 256.816406 L 134.371094 256.816406 Z M 134.386719 256.816406 L 241.226562 256.816406 L 241.226562 256.84375 L 134.386719 256.84375 Z M 134.386719 256.84375 L 241.214844 256.84375 L 241.214844 256.859375 L 134.386719 256.859375 Z M 134.402344 256.859375 L 241.214844 256.859375 L 241.214844 256.890625 L 134.402344 256.890625 Z M 134.402344 256.890625 L 241.199219 256.890625 L 241.199219 256.90625 L 134.402344 256.90625 Z M 134.417969 256.90625 L 241.199219 256.90625 L 241.199219 256.933594 L 134.417969 256.933594 Z M 134.417969 256.933594 L 241.183594 256.933594 L 241.183594 256.949219 L 134.417969 256.949219 Z M 134.433594 256.949219 L 241.183594 256.949219 L 241.183594 256.964844 L 134.433594 256.964844 Z M 134.433594 256.964844 L 241.167969 256.964844 L 241.167969 256.980469 L 134.433594 256.980469 Z M 134.449219 256.980469 L 241.167969 256.980469 L 241.167969 257.007812 L 134.449219 257.007812 Z M 134.449219 257.007812 L 241.152344 257.007812 L 241.152344 257.023438 L 134.449219 257.023438 Z M 134.460938 257.023438 L 241.152344 257.023438 L 241.152344 257.054688 L 134.460938 257.054688 Z M 134.460938 257.054688 L 241.136719 257.054688 L 241.136719 257.070312 L 134.460938 257.070312 Z M 134.476562 257.070312 L 241.136719 257.070312 L 241.136719 257.085938 L 134.476562 257.085938 Z M 134.476562 257.085938 L 241.125 257.085938 L 241.125 257.113281 L 134.476562 257.113281 Z M 134.492188 257.113281 L 241.125 257.113281 L 241.125 257.128906 L 134.492188 257.128906 Z M 134.492188 257.128906 L 241.109375 257.128906 L 241.109375 257.160156 L 134.492188 257.160156 Z M 134.507812 257.160156 L 241.09375 257.160156 L 241.09375 257.203125 L 134.507812 257.203125 Z M 134.523438 257.203125 L 241.078125 257.203125 L 241.078125 257.234375 L 134.523438 257.234375 Z M 134.539062 257.234375 L 241.0625 257.234375 L 241.0625 257.28125 L 134.539062 257.28125 Z M 134.554688 257.28125 L 241.046875 257.28125 L 241.046875 257.308594 L 134.554688 257.308594 Z M 134.566406 257.308594 L 241.03125 257.308594 L 241.03125 257.355469 L 134.566406 257.355469 Z M 134.582031 257.355469 L 241.015625 257.355469 L 241.015625 257.382812 L 134.582031 257.382812 Z M 134.597656 257.382812 L 241.003906 257.382812 L 241.003906 257.414062 L 134.597656 257.414062 Z M 134.597656 257.414062 L 240.988281 257.414062 L 240.988281 257.429688 L 134.597656 257.429688 Z M 134.613281 257.429688 L 240.988281 257.429688 L 240.988281 257.445312 L 134.613281 257.445312 Z M 134.613281 257.445312 L 240.972656 257.445312 L 240.972656 257.460938 L 134.613281 257.460938 Z M 134.628906 257.460938 L 240.972656 257.460938 L 240.972656 257.476562 L 134.628906 257.476562 Z M 134.628906 257.476562 L 240.957031 257.476562 L 240.957031 257.503906 L 134.628906 257.503906 Z M 134.644531 257.503906 L 240.957031 257.503906 L 240.957031 257.519531 L 134.644531 257.519531 Z M 134.644531 257.519531 L 240.941406 257.519531 L 240.941406 257.535156 L 134.644531 257.535156 Z M 134.660156 257.535156 L 240.941406 257.535156 L 240.941406 257.550781 L 134.660156 257.550781 Z M 134.660156 257.550781 L 240.925781 257.550781 L 240.925781 257.578125 L 134.660156 257.578125 Z M 134.671875 257.578125 L 240.914062 257.578125 L 240.914062 257.609375 L 134.671875 257.609375 Z M 134.6875 257.609375 L 240.898438 257.609375 L 240.898438 257.640625 L 134.6875 257.640625 Z M 134.703125 257.640625 L 240.898438 257.640625 L 240.898438 257.65625 L 134.703125 257.65625 Z M 134.703125 257.65625 L 240.882812 257.65625 L 240.882812 257.671875 L 134.703125 257.671875 Z M 134.71875 257.671875 L 240.882812 257.671875 L 240.882812 257.683594 L 134.71875 257.683594 Z M 134.71875 257.683594 L 240.867188 257.683594 L 240.867188 257.699219 L 134.71875 257.699219 Z M 134.734375 257.699219 L 240.867188 257.699219 L 240.867188 257.714844 L 134.734375 257.714844 Z M 134.734375 257.714844 L 240.851562 257.714844 L 240.851562 257.746094 L 134.734375 257.746094 Z M 134.75 257.746094 L 240.835938 257.746094 L 240.835938 257.773438 L 134.75 257.773438 Z M 134.765625 257.773438 L 240.820312 257.773438 L 240.820312 257.804688 L 134.765625 257.804688 Z M 134.777344 257.804688 L 240.808594 257.804688 L 240.808594 257.820312 L 134.777344 257.820312 Z M 134.777344 257.820312 L 240.792969 257.820312 L 240.792969 257.835938 L 134.777344 257.835938 Z M 134.792969 257.835938 L 240.792969 257.835938 L 240.792969 257.851562 L 134.792969 257.851562 Z M 134.792969 257.851562 L 240.777344 257.851562 L 240.777344 257.863281 L 134.792969 257.863281 Z M 134.808594 257.863281 L 240.777344 257.863281 L 240.777344 257.878906 L 134.808594 257.878906 Z M 134.808594 257.878906 L 240.761719 257.878906 L 240.761719 257.894531 L 134.808594 257.894531 Z M 134.824219 257.894531 L 240.761719 257.894531 L 240.761719 257.910156 L 134.824219 257.910156 Z M 134.824219 257.910156 L 240.746094 257.910156 L 240.746094 257.925781 L 134.824219 257.925781 Z M 134.839844 257.925781 L 240.746094 257.925781 L 240.746094 257.941406 L 134.839844 257.941406 Z M 134.839844 257.941406 L 240.730469 257.941406 L 240.730469 257.953125 L 134.839844 257.953125 Z M 134.855469 257.953125 L 240.730469 257.953125 L 240.730469 257.96875 L 134.855469 257.96875 Z M 134.855469 257.96875 L 240.714844 257.96875 L 240.714844 257.984375 L 134.855469 257.984375 Z M 134.867188 257.984375 L 240.714844 257.984375 L 240.714844 258 L 134.867188 258 Z M 134.867188 258 L 240.703125 258 L 240.703125 258.015625 L 134.867188 258.015625 Z M 134.882812 258.015625 L 240.703125 258.015625 L 240.703125 258.03125 L 134.882812 258.03125 Z M 134.882812 258.03125 L 240.6875 258.03125 L 240.6875 258.046875 L 134.882812 258.046875 Z M 134.898438 258.046875 L 240.6875 258.046875 L 240.6875 258.058594 L 134.898438 258.058594 Z M 134.898438 258.058594 L 240.671875 258.058594 L 240.671875 258.074219 L 134.898438 258.074219 Z M 134.914062 258.074219 L 240.671875 258.074219 L 240.671875 258.089844 L 134.914062 258.089844 Z M 134.914062 258.089844 L 240.65625 258.089844 L 240.65625 258.105469 L 134.914062 258.105469 Z M 134.929688 258.105469 L 240.640625 258.105469 L 240.640625 258.132812 L 134.929688 258.132812 Z M 134.945312 258.132812 L 240.625 258.132812 L 240.625 258.164062 L 134.945312 258.164062 Z M 134.960938 258.164062 L 240.609375 258.164062 L 240.609375 258.195312 L 134.960938 258.195312 Z M 134.972656 258.195312 L 240.597656 258.195312 L 240.597656 258.210938 L 134.972656 258.210938 Z M 134.972656 258.210938 L 240.582031 258.210938 L 240.582031 258.226562 L 134.972656 258.226562 Z M 134.988281 258.226562 L 240.582031 258.226562 L 240.582031 258.238281 L 134.988281 258.238281 Z M 134.988281 258.238281 L 240.566406 258.238281 L 240.566406 258.253906 L 134.988281 258.253906 Z M 135.003906 258.253906 L 240.566406 258.253906 L 240.566406 258.269531 L 135.003906 258.269531 Z M 135.019531 258.269531 L 240.550781 258.269531 L 240.550781 258.300781 L 135.019531 258.300781 Z M 135.035156 258.300781 L 240.535156 258.300781 L 240.535156 258.316406 L 135.035156 258.316406 Z M 135.035156 258.316406 L 240.519531 258.316406 L 240.519531 258.328125 L 135.035156 258.328125 Z M 135.050781 258.328125 L 240.519531 258.328125 L 240.519531 258.34375 L 135.050781 258.34375 Z M 135.050781 258.34375 L 240.507812 258.34375 L 240.507812 258.359375 L 135.050781 258.359375 Z M 135.066406 258.359375 L 240.507812 258.359375 L 240.507812 258.375 L 135.066406 258.375 Z M 135.078125 258.375 L 240.492188 258.375 L 240.492188 258.390625 L 135.078125 258.390625 Z M 135.078125 258.390625 L 240.476562 258.390625 L 240.476562 258.40625 L 135.078125 258.40625 Z M 135.09375 258.40625 L 240.476562 258.40625 L 240.476562 258.421875 L 135.09375 258.421875 Z M 135.09375 258.421875 L 240.460938 258.421875 L 240.460938 258.433594 L 135.09375 258.433594 Z M 135.109375 258.433594 L 240.445312 258.433594 L 240.445312 258.464844 L 135.109375 258.464844 Z M 135.125 258.464844 L 240.429688 258.464844 L 240.429688 258.480469 L 135.125 258.480469 Z M 135.140625 258.480469 L 240.429688 258.480469 L 240.429688 258.496094 L 135.140625 258.496094 Z M 135.140625 258.496094 L 240.414062 258.496094 L 240.414062 258.507812 L 135.140625 258.507812 Z M 135.15625 258.507812 L 240.402344 258.507812 L 240.402344 258.539062 L 135.15625 258.539062 Z M 135.171875 258.539062 L 240.386719 258.539062 L 240.386719 258.554688 L 135.171875 258.554688 Z M 135.183594 258.554688 L 240.371094 258.554688 L 240.371094 258.585938 L 135.183594 258.585938 Z M 135.199219 258.585938 L 240.355469 258.585938 L 240.355469 258.601562 L 135.199219 258.601562 Z M 135.199219 258.601562 L 240.339844 258.601562 L 240.339844 258.613281 L 135.199219 258.613281 Z M 135.214844 258.613281 L 240.339844 258.613281 L 240.339844 258.628906 L 135.214844 258.628906 Z M 135.230469 258.628906 L 240.324219 258.628906 L 240.324219 258.660156 L 135.230469 258.660156 Z M 135.246094 258.660156 L 240.308594 258.660156 L 240.308594 258.675781 L 135.246094 258.675781 Z M 135.261719 258.675781 L 240.296875 258.675781 L 240.296875 258.703125 L 135.261719 258.703125 Z M 135.273438 258.703125 L 240.28125 258.703125 L 240.28125 258.71875 L 135.273438 258.71875 Z M 135.289062 258.71875 L 240.265625 258.71875 L 240.265625 258.734375 L 135.289062 258.734375 Z M 135.289062 258.734375 L 240.25 258.734375 L 240.25 258.75 L 135.289062 258.75 Z M 135.304688 258.75 L 240.25 258.75 L 240.25 258.765625 L 135.304688 258.765625 Z M 135.304688 258.765625 L 240.234375 258.765625 L 240.234375 258.78125 L 135.304688 258.78125 Z M 135.320312 258.78125 L 240.21875 258.78125 L 240.21875 258.796875 L 135.320312 258.796875 Z M 135.335938 258.796875 L 240.21875 258.796875 L 240.21875 258.808594 L 135.335938 258.808594 Z M 135.335938 258.808594 L 240.203125 258.808594 L 240.203125 258.824219 L 135.335938 258.824219 Z M 135.351562 258.824219 L 240.191406 258.824219 L 240.191406 258.839844 L 135.351562 258.839844 Z M 135.367188 258.839844 L 240.191406 258.839844 L 240.191406 258.855469 L 135.367188 258.855469 Z M 135.367188 258.855469 L 240.175781 258.855469 L 240.175781 258.871094 L 135.367188 258.871094 Z M 135.382812 258.871094 L 240.160156 258.871094 L 240.160156 258.882812 L 135.382812 258.882812 Z M 135.394531 258.882812 L 240.144531 258.882812 L 240.144531 258.914062 L 135.394531 258.914062 Z M 135.410156 258.914062 L 240.128906 258.914062 L 240.128906 258.929688 L 135.410156 258.929688 Z M 135.425781 258.929688 L 240.113281 258.929688 L 240.113281 258.960938 L 135.425781 258.960938 Z M 135.441406 258.960938 L 240.097656 258.960938 L 240.097656 258.976562 L 135.441406 258.976562 Z M 135.457031 258.976562 L 240.085938 258.976562 L 240.085938 258.988281 L 135.457031 258.988281 Z M 135.457031 258.988281 L 240.070312 258.988281 L 240.070312 259.003906 L 135.457031 259.003906 Z M 135.472656 259.003906 L 240.070312 259.003906 L 240.070312 259.019531 L 135.472656 259.019531 Z M 135.488281 259.019531 L 240.054688 259.019531 L 240.054688 259.035156 L 135.488281 259.035156 Z M 135.5 259.035156 L 240.039062 259.035156 L 240.039062 259.050781 L 135.5 259.050781 Z M 135.5 259.050781 L 240.023438 259.050781 L 240.023438 259.066406 L 135.5 259.066406 Z M 135.515625 259.066406 L 240.023438 259.066406 L 240.023438 259.078125 L 135.515625 259.078125 Z M 135.53125 259.078125 L 240.007812 259.078125 L 240.007812 259.09375 L 135.53125 259.09375 Z M 135.53125 259.09375 L 239.996094 259.09375 L 239.996094 259.109375 L 135.53125 259.109375 Z M 135.546875 259.109375 L 239.980469 259.109375 L 239.980469 259.125 L 135.546875 259.125 Z M 135.5625 259.125 L 239.964844 259.125 L 239.964844 259.140625 L 135.5625 259.140625 Z M 135.578125 259.140625 L 239.964844 259.140625 L 239.964844 259.15625 L 135.578125 259.15625 Z M 135.578125 259.15625 L 239.949219 259.15625 L 239.949219 259.171875 L 135.578125 259.171875 Z M 135.589844 259.171875 L 239.933594 259.171875 L 239.933594 259.183594 L 135.589844 259.183594 Z M 135.605469 259.183594 L 239.917969 259.183594 L 239.917969 259.199219 L 135.605469 259.199219 Z M 135.621094 259.199219 L 239.917969 259.199219 L 239.917969 259.214844 L 135.621094 259.214844 Z M 135.621094 259.214844 L 239.902344 259.214844 L 239.902344 259.230469 L 135.621094 259.230469 Z M 135.636719 259.230469 L 239.886719 259.230469 L 239.886719 259.246094 L 135.636719 259.246094 Z M 135.652344 259.246094 L 239.875 259.246094 L 239.875 259.257812 L 135.652344 259.257812 Z M 135.652344 259.257812 L 239.859375 259.257812 L 239.859375 259.273438 L 135.652344 259.273438 Z M 135.667969 259.273438 L 239.859375 259.273438 L 239.859375 259.289062 L 135.667969 259.289062 Z M 135.683594 259.289062 L 239.84375 259.289062 L 239.84375 259.304688 L 135.683594 259.304688 Z M 135.695312 259.304688 L 239.828125 259.304688 L 239.828125 259.320312 L 135.695312 259.320312 Z M 135.710938 259.320312 L 239.8125 259.320312 L 239.8125 259.335938 L 135.710938 259.335938 Z M 135.710938 259.335938 L 239.796875 259.335938 L 239.796875 259.351562 L 135.710938 259.351562 Z M 135.726562 259.351562 L 239.796875 259.351562 L 239.796875 259.363281 L 135.726562 259.363281 Z M 135.742188 259.363281 L 239.785156 259.363281 L 239.785156 259.378906 L 135.742188 259.378906 Z M 135.757812 259.378906 L 239.769531 259.378906 L 239.769531 259.394531 L 135.757812 259.394531 Z M 135.773438 259.394531 L 239.753906 259.394531 L 239.753906 259.410156 L 135.773438 259.410156 Z M 135.773438 259.410156 L 239.738281 259.410156 L 239.738281 259.425781 L 135.773438 259.425781 Z M 135.789062 259.425781 L 239.722656 259.425781 L 239.722656 259.441406 L 135.789062 259.441406 Z M 135.800781 259.441406 L 239.707031 259.441406 L 239.707031 259.453125 L 135.800781 259.453125 Z M 135.816406 259.453125 L 239.707031 259.453125 L 239.707031 259.46875 L 135.816406 259.46875 Z M 135.832031 259.46875 L 239.691406 259.46875 L 239.691406 259.484375 L 135.832031 259.484375 Z M 135.832031 259.484375 L 239.679688 259.484375 L 239.679688 259.5 L 135.832031 259.5 Z M 135.847656 259.5 L 239.664062 259.5 L 239.664062 259.515625 L 135.847656 259.515625 Z M 135.863281 259.515625 L 239.648438 259.515625 L 239.648438 259.53125 L 135.863281 259.53125 Z M 135.878906 259.53125 L 239.632812 259.53125 L 239.632812 259.546875 L 135.878906 259.546875 Z M 135.894531 259.546875 L 239.617188 259.546875 L 239.617188 259.558594 L 135.894531 259.558594 Z M 135.894531 259.558594 L 239.601562 259.558594 L 239.601562 259.574219 L 135.894531 259.574219 Z M 135.90625 259.574219 L 239.601562 259.574219 L 239.601562 259.589844 L 135.90625 259.589844 Z M 135.921875 259.589844 L 239.585938 259.589844 L 239.585938 259.605469 L 135.921875 259.605469 Z M 135.9375 259.605469 L 239.574219 259.605469 L 239.574219 259.621094 L 135.9375 259.621094 Z M 135.953125 259.621094 L 239.558594 259.621094 L 239.558594 259.632812 L 135.953125 259.632812 Z M 135.96875 259.632812 L 239.542969 259.632812 L 239.542969 259.648438 L 135.96875 259.648438 Z M 135.984375 259.648438 L 239.527344 259.648438 L 239.527344 259.664062 L 135.984375 259.664062 Z M 135.996094 259.664062 L 239.511719 259.664062 L 239.511719 259.679688 L 135.996094 259.679688 Z M 135.996094 259.679688 L 239.496094 259.679688 L 239.496094 259.695312 L 135.996094 259.695312 Z M 136.011719 259.695312 L 239.480469 259.695312 L 239.480469 259.710938 L 136.011719 259.710938 Z M 136.027344 259.710938 L 239.46875 259.710938 L 239.46875 259.726562 L 136.027344 259.726562 Z M 136.042969 259.726562 L 239.453125 259.726562 L 239.453125 259.738281 L 136.042969 259.738281 Z M 136.058594 259.738281 L 239.4375 259.738281 L 239.4375 259.753906 L 136.058594 259.753906 Z M 136.074219 259.753906 L 239.421875 259.753906 L 239.421875 259.769531 L 136.074219 259.769531 Z M 136.089844 259.769531 L 239.40625 259.769531 L 239.40625 259.800781 L 136.089844 259.800781 Z M 136.101562 259.800781 L 239.390625 259.800781 L 239.390625 259.816406 L 136.101562 259.816406 Z M 136.117188 259.816406 L 239.378906 259.816406 L 239.378906 259.828125 L 136.117188 259.828125 Z M 136.132812 259.828125 L 239.363281 259.828125 L 239.363281 259.84375 L 136.132812 259.84375 Z M 136.148438 259.84375 L 239.347656 259.84375 L 239.347656 259.859375 L 136.148438 259.859375 Z M 136.164062 259.859375 L 239.332031 259.859375 L 239.332031 259.875 L 136.164062 259.875 Z M 136.179688 259.875 L 239.316406 259.875 L 239.316406 259.890625 L 136.179688 259.890625 Z M 136.195312 259.890625 L 239.300781 259.890625 L 239.300781 259.90625 L 136.195312 259.90625 Z M 136.207031 259.90625 L 239.285156 259.90625 L 239.285156 259.921875 L 136.207031 259.921875 Z M 136.222656 259.921875 L 239.273438 259.921875 L 239.273438 259.933594 L 136.222656 259.933594 Z M 136.238281 259.933594 L 239.257812 259.933594 L 239.257812 259.949219 L 136.238281 259.949219 Z M 136.253906 259.949219 L 239.242188 259.949219 L 239.242188 259.964844 L 136.253906 259.964844 Z M 136.269531 259.964844 L 239.226562 259.964844 L 239.226562 259.980469 L 136.269531 259.980469 Z M 136.285156 259.980469 L 239.210938 259.980469 L 239.210938 259.996094 L 136.285156 259.996094 Z M 136.300781 259.996094 L 239.195312 259.996094 L 239.195312 260.007812 L 136.300781 260.007812 Z M 136.3125 260.007812 L 239.179688 260.007812 L 239.179688 260.023438 L 136.3125 260.023438 Z M 136.328125 260.023438 L 239.167969 260.023438 L 239.167969 260.039062 L 136.328125 260.039062 Z M 136.328125 260.039062 L 239.136719 260.039062 L 239.136719 260.054688 L 136.328125 260.054688 Z M 136.34375 260.054688 L 239.121094 260.054688 L 239.121094 260.070312 L 136.34375 260.070312 Z M 136.359375 260.070312 L 239.105469 260.070312 L 239.105469 260.085938 L 136.359375 260.085938 Z M 136.375 260.085938 L 239.089844 260.085938 L 239.089844 260.101562 L 136.375 260.101562 Z M 136.390625 260.101562 L 239.074219 260.101562 L 239.074219 260.113281 L 136.390625 260.113281 Z M 136.402344 260.113281 L 239.0625 260.113281 L 239.0625 260.128906 L 136.402344 260.128906 Z M 136.417969 260.128906 L 239.046875 260.128906 L 239.046875 260.144531 L 136.417969 260.144531 Z M 136.433594 260.144531 L 239.03125 260.144531 L 239.03125 260.160156 L 136.433594 260.160156 Z M 136.449219 260.160156 L 239.015625 260.160156 L 239.015625 260.175781 L 136.449219 260.175781 Z M 136.464844 260.175781 L 239 260.175781 L 239 260.191406 L 136.464844 260.191406 Z M 136.496094 260.191406 L 238.984375 260.191406 L 238.984375 260.203125 L 136.496094 260.203125 Z M 136.511719 260.203125 L 238.96875 260.203125 L 238.96875 260.21875 L 136.511719 260.21875 Z M 136.523438 260.21875 L 238.957031 260.21875 L 238.957031 260.234375 L 136.523438 260.234375 Z M 136.539062 260.234375 L 238.925781 260.234375 L 238.925781 260.25 L 136.539062 260.25 Z M 136.554688 260.25 L 238.910156 260.25 L 238.910156 260.265625 L 136.554688 260.265625 Z M 136.570312 260.265625 L 238.894531 260.265625 L 238.894531 260.28125 L 136.570312 260.28125 Z M 136.585938 260.28125 L 238.878906 260.28125 L 238.878906 260.296875 L 136.585938 260.296875 Z M 136.601562 260.296875 L 238.867188 260.296875 L 238.867188 260.308594 L 136.601562 260.308594 Z M 136.617188 260.308594 L 238.851562 260.308594 L 238.851562 260.324219 L 136.617188 260.324219 Z M 136.628906 260.324219 L 238.835938 260.324219 L 238.835938 260.339844 L 136.628906 260.339844 Z M 136.644531 260.339844 L 238.804688 260.339844 L 238.804688 260.355469 L 136.644531 260.355469 Z M 136.660156 260.355469 L 238.789062 260.355469 L 238.789062 260.371094 L 136.660156 260.371094 Z M 136.675781 260.371094 L 238.773438 260.371094 L 238.773438 260.382812 L 136.675781 260.382812 Z M 136.691406 260.382812 L 238.757812 260.382812 L 238.757812 260.398438 L 136.691406 260.398438 Z M 136.707031 260.398438 L 238.746094 260.398438 L 238.746094 260.414062 L 136.707031 260.414062 Z M 136.71875 260.414062 L 238.730469 260.414062 L 238.730469 260.429688 L 136.71875 260.429688 Z M 136.75 260.429688 L 238.699219 260.429688 L 238.699219 260.445312 L 136.75 260.445312 Z M 136.765625 260.445312 L 238.683594 260.445312 L 238.683594 260.460938 L 136.765625 260.460938 Z M 136.78125 260.460938 L 238.667969 260.460938 L 238.667969 260.476562 L 136.78125 260.476562 Z M 136.796875 260.476562 L 238.65625 260.476562 L 238.65625 260.488281 L 136.796875 260.488281 Z M 136.8125 260.488281 L 238.625 260.488281 L 238.625 260.503906 L 136.8125 260.503906 Z M 136.824219 260.503906 L 238.609375 260.503906 L 238.609375 260.519531 L 136.824219 260.519531 Z M 136.855469 260.519531 L 238.59375 260.519531 L 238.59375 260.535156 L 136.855469 260.535156 Z M 136.871094 260.535156 L 238.578125 260.535156 L 238.578125 260.550781 L 136.871094 260.550781 Z M 136.886719 260.550781 L 238.550781 260.550781 L 238.550781 260.566406 L 136.886719 260.566406 Z M 136.902344 260.566406 L 238.535156 260.566406 L 238.535156 260.578125 L 136.902344 260.578125 Z M 136.917969 260.578125 L 238.519531 260.578125 L 238.519531 260.59375 L 136.917969 260.59375 Z M 136.929688 260.59375 L 238.503906 260.59375 L 238.503906 260.609375 L 136.929688 260.609375 Z M 136.960938 260.609375 L 238.472656 260.609375 L 238.472656 260.625 L 136.960938 260.625 Z M 136.976562 260.625 L 238.457031 260.625 L 238.457031 260.640625 L 136.976562 260.640625 Z M 136.992188 260.640625 L 238.445312 260.640625 L 238.445312 260.65625 L 136.992188 260.65625 Z M 137.007812 260.65625 L 238.414062 260.65625 L 238.414062 260.671875 L 137.007812 260.671875 Z M 137.023438 260.671875 L 238.398438 260.671875 L 238.398438 260.683594 L 137.023438 260.683594 Z M 137.050781 260.683594 L 238.382812 260.683594 L 238.382812 260.699219 L 137.050781 260.699219 Z M 137.066406 260.699219 L 238.351562 260.699219 L 238.351562 260.714844 L 137.066406 260.714844 Z M 137.082031 260.714844 L 238.339844 260.714844 L 238.339844 260.730469 L 137.082031 260.730469 Z M 137.113281 260.730469 L 238.324219 260.730469 L 238.324219 260.746094 L 137.113281 260.746094 Z M 137.125 260.746094 L 238.292969 260.746094 L 238.292969 260.757812 L 137.125 260.757812 Z M 137.140625 260.757812 L 238.277344 260.757812 L 238.277344 260.773438 L 137.140625 260.773438 Z M 137.15625 260.773438 L 238.246094 260.773438 L 238.246094 260.789062 L 137.15625 260.789062 Z M 137.1875 260.789062 L 238.234375 260.789062 L 238.234375 260.804688 L 137.1875 260.804688 Z M 137.203125 260.804688 L 238.21875 260.804688 L 238.21875 260.820312 L 137.203125 260.820312 Z M 137.21875 260.820312 L 238.1875 260.820312 L 238.1875 260.835938 L 137.21875 260.835938 Z M 137.230469 260.835938 L 238.171875 260.835938 L 238.171875 260.851562 L 137.230469 260.851562 Z M 137.261719 260.851562 L 238.144531 260.851562 L 238.144531 260.863281 L 137.261719 260.863281 Z M 137.277344 260.863281 L 238.128906 260.863281 L 238.128906 260.878906 L 137.277344 260.878906 Z M 137.292969 260.878906 L 238.113281 260.878906 L 238.113281 260.894531 L 137.292969 260.894531 Z M 137.324219 260.894531 L 238.082031 260.894531 L 238.082031 260.910156 L 137.324219 260.910156 Z M 137.339844 260.910156 L 238.066406 260.910156 L 238.066406 260.925781 L 137.339844 260.925781 Z M 137.351562 260.925781 L 238.039062 260.925781 L 238.039062 260.941406 L 137.351562 260.941406 Z M 137.382812 260.941406 L 238.007812 260.941406 L 238.007812 260.953125 L 137.382812 260.953125 Z M 137.398438 260.953125 L 237.992188 260.953125 L 237.992188 260.96875 L 137.398438 260.96875 Z M 137.429688 260.96875 L 237.960938 260.96875 L 237.960938 260.984375 L 137.429688 260.984375 Z M 137.441406 260.984375 L 237.945312 260.984375 L 237.945312 261 L 137.441406 261 Z M 137.472656 261 L 237.917969 261 L 237.917969 261.015625 L 137.472656 261.015625 Z M 137.488281 261.015625 L 237.902344 261.015625 L 237.902344 261.03125 L 137.488281 261.03125 Z M 137.503906 261.03125 L 237.871094 261.03125 L 237.871094 261.046875 L 137.503906 261.046875 Z M 137.53125 261.046875 L 237.855469 261.046875 L 237.855469 261.058594 L 137.53125 261.058594 Z M 137.546875 261.058594 L 237.828125 261.058594 L 237.828125 261.074219 L 137.546875 261.074219 Z M 137.578125 261.074219 L 237.8125 261.074219 L 237.8125 261.089844 L 137.578125 261.089844 Z M 137.59375 261.089844 L 237.78125 261.089844 L 237.78125 261.105469 L 137.59375 261.105469 Z M 137.609375 261.105469 L 237.75 261.105469 L 237.75 261.121094 L 137.609375 261.121094 Z M 137.640625 261.121094 L 237.738281 261.121094 L 237.738281 261.132812 L 137.640625 261.132812 Z M 137.652344 261.132812 L 237.707031 261.132812 L 237.707031 261.148438 L 137.652344 261.148438 Z M 137.683594 261.148438 L 237.675781 261.148438 L 237.675781 261.164062 L 137.683594 261.164062 Z M 137.714844 261.164062 L 237.660156 261.164062 L 237.660156 261.179688 L 137.714844 261.179688 Z M 137.730469 261.179688 L 237.628906 261.179688 L 237.628906 261.195312 L 137.730469 261.195312 Z M 137.757812 261.195312 L 237.601562 261.195312 L 237.601562 261.210938 L 137.757812 261.210938 Z M 137.773438 261.210938 L 237.570312 261.210938 L 237.570312 261.226562 L 137.773438 261.226562 Z M 137.804688 261.226562 L 237.554688 261.226562 L 237.554688 261.238281 L 137.804688 261.238281 Z M 137.820312 261.238281 L 237.527344 261.238281 L 237.527344 261.253906 L 137.820312 261.253906 Z M 137.847656 261.253906 L 237.496094 261.253906 L 237.496094 261.269531 L 137.847656 261.269531 Z M 137.878906 261.269531 L 237.480469 261.269531 L 237.480469 261.285156 L 137.878906 261.285156 Z M 137.894531 261.285156 L 237.449219 261.285156 L 237.449219 261.300781 L 137.894531 261.300781 Z M 137.925781 261.300781 L 237.421875 261.300781 L 237.421875 261.316406 L 137.925781 261.316406 Z M 137.941406 261.316406 L 237.390625 261.316406 L 237.390625 261.328125 L 137.941406 261.328125 Z M 137.96875 261.328125 L 237.359375 261.328125 L 237.359375 261.34375 L 137.96875 261.34375 Z M 138 261.34375 L 237.328125 261.34375 L 237.328125 261.359375 L 138 261.359375 Z M 138.015625 261.359375 L 237.300781 261.359375 L 237.300781 261.375 L 138.015625 261.375 Z M 138.046875 261.375 L 237.269531 261.375 L 237.269531 261.390625 L 138.046875 261.390625 Z M 138.074219 261.390625 L 237.238281 261.390625 L 237.238281 261.40625 L 138.074219 261.40625 Z M 138.105469 261.40625 L 237.222656 261.40625 L 237.222656 261.421875 L 138.105469 261.421875 Z M 138.121094 261.421875 L 237.195312 261.421875 L 237.195312 261.433594 L 138.121094 261.433594 Z M 138.152344 261.433594 L 237.164062 261.433594 L 237.164062 261.449219 L 138.152344 261.449219 Z M 138.179688 261.449219 L 237.132812 261.449219 L 237.132812 261.464844 L 138.179688 261.464844 Z M 138.210938 261.464844 L 237.105469 261.464844 L 237.105469 261.480469 L 138.210938 261.480469 Z M 138.226562 261.480469 L 237.074219 261.480469 L 237.074219 261.496094 L 138.226562 261.496094 Z M 138.253906 261.496094 L 237.042969 261.496094 L 237.042969 261.507812 L 138.253906 261.507812 Z M 138.285156 261.507812 L 237.015625 261.507812 L 237.015625 261.523438 L 138.285156 261.523438 Z M 138.316406 261.523438 L 236.96875 261.523438 L 236.96875 261.539062 L 138.316406 261.539062 Z M 138.347656 261.539062 L 236.9375 261.539062 L 236.9375 261.554688 L 138.347656 261.554688 Z M 138.359375 261.554688 L 236.910156 261.554688 L 236.910156 261.570312 L 138.359375 261.570312 Z M 138.390625 261.570312 L 236.878906 261.570312 L 236.878906 261.585938 L 138.390625 261.585938 Z M 138.421875 261.585938 L 236.847656 261.585938 L 236.847656 261.601562 L 138.421875 261.601562 Z M 138.453125 261.601562 L 236.804688 261.601562 L 236.804688 261.613281 L 138.453125 261.613281 Z M 138.480469 261.613281 L 236.773438 261.613281 L 236.773438 261.628906 L 138.480469 261.628906 Z M 138.511719 261.628906 L 236.742188 261.628906 L 236.742188 261.644531 L 138.511719 261.644531 Z M 138.542969 261.644531 L 236.710938 261.644531 L 236.710938 261.660156 L 138.542969 261.660156 Z M 138.570312 261.660156 L 236.667969 261.660156 L 236.667969 261.675781 L 138.570312 261.675781 Z M 138.601562 261.675781 L 236.636719 261.675781 L 236.636719 261.691406 L 138.601562 261.691406 Z M 138.632812 261.691406 L 236.59375 261.691406 L 236.59375 261.703125 L 138.632812 261.703125 Z M 138.660156 261.703125 L 236.5625 261.703125 L 236.5625 261.71875 L 138.660156 261.71875 Z M 138.691406 261.71875 L 236.515625 261.71875 L 236.515625 261.734375 L 138.691406 261.734375 Z M 138.738281 261.734375 L 236.488281 261.734375 L 236.488281 261.75 L 138.738281 261.75 Z M 138.769531 261.75 L 236.441406 261.75 L 236.441406 261.765625 L 138.769531 261.765625 Z M 138.796875 261.765625 L 236.410156 261.765625 L 236.410156 261.78125 L 138.796875 261.78125 Z M 138.828125 261.78125 L 236.367188 261.78125 L 236.367188 261.796875 L 138.828125 261.796875 Z M 138.859375 261.796875 L 236.335938 261.796875 L 236.335938 261.808594 L 138.859375 261.808594 Z M 138.902344 261.808594 L 236.292969 261.808594 L 236.292969 261.824219 L 138.902344 261.824219 Z M 138.933594 261.824219 L 236.246094 261.824219 L 236.246094 261.839844 L 138.933594 261.839844 Z M 138.964844 261.839844 L 236.199219 261.839844 L 236.199219 261.855469 L 138.964844 261.855469 Z M 138.992188 261.855469 L 236.15625 261.855469 L 236.15625 261.871094 L 138.992188 261.871094 Z M 139.039062 261.871094 L 236.109375 261.871094 L 236.109375 261.882812 L 139.039062 261.882812 Z M 139.070312 261.882812 L 236.066406 261.882812 L 236.066406 261.898438 L 139.070312 261.898438 Z M 139.113281 261.898438 L 236.019531 261.898438 L 236.019531 261.914062 L 139.113281 261.914062 Z M 139.144531 261.914062 L 235.988281 261.914062 L 235.988281 261.929688 L 139.144531 261.929688 Z M 139.1875 261.929688 L 235.929688 261.929688 L 235.929688 261.945312 L 139.1875 261.945312 Z M 139.21875 261.945312 L 235.886719 261.945312 L 235.886719 261.960938 L 139.21875 261.960938 Z M 139.265625 261.960938 L 235.824219 261.960938 L 235.824219 261.976562 L 139.265625 261.976562 Z M 139.292969 261.976562 L 235.78125 261.976562 L 235.78125 261.988281 L 139.292969 261.988281 Z M 139.339844 261.988281 L 235.71875 261.988281 L 235.71875 262.003906 L 139.339844 262.003906 Z M 139.371094 262.003906 L 235.675781 262.003906 L 235.675781 262.019531 L 139.371094 262.019531 Z M 139.414062 262.019531 L 235.628906 262.019531 L 235.628906 262.035156 L 139.414062 262.035156 Z M 139.460938 262.035156 L 235.570312 262.035156 L 235.570312 262.050781 L 139.460938 262.050781 Z M 139.503906 262.050781 L 235.507812 262.050781 L 235.507812 262.066406 L 139.503906 262.066406 Z M 139.550781 262.066406 L 235.433594 262.066406 L 235.433594 262.078125 L 139.550781 262.078125 Z M 139.597656 262.078125 L 235.371094 262.078125 L 235.371094 262.09375 L 139.597656 262.09375 Z M 139.640625 262.09375 L 235.3125 262.09375 L 235.3125 262.109375 L 139.640625 262.109375 Z M 139.6875 262.109375 L 235.253906 262.109375 L 235.253906 262.125 L 139.6875 262.125 Z M 139.730469 262.125 L 235.191406 262.125 L 235.191406 262.140625 L 139.730469 262.140625 Z M 139.777344 262.140625 L 235.101562 262.140625 L 235.101562 262.15625 L 139.777344 262.15625 Z M 139.835938 262.15625 L 235.027344 262.15625 L 235.027344 262.171875 L 139.835938 262.171875 Z M 139.882812 262.171875 L 234.9375 262.171875 L 234.9375 262.183594 L 139.882812 262.183594 Z M 139.941406 262.183594 L 234.859375 262.183594 L 234.859375 262.199219 L 139.941406 262.199219 Z M 139.988281 262.199219 L 234.769531 262.199219 L 234.769531 262.214844 L 139.988281 262.214844 Z M 140.046875 262.214844 L 234.664062 262.214844 L 234.664062 262.230469 L 140.046875 262.230469 Z M 140.09375 262.230469 L 234.546875 262.230469 L 234.546875 262.246094 L 140.09375 262.246094 Z M 140.152344 262.246094 L 234.425781 262.246094 L 234.425781 262.257812 L 140.152344 262.257812 Z M 140.210938 262.257812 L 234.273438 262.257812 L 234.273438 262.273438 L 140.210938 262.273438 Z M 140.273438 262.273438 L 234.09375 262.273438 L 234.09375 262.289062 L 140.273438 262.289062 Z M 140.347656 262.289062 L 233.835938 262.289062 L 233.835938 262.304688 L 140.347656 262.304688 Z M 140.410156 262.304688 L 230.300781 262.304688 L 230.300781 262.320312 L 140.410156 262.320312 Z M 140.46875 262.320312 L 223.511719 262.320312 L 223.511719 262.335938 L 140.46875 262.335938 Z M 140.542969 262.335938 L 216.738281 262.335938 L 216.738281 262.351562 L 140.542969 262.351562 Z M 140.617188 262.351562 L 209.933594 262.351562 L 209.933594 262.363281 L 140.617188 262.363281 Z M 140.710938 262.363281 L 203.160156 262.363281 L 203.160156 262.378906 L 140.710938 262.378906 Z M 140.785156 262.378906 L 196.371094 262.378906 L 196.371094 262.394531 L 140.785156 262.394531 Z M 140.875 262.394531 L 189.628906 262.394531 L 189.628906 262.410156 L 140.875 262.410156 Z M 140.964844 262.410156 L 182.855469 262.410156 L 182.855469 262.425781 L 140.964844 262.425781 Z M 141.085938 262.425781 L 176.050781 262.425781 L 176.050781 262.441406 L 141.085938 262.441406 Z M 141.207031 262.441406 L 169.261719 262.441406 L 169.261719 262.453125 L 141.207031 262.453125 Z M 141.328125 262.453125 L 162.519531 262.453125 L 162.519531 262.46875 L 141.328125 262.46875 Z M 141.507812 262.46875 L 155.746094 262.46875 L 155.746094 262.484375 L 141.507812 262.484375 Z M 141.703125 262.484375 L 148.957031 262.484375 L 148.957031 262.5 L 141.703125 262.5 Z M 141.703125 262.484375"/></clipPath><clipPath id="b"><path d="M 241.667969 254.148438 C 241.679688 258.617188 238.027344 262.273438 233.542969 262.296875 L 142.175781 262.5 C 137.703125 262.496094 134.019531 258.859375 134.011719 254.390625 L 133.710938 120.84375 C 133.699219 116.375 137.363281 112.710938 141.851562 112.703125 L 233.203125 112.5 C 237.691406 112.488281 241.371094 116.140625 241.378906 120.605469 Z M 241.667969 254.148438"/></clipPath><clipPath id="c"><path d="M 133.890625 266.90625 L 247.832031 262.246094 L 241.484375 108.09375 L 127.542969 112.75 Z M 133.890625 266.90625"/></clipPath><linearGradient x1="-.003" gradientTransform="matrix(-6.3048 -153.09895 153.63241 -6.2829 190.849 264.05)" xmlns:xlink="http://www.w3.org/1999/xlink" y1="0" x2="1.003" gradientUnits="userSpaceOnUse" y2="0" xlink:type="simple" xlink:actuate="onLoad" id="d" xlink:show="other"><stop stop-color="#EDEDEE" offset="0"/><stop stop-color="#EDEDEE" offset=".063"/><stop stop-color="#EDEDEE" offset=".094"/><stop stop-color="#EEEEEF" offset=".125"/><stop stop-color="#EEEEEF" offset=".188"/><stop stop-color="#EEEEEF" offset=".219"/><stop stop-color="#EFEFF0" offset=".25"/><stop stop-color="#EFEFF0" offset=".281"/><stop stop-color="#F0F0F0" offset=".313"/><stop stop-color="#F0F0F0" offset=".344"/><stop stop-color="#F0F0F1" offset=".375"/><stop stop-color="#F0F0F1" offset=".406"/><stop stop-color="#F1F1F1" offset=".438"/><stop stop-color="#F1F1F1" offset=".469"/><stop stop-color="#F1F1F2" offset=".5"/><stop stop-color="#F1F1F2" offset=".531"/><stop stop-color="#F2F2F2" offset=".563"/><stop stop-color="#F2F2F2" offset=".594"/><stop stop-color="#F2F2F3" offset=".625"/><stop stop-color="#F2F2F3" offset=".656"/><stop stop-color="#F3F3F3" offset=".688"/><stop stop-color="#F3F3F3" offset=".719"/><stop stop-color="#F3F3F4" offset=".75"/><stop stop-color="#F3F3F4" offset=".781"/><stop stop-color="#F4F4F4" offset=".813"/><stop stop-color="#F4F4F4" offset=".844"/><stop stop-color="#F5F5F5" offset=".875"/><stop stop-color="#F5F5F5" offset=".938"/><stop stop-color="#F5F5F5" offset=".969"/><stop stop-color="#F6F6F6" offset="1"/></linearGradient></defs><g clip-path="url(#a)"><g clip-path="url(#b)"><g clip-path="url(#c)"><path fill="url(#d)" d="M 133.890625 266.90625 L 247.832031 262.246094 L 241.484375 108.09375 L 127.542969 112.753906 Z M 133.890625 266.90625"/></g></g></g><path d="M 145.21875 121.144531 L 143.410156 127.105469 L 147.0625 127.097656 Z M 139.34375 132.046875 L 140.28125 132.046875 C 141.679688 127.445312 143.167969 122.539062 144.554688 118.019531 L 145.882812 118.011719 C 147.308594 122.625 148.75 127.324219 150.179688 131.957031 L 151.160156 131.964844 L 151.15625 133.53125 C 149.597656 133.535156 148.027344 133.511719 146.441406 133.515625 L 146.429688 131.964844 L 148.554688 131.964844 L 147.53125 128.644531 L 142.9375 128.652344 L 141.90625 132.039062 L 143.773438 132.039062 L 143.785156 133.589844 L 139.351562 133.597656 L 139.34375 132.046875" fill-rule="evenodd"/><path d="M 231.261719 247.023438 L 227.609375 247.027344 L 229.441406 252.988281 Z M 223.523438 242.09375 L 223.527344 240.542969 L 227.960938 240.546875 L 227.957031 242.085938 L 226.089844 242.097656 L 227.128906 245.480469 L 231.734375 245.480469 L 232.738281 242.144531 L 230.617188 242.152344 L 230.609375 240.601562 C 232.207031 240.601562 233.777344 240.578125 235.335938 240.566406 L 235.332031 242.148438 L 234.363281 242.148438 C 232.957031 246.796875 231.511719 251.484375 230.117188 256.105469 L 228.773438 256.109375 C 227.394531 251.601562 225.875 246.683594 224.464844 242.097656 L 223.523438 242.09375" fill-rule="evenodd"/><path d="M 145.285156 146.171875 C 150.550781 141.351562 150.894531 138.21875 150.261719 136.566406 C 149.296875 134.082031 146.132812 135.207031 145.257812 137.132812 C 144.375 135.210938 141.199219 134.097656 140.253906 136.585938 C 139.625 138.238281 139.996094 141.367188 145.285156 146.171875" fill-rule="evenodd"/><path d="M 229.402344 227.613281 C 234.691406 232.402344 235.046875 235.546875 234.417969 237.203125 C 233.472656 239.679688 230.308594 238.578125 229.421875 236.648438 C 228.550781 238.570312 225.386719 239.691406 224.425781 237.210938 C 223.792969 235.566406 224.132812 232.433594 229.402344 227.613281" fill-rule="evenodd"/><path d="M 187.988281 202.421875 C 183.570312 197.886719 175.195312 189.859375 175.105469 180.148438 C 175.074219 177.171875 176.898438 173.476562 180.039062 172.824219 C 184.886719 171.816406 186.351562 175.390625 187.566406 178.472656 C 188.832031 175.242188 191.351562 171.265625 196.003906 172.976562 C 198.582031 173.925781 200.046875 176.5625 200.230469 179.730469 C 200.851562 190.25 192.09375 197.054688 187.988281 202.421875" fill-rule="evenodd"/></svg>