<svg id="visual" viewBox="0 0 900 450" width="900" height="450" xmlns="http://www.w3.org/2000/svg" xmlns:xlink="http://www.w3.org/1999/xlink" version="1.1"><rect x="0" y="0" width="900" height="450" fill="#FFFFFF"></rect><defs><linearGradient id="grad1_0" x1="50%" y1="100%" x2="100%" y2="0%"><stop offset="10%" stop-color="#8f54a0" stop-opacity="1"></stop><stop offset="90%" stop-color="#8f54a0" stop-opacity="1"></stop></linearGradient></defs><defs><linearGradient id="grad1_1" x1="50%" y1="100%" x2="100%" y2="0%"><stop offset="10%" stop-color="#8f54a0" stop-opacity="1"></stop><stop offset="90%" stop-color="#ffffff" stop-opacity="1"></stop></linearGradient></defs><defs><linearGradient id="grad2_0" x1="0%" y1="100%" x2="50%" y2="0%"><stop offset="10%" stop-color="#8f54a0" stop-opacity="1"></stop><stop offset="90%" stop-color="#8f54a0" stop-opacity="1"></stop></linearGradient></defs><defs><linearGradient id="grad2_1" x1="0%" y1="100%" x2="50%" y2="0%"><stop offset="10%" stop-color="#ffffff" stop-opacity="1"></stop><stop offset="90%" stop-color="#8f54a0" stop-opacity="1"></stop></linearGradient></defs><g transform="translate(900, 450)"><path d="M-209 0C-212.6 -23.3 -216.1 -46.6 -212.1 -68.9C-208.1 -91.2 -196.5 -112.6 -182 -132.3C-167.6 -151.9 -150.3 -169.8 -128.7 -177.2C-107.1 -184.6 -81.2 -181.4 -59 -181.7C-36.8 -181.9 -18.4 -185.4 0 -189L0 0Z" fill="#c8a8cf"></path><path d="M-104.5 0C-106.3 -11.6 -108.1 -23.3 -106 -34.5C-104 -45.6 -98.2 -56.3 -91 -66.1C-83.8 -75.9 -75.2 -84.9 -64.4 -88.6C-53.6 -92.3 -40.6 -90.7 -29.5 -90.8C-18.4 -90.9 -9.2 -92.7 0 -94.5L0 0Z" fill="#8f54a0"></path></g><g transform="translate(0, 0)"><path d="M214 0C197.4 16.8 180.8 33.6 177.8 57.8C174.9 82 185.6 113.5 173.1 125.8C160.6 138.1 124.9 131.1 105.8 145.6C86.7 160.2 84.1 196.2 69.2 213C54.3 229.9 27.2 227.4 0 225L0 0Z" fill="#c8a8cf"></path><path d="M107 0C98.7 8.4 90.4 16.8 88.9 28.9C87.5 41 92.8 56.8 86.6 62.9C80.3 69 62.5 65.5 52.9 72.8C43.3 80.1 42 98.1 34.6 106.5C27.2 114.9 13.6 113.7 0 112.5L0 0Z" fill="#8f54a0"></path></g></svg>