<svg id="visual" viewBox="0 0 900 450" width="900" height="450" xmlns="http://www.w3.org/2000/svg" xmlns:xlink="http://www.w3.org/1999/xlink" version="1.1"><g transform="translate(454.0809939470189 228.41840568199234)"><path d="M77.4 -112.9C101.7 -119.9 123.9 -102.1 118.7 -79.2C113.4 -56.3 80.7 -28.1 68 -7.3C55.4 13.5 62.8 27 64.8 44.3C66.8 61.6 63.4 82.8 51.7 94.7C40 106.6 20 109.3 1.5 106.7C-17 104.1 -34 96.2 -52.3 88.1C-70.7 80.1 -90.3 71.8 -106 57.1C-121.7 42.3 -133.3 21.2 -124.7 5C-116 -11.2 -87 -22.3 -74.7 -42.8C-62.3 -63.3 -66.7 -93.2 -57 -94.6C-47.3 -96 -23.7 -69.1 1.4 -71.6C26.5 -74 53 -105.9 77.4 -112.9" fill="#482951"></path></g></svg>