<svg xmlns="http://www.w3.org/2000/svg" width="375" viewBox="0 0 375 375" height="375" version="1.0"><defs><clipPath id="a"><path d="M 114 133.308594 L 261 133.308594 L 261 242 L 114 242 Z M 114 133.308594"/></clipPath></defs><g clip-path="url(#a)"><path fill="#A078F6" d="M 221.882812 240.707031 C 220.855469 240.488281 214.496094 238.707031 207.75 236.753906 C 201.003906 234.800781 194.621094 233.203125 193.570312 233.203125 C 192.515625 233.203125 185.527344 234.484375 178.039062 236.054688 C 164.960938 238.789062 164.292969 238.851562 161.242188 237.59375 C 159.496094 236.875 157.820312 235.609375 157.519531 234.785156 C 157.160156 233.808594 156.445312 233.460938 155.464844 233.785156 C 154.519531 234.101562 154.191406 233.964844 154.585938 233.410156 C 154.929688 232.925781 154.683594 232.320312 154.039062 232.066406 C 153.394531 231.808594 153.917969 231.773438 155.199219 231.988281 C 156.484375 232.203125 157.003906 232.167969 156.359375 231.914062 C 155.714844 231.65625 155.425781 231.113281 155.714844 230.707031 C 156.003906 230.300781 155.320312 230.058594 154.191406 230.167969 C 153.0625 230.277344 151.957031 229.914062 151.726562 229.359375 C 151.5 228.800781 151.953125 228.34375 152.734375 228.34375 C 153.519531 228.34375 154.371094 228.046875 154.628906 227.683594 C 154.890625 227.316406 153.847656 227.179688 152.316406 227.375 C 149.085938 227.785156 148.878906 226.1875 151.9375 224.457031 C 153.703125 223.453125 153.675781 223.414062 151.394531 223.710938 C 149.535156 223.949219 148.648438 223.503906 147.476562 221.730469 C 145.980469 219.46875 145.992188 219.441406 148.347656 219.441406 C 150.144531 219.441406 150.597656 219.121094 150.171875 218.160156 C 149.859375 217.453125 149.605469 216.734375 149.605469 216.558594 C 149.605469 216.386719 148.242188 216.433594 146.574219 216.664062 L 143.542969 217.085938 L 149.136719 214.601562 L 145.875 215 C 142.773438 215.375 142.726562 215.347656 144.941406 214.425781 C 146.222656 213.890625 147.386719 213.394531 147.527344 213.324219 C 147.667969 213.253906 147.535156 212.632812 147.234375 211.949219 C 146.824219 211.023438 145.679688 210.785156 142.78125 211.027344 C 138.652344 211.371094 138.921875 211.046875 143.542969 210.105469 C 146.054688 209.597656 146.148438 209.472656 144.476562 208.878906 C 143.449219 208.515625 143.132812 208.191406 143.777344 208.160156 C 144.417969 208.128906 144.941406 207.757812 144.941406 207.332031 C 144.941406 206.910156 143.660156 206.703125 142.089844 206.875 C 140.042969 207.101562 139.078125 206.804688 138.660156 205.824219 C 138.34375 205.074219 137.632812 204.195312 137.082031 203.867188 C 136.523438 203.535156 137.027344 203.265625 138.234375 203.257812 C 139.417969 203.253906 140.152344 203.578125 139.867188 203.980469 C 139.574219 204.386719 140.277344 204.492188 141.441406 204.214844 C 143.417969 203.746094 143.429688 203.695312 141.675781 203.375 C 139.8125 203.027344 139.8125 203.027344 141.675781 202.355469 C 143.054688 201.855469 142.589844 201.726562 139.910156 201.855469 C 135.351562 202.078125 134.554688 200.546875 138.617188 199.371094 L 141.675781 198.480469 L 134.214844 199.160156 L 137.246094 198.253906 C 140.652344 197.234375 140.816406 196.90625 138.984375 194.734375 C 137.917969 193.46875 137.308594 193.355469 135.488281 194.078125 C 133.316406 194.945312 133.332031 194.96875 136.546875 195.789062 C 138.34375 196.25 139.113281 196.65625 138.257812 196.695312 C 137.398438 196.738281 135.929688 196.988281 134.992188 197.25 C 133.570312 197.652344 133.519531 197.585938 134.683594 196.859375 C 135.90625 196.09375 135.886719 195.984375 134.550781 195.972656 C 133.707031 195.964844 132.789062 195.445312 132.511719 194.8125 C 132.160156 194.027344 133.078125 193.398438 135.441406 192.8125 L 138.878906 191.953125 L 135.148438 192.292969 L 131.417969 192.628906 L 134.449219 191.75 C 136.117188 191.265625 137.480469 190.519531 137.480469 190.089844 C 137.480469 189.660156 136.8125 189.53125 135.996094 189.804688 C 135.175781 190.078125 133.394531 190.488281 132.03125 190.71875 C 129.949219 191.070312 129.851562 191.015625 131.417969 190.378906 C 132.445312 189.960938 134.078125 189.398438 135.050781 189.128906 C 138.023438 188.300781 136.152344 187.84375 133 188.628906 C 131.203125 189.074219 129.835938 189.070312 129.511719 188.613281 C 129.21875 188.203125 129.945312 187.859375 131.128906 187.851562 C 132.3125 187.84375 133.914062 187.492188 134.683594 187.066406 C 135.6875 186.507812 135.160156 186.371094 132.816406 186.570312 C 131.023438 186.726562 130.390625 186.683594 131.417969 186.480469 C 135.257812 185.714844 135.257812 184.417969 131.417969 184.886719 L 127.6875 185.34375 L 130.75 184.457031 C 134.667969 183.316406 134.082031 181.765625 129.769531 181.878906 C 127.242188 181.945312 126.574219 181.6875 126.964844 180.800781 C 127.257812 180.136719 128.222656 179.804688 129.214844 180.03125 C 130.167969 180.25 131.21875 180.050781 131.542969 179.589844 C 131.925781 179.054688 130.933594 178.878906 128.773438 179.097656 C 126.695312 179.308594 125.246094 179.066406 124.980469 178.46875 C 124.398438 177.144531 125.289062 176.515625 127.609375 176.609375 C 129.324219 176.679688 129.277344 176.773438 127.222656 177.375 C 124.984375 178.035156 125.003906 178.054688 127.6875 177.902344 C 129.46875 177.800781 130.484375 177.304688 130.484375 176.53125 C 130.484375 175.632812 129.519531 175.359375 126.753906 175.464844 C 123.46875 175.589844 123.359375 175.542969 125.824219 175.046875 C 130.171875 174.179688 129.46875 172.042969 124.890625 172.222656 L 121.160156 172.371094 L 124.617188 171.40625 C 128.769531 170.25 128.222656 168.667969 123.445312 168.023438 C 121.101562 167.710938 120.734375 167.789062 122.09375 168.308594 C 123.574219 168.878906 123.667969 169.109375 122.558594 169.433594 C 121.789062 169.660156 122.417969 169.730469 123.957031 169.589844 C 126.535156 169.351562 126.59375 169.402344 124.707031 170.203125 C 122.421875 171.171875 119.324219 170.511719 120.222656 169.25 C 120.542969 168.800781 120.394531 168.433594 119.898438 168.433594 C 118.09375 168.433594 119.519531 165.625 121.535156 165.214844 C 124.890625 164.527344 123.800781 163.230469 119.132812 162.363281 C 114.46875 161.492188 112.503906 159.566406 116.1875 159.472656 C 117.976562 159.425781 118.070312 159.3125 116.71875 158.851562 C 115.34375 158.378906 115.585938 158.046875 118.214844 156.820312 C 119.941406 156.011719 121.9375 154.199219 122.65625 152.792969 C 123.773438 150.597656 124.777344 150.050781 129.746094 148.933594 C 133.730469 148.035156 136.34375 146.878906 138.136719 145.210938 C 140.496094 143.023438 141.492188 142.738281 148.566406 142.226562 C 154.199219 141.816406 157.039062 141.214844 158.71875 140.070312 C 160.308594 138.980469 162.484375 138.476562 165.585938 138.476562 C 168.078125 138.476562 170.121094 138.121094 170.121094 137.6875 C 170.121094 137.253906 171.277344 136.398438 172.6875 135.789062 C 174.628906 134.945312 177.148438 134.824219 183.089844 135.292969 C 189.324219 135.785156 191.203125 135.675781 192.25 134.765625 C 193.917969 133.316406 197.246094 133.320312 205.265625 134.773438 C 211.246094 135.855469 232.558594 137.417969 235.226562 136.96875 C 237.507812 136.585938 242.875 138.601562 243.867188 140.210938 C 244.414062 141.09375 244.726562 142.960938 244.5625 144.359375 C 244.273438 146.808594 244.488281 146.976562 250.472656 148.964844 C 261.472656 152.621094 262.492188 154.828125 258.3125 166 C 246.816406 196.746094 241.476562 210.703125 238.179688 218.628906 C 236.050781 223.75 233.429688 230.617188 232.351562 233.886719 C 230.054688 240.859375 228.195312 242.070312 221.882812 240.707031 Z M 228.457031 238.25 C 228.996094 237.925781 230.339844 235.105469 231.441406 231.988281 C 232.542969 228.871094 237.382812 216.300781 242.203125 204.058594 C 255.761719 169.59375 259.183594 159.304688 258.140625 156.152344 C 256.964844 152.59375 254.492188 151.480469 233.851562 145.253906 C 197.707031 134.34375 195.40625 133.882812 193.082031 137.0625 C 191.6875 138.96875 186.019531 152.957031 171.523438 190.292969 C 166.769531 202.539062 162.386719 213.636719 161.785156 214.957031 C 160.097656 218.660156 161.183594 220.695312 165.683594 222.257812 C 167.871094 223.019531 177.421875 225.992188 186.910156 228.863281 C 196.398438 231.738281 207.519531 235.144531 211.625 236.4375 C 218.777344 238.6875 226.386719 239.507812 228.457031 238.25 Z M 225.675781 234.621094 C 227.089844 230.675781 228.019531 228.949219 228.5 229.367188 C 229.25 230.019531 226.859375 236.441406 225.867188 236.441406 C 225.402344 236.441406 225.316406 235.621094 225.675781 234.621094 Z M 220.765625 233.480469 C 220.019531 231.792969 222.433594 227.941406 224.238281 227.941406 C 226.074219 227.941406 226.523438 230.566406 225.082031 232.90625 C 223.707031 235.132812 221.617188 235.410156 220.765625 233.480469 Z M 225.148438 229.808594 C 225.148438 228.652344 223.5 229.113281 222.914062 230.4375 C 221.894531 232.742188 222.378906 233.640625 223.777344 232.035156 C 224.53125 231.171875 225.148438 230.171875 225.148438 229.808594 Z M 210.730469 225.507812 C 210.109375 221.195312 210.1875 220.980469 213.109375 218.828125 C 219.550781 214.089844 219.296875 214.078125 220.503906 219.117188 L 221.589844 223.660156 L 217.539062 226.789062 C 215.3125 228.511719 213.011719 229.929688 212.429688 229.941406 C 211.839844 229.953125 211.085938 227.988281 210.730469 225.507812 Z M 227.082031 224.113281 C 226.4375 222.671875 226.6875 221.980469 228.242188 220.921875 C 231.808594 218.484375 233.136719 221.40625 229.789062 224.316406 L 227.902344 225.953125 Z M 178.136719 218.023438 L 177.5 213.367188 L 181.394531 210.300781 C 185.667969 206.929688 187.003906 206.824219 187.957031 209.785156 C 189.472656 214.492188 188.886719 216.296875 184.8125 219.5 C 182.632812 221.210938 180.382812 222.628906 179.808594 222.644531 C 179.234375 222.664062 178.488281 220.605469 178.136719 218.023438 Z M 200.574219 215.332031 C 199.164062 211.195312 198.101562 207.351562 198.101562 206.378906 C 198.101562 205.757812 199.78125 204.347656 201.832031 203.246094 C 203.882812 202.148438 205.5625 200.96875 205.5625 200.628906 C 205.5625 200.289062 206.347656 200.007812 207.3125 200.007812 C 209.054688 200.007812 210.226562 202.742188 210.226562 206.820312 C 210.226562 209.039062 201.15625 217.035156 200.574219 215.332031 Z M 219.160156 206.753906 L 217.519531 202.242188 L 221.527344 198.695312 C 227.359375 193.535156 227.988281 193.789062 229.21875 201.800781 C 229.648438 204.589844 229.359375 205.042969 225.238281 208.039062 L 220.796875 211.265625 Z M 187.449219 200.617188 C 187.105469 198.722656 186.597656 196.402344 186.328125 195.457031 C 185.949219 194.140625 186.835938 193.03125 190.144531 190.675781 C 192.714844 188.847656 194.792969 187.90625 195.292969 188.34375 C 195.757812 188.75 196.390625 191.015625 196.699219 193.386719 C 197.261719 197.65625 197.234375 197.714844 193.253906 200.839844 C 191.046875 202.574219 188.980469 204.003906 188.660156 204.023438 C 188.34375 204.042969 187.796875 202.507812 187.449219 200.617188 Z M 227.125 185.640625 L 225.875 180.988281 L 230.40625 177.527344 C 234.40625 174.46875 235.0625 174.21875 236.035156 175.375 C 236.640625 176.09375 237.425781 178.167969 237.78125 179.984375 C 238.394531 183.148438 238.238281 183.4375 234.089844 186.792969 C 231.707031 188.71875 229.445312 190.292969 229.0625 190.292969 C 228.683594 190.292969 227.808594 188.199219 227.125 185.640625 Z M 195.761719 177.597656 L 194.21875 172.996094 L 197.792969 170.339844 C 202.929688 166.523438 204.101562 166.792969 205.570312 172.109375 C 206.777344 176.476562 206.753906 176.625 204.609375 177.929688 C 203.402344 178.664062 201.652344 179.925781 200.722656 180.730469 C 198.117188 182.996094 197.421875 182.554688 195.761719 177.597656 Z M 213.371094 172.683594 L 212.382812 168.03125 L 215.734375 165.335938 C 217.578125 163.851562 219.792969 162.304688 220.65625 161.894531 C 222.457031 161.039062 222.988281 162.050781 223.457031 167.21875 C 223.722656 170.167969 223.363281 170.765625 219.449219 173.898438 C 217.082031 175.792969 214.96875 177.339844 214.75 177.339844 C 214.535156 177.339844 213.914062 175.246094 213.371094 172.683594 Z M 235.953125 170.660156 C 235.773438 170.105469 235.078125 168.070312 234.40625 166.136719 L 233.1875 162.628906 L 237.671875 159.054688 C 240.136719 157.089844 242.496094 155.480469 242.914062 155.480469 C 243.765625 155.480469 244.28125 156.847656 245.1875 161.488281 C 245.777344 164.507812 245.59375 164.828125 241.34375 168.167969 C 236.355469 172.085938 236.40625 172.0625 235.953125 170.660156 Z M 204.628906 161.039062 C 204.628906 160.089844 204.128906 157.859375 203.515625 156.085938 C 202.441406 152.96875 202.496094 152.796875 205.140625 151.132812 C 206.644531 150.183594 208.660156 148.734375 209.613281 147.910156 C 211.753906 146.058594 212.59375 146.746094 214.074219 151.570312 L 215.234375 155.351562 L 210.632812 159.027344 C 205.402344 163.203125 204.628906 163.464844 204.628906 161.039062 Z M 189.453125 156.34375 C 188.960938 154.707031 191.035156 151.433594 192.558594 151.433594 C 193.730469 151.433594 193.679688 154.386719 192.472656 156.34375 C 191.242188 158.339844 190.054688 158.339844 189.453125 156.34375 Z M 194.371094 146.941406 C 194.371094 144.21875 196.984375 139.910156 198.390625 140.3125 C 200.324219 140.863281 200.148438 144.539062 198.078125 146.820312 C 195.601562 149.558594 194.371094 149.597656 194.371094 146.941406 Z M 198.394531 141.742188 C 197.660156 141.027344 196.265625 143.734375 196.324219 145.765625 C 196.371094 147.542969 196.527344 147.441406 197.582031 144.957031 C 198.246094 143.398438 198.609375 141.949219 198.394531 141.742188 Z M 191.652344 147.480469 C 191.519531 145.5625 193.691406 140.097656 194.582031 140.097656 C 195.480469 140.097656 194.914062 142.183594 192.933594 146.171875 C 192.269531 147.507812 191.691406 148.09375 191.652344 147.480469 Z M 169.316406 235.796875 C 168.105469 235.632812 166.726562 235.828125 166.257812 236.238281 C 165.742188 236.6875 166.609375 236.804688 168.464844 236.539062 C 171.054688 236.164062 171.183594 236.050781 169.316406 235.796875 Z M 163.203125 234.523438 C 162.445312 234.019531 160.796875 229.78125 159.542969 225.109375 C 156.96875 215.535156 137.476562 148.726562 137.179688 148.46875 C 136.417969 147.808594 124.070312 152.1875 123.292969 153.390625 C 122.378906 154.808594 123.371094 157.851562 127.269531 165.601562 C 127.71875 166.492188 130.648438 172.867188 133.785156 179.769531 C 136.921875 186.671875 140.078125 193.460938 140.808594 194.851562 C 141.535156 196.246094 143.75 200.800781 145.726562 204.972656 C 150.851562 215.773438 156.117188 226.707031 157.632812 229.679688 C 158.347656 231.085938 158.933594 232.511719 158.933594 232.855469 C 158.933594 234.175781 161.972656 236.308594 163.246094 235.886719 C 164.398438 235.5 164.394531 235.3125 163.203125 234.523438 Z M 135.273438 173.285156 C 134.046875 172.210938 133.707031 171.136719 134.125 169.6875 C 134.832031 167.234375 135.714844 167.101562 137.832031 169.128906 C 139.066406 170.3125 139.203125 171.09375 138.464844 172.773438 C 137.371094 175.269531 137.511719 175.246094 135.273438 173.285156 Z M 129.648438 161.449219 C 129.296875 158.5 129.253906 155.878906 129.542969 155.625 C 130.3125 154.960938 133.28125 157.820312 135.585938 161.445312 C 137.632812 164.667969 137.691406 166.148438 135.683594 164.046875 C 134.230469 162.527344 131.886719 163.289062 131.886719 165.28125 C 131.886719 166.125 131.527344 166.8125 131.085938 166.8125 C 130.640625 166.8125 129.996094 164.402344 129.648438 161.449219 Z M 133.261719 161.988281 C 133.820312 161.207031 131.90625 157.910156 130.890625 157.910156 C 130.589844 157.910156 130.53125 159 130.757812 160.335938 C 131.167969 162.761719 132.21875 163.457031 133.261719 161.988281 Z M 180.847656 234.066406 C 184.542969 233.203125 186.363281 232.492188 185.046875 232.429688 C 182.738281 232.324219 182.742188 232.308594 185.511719 231.132812 C 187.050781 230.476562 187.46875 230.15625 186.445312 230.421875 C 185.417969 230.6875 180.839844 231.601562 176.265625 232.457031 C 171.695312 233.308594 167.707031 234.242188 167.40625 234.53125 C 167.105469 234.816406 167.910156 234.835938 169.191406 234.570312 C 170.472656 234.308594 173.410156 233.898438 175.71875 233.660156 L 179.917969 233.230469 L 176.242188 234.046875 C 174.21875 234.496094 172.367188 235.035156 172.121094 235.246094 C 171.253906 236 174.410156 235.574219 180.847656 234.066406 Z M 180.148438 232.667969 C 180.789062 232.441406 181.839844 232.441406 182.480469 232.667969 C 183.121094 232.890625 182.597656 233.074219 181.316406 233.074219 C 180.03125 233.074219 179.507812 232.890625 180.148438 232.667969 Z M 169.425781 231.742188 C 164.855469 231.453125 162.664062 229.40625 162.664062 225.429688 C 162.664062 224.027344 162.09375 222.46875 161.402344 221.96875 C 160.363281 221.21875 160.382812 222.03125 161.507812 226.523438 C 163.203125 233.304688 164.171875 234.082031 169.414062 232.886719 L 173.363281 231.988281 Z M 190.386719 231.90625 C 190.078125 231.636719 189.273438 231.605469 188.601562 231.839844 C 187.855469 232.097656 188.078125 232.292969 189.164062 232.332031 C 190.148438 232.367188 190.699219 232.175781 190.386719 231.90625 Z M 181.996094 230.285156 C 181.683594 230.015625 180.878906 229.988281 180.207031 230.222656 C 179.464844 230.480469 179.683594 230.671875 180.769531 230.710938 C 181.753906 230.746094 182.304688 230.554688 181.996094 230.285156 Z M 168.058594 227.351562 C 168.136719 224.976562 167.074219 223.535156 165.226562 223.5 C 164.363281 223.484375 164.292969 228.683594 165.148438 229.425781 C 166.640625 230.71875 167.980469 229.765625 168.058594 227.351562 Z M 179.914062 229.25 L 182.714844 228.730469 L 178.984375 227.796875 C 170.730469 225.734375 169.191406 225.664062 169.191406 227.335938 C 169.191406 228.1875 169.46875 229.128906 169.8125 229.425781 C 170.558594 230.070312 176.023438 229.976562 179.914062 229.25 Z M 154.015625 225.429688 C 153.707031 225.160156 152.902344 225.128906 152.230469 225.363281 C 151.484375 225.621094 151.707031 225.8125 152.792969 225.851562 C 153.777344 225.886719 154.328125 225.695312 154.015625 225.429688 Z M 151.703125 222.140625 C 151.0625 221.917969 150.015625 221.917969 149.371094 222.140625 C 148.730469 222.367188 149.257812 222.550781 150.539062 222.550781 C 151.820312 222.550781 152.34375 222.367188 151.703125 222.140625 Z M 150.773438 220.523438 C 150.128906 220.296875 149.082031 220.296875 148.441406 220.523438 C 147.800781 220.746094 148.324219 220.929688 149.605469 220.929688 C 150.886719 220.929688 151.414062 220.746094 150.773438 220.523438 Z M 159.730469 183.125 C 158.761719 168.144531 157.730469 152.867188 157.433594 149.183594 L 156.894531 142.480469 L 153.484375 143.035156 C 151.605469 143.34375 147.765625 143.808594 144.941406 144.070312 C 139.992188 144.535156 139.804688 144.640625 139.523438 147.136719 C 139.367188 148.558594 140.289062 153.296875 141.578125 157.660156 C 142.867188 162.027344 146.902344 175.984375 150.546875 188.675781 C 154.195312 201.367188 157.621094 213.207031 158.167969 214.988281 L 159.160156 218.226562 L 160.324219 214.296875 C 161.285156 211.0625 161.179688 205.558594 159.730469 183.128906 Z M 149.425781 167.929688 C 148.222656 166.886719 148.109375 166.136719 148.867188 164.25 C 150.40625 160.414062 154.171875 163.007812 152.988281 167.09375 C 152.269531 169.578125 151.527344 169.753906 149.425781 167.929688 Z M 146.117188 158.515625 C 145.613281 157.957031 144.914062 156.410156 144.5625 155.074219 C 144.210938 153.738281 143.703125 152.007812 143.4375 151.226562 C 142.730469 149.164062 144.488281 149.492188 145.621094 151.632812 L 146.582031 153.453125 L 147.777344 151.226562 C 148.433594 150.003906 149.339844 149.003906 149.789062 149.003906 C 150.238281 149.003906 150.148438 149.742188 149.589844 150.644531 C 148.78125 151.957031 148.964844 152.710938 150.492188 154.398438 C 152.453125 156.558594 153.015625 158.71875 151.621094 158.71875 C 151.191406 158.71875 150.359375 157.804688 149.777344 156.691406 C 148.257812 153.804688 146.511719 154.085938 147.273438 157.097656 C 147.933594 159.703125 147.585938 160.132812 146.117188 158.515625 Z M 167.652344 180.980469 C 168.449219 158.636719 169.1875 144.261719 169.679688 141.511719 C 170.0625 139.375 169.914062 139.285156 166.082031 139.285156 C 158.667969 139.285156 158.824219 138.757812 159.878906 160.335938 C 160.394531 170.800781 161.214844 184.28125 161.703125 190.292969 C 162.195312 196.304688 162.632812 202.679688 162.675781 204.460938 L 162.753906 207.699219 L 164.898438 202.84375 C 166.796875 198.546875 167.117188 196.007812 167.652344 180.980469 Z M 162.730469 164.09375 C 161.773438 162.539062 161.785156 161.855469 162.796875 160.449219 C 164.355469 158.285156 165.121094 158.273438 166.425781 160.390625 C 167.230469 161.691406 167.128906 162.503906 165.972656 164.035156 C 164.152344 166.445312 164.183594 166.445312 162.730469 164.09375 Z M 166.394531 155.480469 C 166.394531 155.035156 165.542969 154.667969 164.507812 154.667969 C 160.039062 154.667969 159.835938 145.664062 164.292969 145.105469 C 166.523438 144.824219 166.90625 145.667969 167.621094 152.441406 C 167.847656 154.558594 167.660156 156.289062 167.210938 156.289062 C 166.761719 156.289062 166.394531 155.925781 166.394531 155.480469 Z M 164.714844 152.886719 C 163.246094 151.613281 163.277344 149.757812 164.761719 150.015625 C 165.402344 150.125 165.925781 149.488281 165.925781 148.597656 C 165.925781 146.054688 163.171875 146.640625 162.828125 149.253906 C 162.558594 151.308594 163.921875 153.859375 165.292969 153.859375 C 165.589844 153.859375 165.328125 153.421875 164.714844 152.886719 Z M 143.757812 205.1875 C 143.449219 204.917969 142.644531 204.886719 141.96875 205.121094 C 141.226562 205.378906 141.449219 205.574219 142.535156 205.609375 C 143.515625 205.644531 144.066406 205.453125 143.757812 205.1875 Z M 140.746094 200.816406 C 142.613281 200.121094 142.613281 200.121094 140.746094 200.078125 C 139.71875 200.050781 138.25 200.386719 137.480469 200.816406 C 136.238281 201.515625 136.238281 201.597656 137.480469 201.558594 C 138.25 201.53125 139.71875 201.199219 140.746094 200.816406 Z M 177.1875 171.671875 C 180.402344 163.433594 183.3125 155.964844 183.660156 155.074219 C 184.183594 153.726562 184.105469 153.660156 183.207031 154.667969 C 182.328125 155.652344 182.238281 155.5 182.714844 153.859375 C 183.738281 150.34375 185.246094 147.382812 186.003906 147.382812 C 186.679688 147.382812 190.917969 137.585938 190.402344 137.226562 C 190.277344 137.140625 186.515625 136.882812 182.042969 136.648438 C 176.542969 136.367188 173.632812 136.527344 173.0625 137.148438 C 172.597656 137.65625 171.957031 141.714844 171.632812 146.167969 C 170.75 158.371094 170.109375 189.25 170.769531 187.863281 C 171.085938 187.195312 173.976562 179.910156 177.1875 171.671875 Z M 175.351562 163.1875 C 173.871094 161.226562 173.875 160.960938 175.414062 158.695312 C 176.316406 157.371094 177.375 156.289062 177.765625 156.289062 C 179.28125 156.289062 179.617188 160.457031 178.292969 162.824219 L 176.925781 165.273438 Z M 175.40625 152.507812 C 175.066406 152.210938 174.785156 151.441406 174.785156 150.792969 C 174.785156 149.820312 175.039062 149.796875 176.226562 150.648438 C 178.210938 152.082031 179.476562 150.789062 180.109375 146.679688 C 180.433594 144.585938 180.191406 142.894531 179.457031 142.128906 C 178.453125 141.078125 178.734375 140.910156 181.433594 140.929688 C 184.25 140.953125 184.40625 141.070312 182.945312 142.03125 C 181.925781 142.707031 181.316406 144.195312 181.316406 146.015625 C 181.316406 151.148438 178.015625 154.773438 175.410156 152.507812 Z M 125.585938 167.085938 C 124.941406 166.859375 124.695312 166.28125 125.039062 165.796875 C 125.441406 165.230469 125.085938 165.109375 124.035156 165.460938 C 123.140625 165.757812 121.707031 166.046875 120.851562 166.097656 C 119.996094 166.152344 120.554688 166.472656 122.09375 166.8125 C 125.335938 167.53125 127.289062 167.679688 125.585938 167.085938 Z M 122.5625 161.636719 C 122.5625 161.460938 121.929688 161.109375 121.160156 160.851562 C 120.390625 160.597656 119.761719 160.738281 119.761719 161.171875 C 119.761719 161.601562 120.390625 161.957031 121.160156 161.957031 C 121.929688 161.957031 122.5625 161.8125 122.5625 161.636719 Z M 118.128906 160.609375 C 117.488281 160.386719 116.441406 160.386719 115.800781 160.609375 C 115.15625 160.835938 115.683594 161.019531 116.964844 161.019531 C 118.246094 161.019531 118.773438 160.835938 118.128906 160.609375 Z M 122.308594 158.226562 C 122 157.960938 121.195312 157.929688 120.519531 158.164062 C 119.777344 158.421875 119.996094 158.613281 121.085938 158.652344 C 122.066406 158.6875 122.617188 158.496094 122.308594 158.226562 Z M 185.949219 149.40625 C 185.949219 148.960938 185.542969 149.144531 185.046875 149.8125 C 184.546875 150.480469 184.140625 151.390625 184.140625 151.835938 C 184.140625 152.28125 184.546875 152.097656 185.046875 151.429688 C 185.542969 150.761719 185.949219 149.851562 185.949219 149.40625 Z M 242.867188 143.839844 C 242.867188 140.285156 241.097656 139.113281 235.144531 138.730469 C 228.046875 138.273438 212 136.8125 209.292969 136.378906 C 208.011719 136.171875 214.726562 138.351562 224.214844 141.222656 C 233.707031 144.089844 241.785156 146.46875 242.167969 146.503906 C 242.554688 146.542969 242.867188 145.34375 242.867188 143.839844 Z M 146.574219 218.09375 C 147.21875 217.867188 148.265625 217.867188 148.90625 218.09375 C 149.546875 218.316406 149.023438 218.5 147.742188 218.5 C 146.460938 218.5 145.933594 218.316406 146.574219 218.09375 Z M 143.328125 212.402344 C 144.238281 212.195312 145.496094 212.207031 146.128906 212.429688 C 146.757812 212.652344 146.015625 212.820312 144.476562 212.804688 C 142.9375 212.789062 142.421875 212.605469 143.328125 212.402344 Z M 140.28125 208.914062 C 140.28125 208.46875 140.699219 208.105469 141.214844 208.105469 C 141.726562 208.105469 142.144531 208.46875 142.144531 208.914062 C 142.144531 209.359375 141.726562 209.722656 141.214844 209.722656 C 140.699219 209.722656 140.28125 209.359375 140.28125 208.914062 Z M 136.375 194.597656 C 137.046875 194.363281 137.851562 194.390625 138.164062 194.660156 C 138.472656 194.929688 137.921875 195.121094 136.9375 195.085938 C 135.851562 195.046875 135.632812 194.855469 136.375 194.597656 Z M 128.15625 183.007812 C 128.925781 182.574219 130.394531 182.242188 131.421875 182.265625 C 133.285156 182.308594 133.285156 182.308594 131.421875 183.007812 C 130.394531 183.390625 128.925781 183.722656 128.15625 183.746094 C 126.914062 183.785156 126.914062 183.703125 128.15625 183.007812 Z M 122.640625 173.808594 C 123.738281 172.988281 128.257812 172.496094 127.714844 173.257812 C 127.382812 173.722656 126.019531 174.101562 124.683594 174.101562 C 123.34375 174.101562 122.425781 173.96875 122.640625 173.808594 Z M 117.898438 164.472656 C 119.089844 163.730469 119.03125 163.597656 117.511719 163.585938 C 116.527344 163.582031 115.957031 163.371094 116.242188 163.125 C 116.527344 162.875 118.171875 163.027344 119.894531 163.457031 C 121.617188 163.886719 122.328125 164.273438 121.472656 164.3125 C 120.617188 164.351562 119.148438 164.601562 118.207031 164.867188 C 116.789062 165.265625 116.734375 165.199219 117.898438 164.472656 Z M 117.898438 164.472656"/></g></svg>