<svg id="visual" viewBox="0 0 900 600" width="900" height="600" xmlns="http://www.w3.org/2000/svg" xmlns:xlink="http://www.w3.org/1999/xlink" version="1.1"><path d="M0 70L12.5 67.5C25 65 50 60 75 60C100 60 125 65 150 72C175 79 200 88 225 91.7C250 95.3 275 93.7 300 94.3C325 95 350 98 375 92C400 86 425 71 450 69.5C475 68 500 80 525 87C550 94 575 96 600 95.2C625 94.3 650 90.7 675 95.3C700 100 725 113 750 110.7C775 108.3 800 90.7 825 87.3C850 84 875 95 887.5 100.5L900 106L900 0L887.5 0C875 0 850 0 825 0C800 0 775 0 750 0C725 0 700 0 675 0C650 0 625 0 600 0C575 0 550 0 525 0C500 0 475 0 450 0C425 0 400 0 375 0C350 0 325 0 300 0C275 0 250 0 225 0C200 0 175 0 150 0C125 0 100 0 75 0C50 0 25 0 12.5 0L0 0Z" fill="#8f54a0"></path><path d="M0 61L12.5 64.8C25 68.7 50 76.3 75 81C100 85.7 125 87.3 150 85C175 82.7 200 76.3 225 72.5C250 68.7 275 67.3 300 69C325 70.7 350 75.3 375 72.3C400 69.3 425 58.7 450 56.7C475 54.7 500 61.3 525 67.2C550 73 575 78 600 75.5C625 73 650 63 675 65.7C700 68.3 725 83.7 750 89.2C775 94.7 800 90.3 825 86.2C850 82 875 78 887.5 76L900 74L900 0L887.5 0C875 0 850 0 825 0C800 0 775 0 750 0C725 0 700 0 675 0C650 0 625 0 600 0C575 0 550 0 525 0C500 0 475 0 450 0C425 0 400 0 375 0C350 0 325 0 300 0C275 0 250 0 225 0C200 0 175 0 150 0C125 0 100 0 75 0C50 0 25 0 12.5 0L0 0Z" fill="#693777"></path><path d="M0 49L12.5 46.5C25 44 50 39 75 39.2C100 39.3 125 44.7 150 49.8C175 55 200 60 225 56.3C250 52.7 275 40.3 300 36C325 31.7 350 35.3 375 36.2C400 37 425 35 450 33C475 31 500 29 525 30.7C550 32.3 575 37.7 600 43.2C625 48.7 650 54.3 675 53.7C700 53 725 46 750 39.8C775 33.7 800 28.3 825 29.5C850 30.7 875 38.3 887.5 42.2L900 46L900 0L887.5 0C875 0 850 0 825 0C800 0 775 0 750 0C725 0 700 0 675 0C650 0 625 0 600 0C575 0 550 0 525 0C500 0 475 0 450 0C425 0 400 0 375 0C350 0 325 0 300 0C275 0 250 0 225 0C200 0 175 0 150 0C125 0 100 0 75 0C50 0 25 0 12.5 0L0 0Z" fill="#451b50"></path></svg>