<svg id="visual" viewBox="0 0 900 450" width="900" height="450" xmlns="http://www.w3.org/2000/svg" xmlns:xlink="http://www.w3.org/1999/xlink" version="1.1"><path d="M150 0L152 0L152 20L109 20L109 41L142 41L142 61L94 61L94 82L110 82L110 102L129 102L129 123L103 123L103 143L143 143L143 164L99 164L99 184L158 184L158 205L159 205L159 225L114 225L114 245L150 245L150 266L85 266L85 286L97 286L97 307L137 307L137 327L137 327L137 348L105 348L105 368L125 368L125 389L135 389L135 409L65 409L65 430L153 430L153 450L0 450L0 430L0 430L0 409L0 409L0 389L0 389L0 368L0 368L0 348L0 348L0 327L0 327L0 307L0 307L0 286L0 286L0 266L0 266L0 245L0 245L0 225L0 225L0 205L0 205L0 184L0 184L0 164L0 164L0 143L0 143L0 123L0 123L0 102L0 102L0 82L0 82L0 61L0 61L0 41L0 41L0 20L0 20L0 0L0 0Z" fill="#2a192f"></path><path d="M100 0L100 0L100 20L88 20L88 41L88 41L88 61L27 61L27 82L61 82L61 102L92 102L92 123L69 123L69 143L56 143L56 164L39 164L39 184L69 184L69 205L29 205L29 225L66 225L66 245L48 245L48 266L35 266L35 286L30 286L30 307L81 307L81 327L50 327L50 348L99 348L99 368L80 368L80 389L60 389L60 409L35 409L35 430L24 430L24 450L0 450L0 430L0 430L0 409L0 409L0 389L0 389L0 368L0 368L0 348L0 348L0 327L0 327L0 307L0 307L0 286L0 286L0 266L0 266L0 245L0 245L0 225L0 225L0 205L0 205L0 184L0 184L0 164L0 164L0 143L0 143L0 123L0 123L0 102L0 102L0 82L0 82L0 61L0 61L0 41L0 41L0 20L0 20L0 0L0 0Z" fill="#8f54a0"></path></svg>