<svg id="visual" viewBox="0 0 900 600" width="900" height="600" xmlns="http://www.w3.org/2000/svg" xmlns:xlink="http://www.w3.org/1999/xlink" version="1.1"><path d="M0 528L12.5 530.5C25 533 50 538 75 538C100 538 125 533 150 526C175 519 200 510 225 506.3C250 502.7 275 504.3 300 503.7C325 503 350 500 375 506C400 512 425 527 450 528.5C475 530 500 518 525 511C550 504 575 502 600 502.8C625 503.7 650 507.3 675 502.7C700 498 725 485 750 487.3C775 489.7 800 507.3 825 510.7C850 514 875 503 887.5 497.5L900 492L900 601L887.5 601C875 601 850 601 825 601C800 601 775 601 750 601C725 601 700 601 675 601C650 601 625 601 600 601C575 601 550 601 525 601C500 601 475 601 450 601C425 601 400 601 375 601C350 601 325 601 300 601C275 601 250 601 225 601C200 601 175 601 150 601C125 601 100 601 75 601C50 601 25 601 12.5 601L0 601Z" fill="#8f54a0"></path><path d="M0 537L12.5 533.2C25 529.3 50 521.7 75 517C100 512.3 125 510.7 150 513C175 515.3 200 521.7 225 525.5C250 529.3 275 530.7 300 529C325 527.3 350 522.7 375 525.7C400 528.7 425 539.3 450 541.3C475 543.3 500 536.7 525 530.8C550 525 575 520 600 522.5C625 525 650 535 675 532.3C700 529.7 725 514.3 750 508.8C775 503.3 800 507.7 825 511.8C850 516 875 520 887.5 522L900 524L900 601L887.5 601C875 601 850 601 825 601C800 601 775 601 750 601C725 601 700 601 675 601C650 601 625 601 600 601C575 601 550 601 525 601C500 601 475 601 450 601C425 601 400 601 375 601C350 601 325 601 300 601C275 601 250 601 225 601C200 601 175 601 150 601C125 601 100 601 75 601C50 601 25 601 12.5 601L0 601Z" fill="#693777"></path><path d="M0 549L12.5 551.5C25 554 50 559 75 558.8C100 558.7 125 553.3 150 548.2C175 543 200 538 225 541.7C250 545.3 275 557.7 300 562C325 566.3 350 562.7 375 561.8C400 561 425 563 450 565C475 567 500 569 525 567.3C550 565.7 575 560.3 600 554.8C625 549.3 650 543.7 675 544.3C700 545 725 552 750 558.2C775 564.3 800 569.7 825 568.5C850 567.3 875 559.7 887.5 555.8L900 552L900 601L887.5 601C875 601 850 601 825 601C800 601 775 601 750 601C725 601 700 601 675 601C650 601 625 601 600 601C575 601 550 601 525 601C500 601 475 601 450 601C425 601 400 601 375 601C350 601 325 601 300 601C275 601 250 601 225 601C200 601 175 601 150 601C125 601 100 601 75 601C50 601 25 601 12.5 601L0 601Z" fill="#451b50"></path></svg>