<svg id="visual" viewBox="0 0 900 450" width="900" height="450" xmlns="http://www.w3.org/2000/svg" xmlns:xlink="http://www.w3.org/1999/xlink" version="1.1"><path d="M0 420L37.5 415.2C75 410.3 150 400.7 225 385.5C300 370.3 375 349.7 450 338.2C525 326.7 600 324.3 675 341.8C750 359.3 825 396.7 862.5 415.3L900 434L900 451L862.5 451C825 451 750 451 675 451C600 451 525 451 450 451C375 451 300 451 225 451C150 451 75 451 37.5 451L0 451Z" fill="#FFFFFF" stroke-linecap="round" stroke-linejoin="miter"></path></svg>