<svg id="visual" viewBox="0 0 900 450" width="900" height="450" xmlns="http://www.w3.org/2000/svg" xmlns:xlink="http://www.w3.org/1999/xlink" version="1.1"><path d="M0 23L21.5 25.8C43 28.7 86 34.3 128.8 37C171.7 39.7 214.3 39.3 257.2 38.5C300 37.7 343 36.3 385.8 29.8C428.7 23.3 471.3 11.7 514.2 7.8C557 4 600 8 642.8 12.8C685.7 17.7 728.3 23.3 771.2 24.8C814 26.3 857 23.7 878.5 22.3L900 21L900 0L878.5 0C857 0 814 0 771.2 0C728.3 0 685.7 0 642.8 0C600 0 557 0 514.2 0C471.3 0 428.7 0 385.8 0C343 0 300 0 257.2 0C214.3 0 171.7 0 128.8 0C86 0 43 0 21.5 0L0 0Z" fill="#8f54a0" stroke-linecap="round" stroke-linejoin="miter"></path></svg>